<?xml version="1.0" standalone="no"?>
<!DOCTYPE svg PUBLIC "-//W3C//DTD SVG 1.1//EN" "http://www.w3.org/Graphics/SVG/1.1/DTD/svg11.dtd" >
<svg xmlns="http://www.w3.org/2000/svg" xmlns:xlink="http://www.w3.org/1999/xlink" version="1.1">
<metadata>
Created by FontForge 20170731 at Sun Sep  8 02:22:57 2019
 By Aleksey,,,
Copyright 2019 The Inter project authors
</metadata>
<defs>
<font id="Inter-LightItalicBETA" horiz-adv-x="0" >
  <font-face 
    font-family="Inter Light  BETA"
    font-weight="300"
    font-style="italic"
    font-stretch="normal"
    units-per-em="2816"
    panose-1="2 0 4 3 0 0 0 2 0 4"
    ascent="2252"
    descent="-564"
    x-height="1536"
    cap-height="2048"
    bbox="-2045 -900 7317 3017.02"
    underline-thickness="149"
    underline-position="-913"
    slope="9.39999"
    unicode-range="U+0020-1F852"
  />
<missing-glyph horiz-adv-x="2748" 
d="M211 1472l-18 512h2282l17 -512h-2281zM233 768l-16 512h2280l18 -512h-2282zM280 -640l-16 512h2280l17 -512h-2281zM257 64l-17 512h2281l16 -512h-2280zM188 2176l-17 512h2281l16 -512h-2280z" />
    <glyph glyph-name="uni2192" unicode="&#x2d;&#x3e;" horiz-adv-x="2688" 
d="M1386 0l-109 125l804 687h-1721l29 168h1756l-588 706l127 106l748 -896z" />
    <glyph glyph-name="uni2194" unicode="&#x3c;&#x2192;" horiz-adv-x="3776" 
d="M1046 0l-748 896l1046 896l109 -125l-804 -687h2584l-588 706l127 106l748 -896l-1046 -896l-109 125l804 687h-2584l588 -706z" />
    <glyph glyph-name="uni21D2" unicode="&#x3d;&#x3e;" horiz-adv-x="2688" 
d="M1386 0l-107 127l539 460h-1496l28 168h1665l186 159l-103 123h-1701l27 168h1534l-401 481l127 106l748 -896z" />
    <glyph glyph-name="uni21D4" unicode="&#x3c;&#x3d;&#x3e;" horiz-adv-x="3776" 
d="M2474 0l-107 127l539 460h-2134l401 -481l-127 -106l-748 896l1046 896l109 -125l-541 -462h2134l-401 481l127 106l748 -896zM632 755h2471l186 159l-103 123h-2471l-186 -159z" />
    <glyph glyph-name="uni2295" unicode="&#x2b;&#x20dd;" horiz-adv-x="3912" 
d="M1691 -900q-176 0 -342.5 31t-312.5 90t-278 143.5t-238.5 191t-194.5 233.5t-146 270t-93 301.5t-36 327.5t26 348q43 260 153 508t268 458t363.5 386t436 299.5t490 192t519.5 68.5q176 0 342.5 -31t312.5 -90t278 -143.5t238.5 -191t194.5 -233.5t146.5 -270
t93.5 -301.5t35.5 -327.5t-26.5 -348q-43 -260 -153 -508t-268 -458t-363.5 -386t-436 -299.5t-490 -192t-519.5 -68.5zM1691 -724q239 0 478 63.5t451.5 177.5t402.5 277.5t336 357t247.5 422t140.5 467.5q32 180 23.5 350.5t-46 326t-110 294t-168 255.5t-220.5 210.5
t-267.5 159t-308.5 100.5t-344 35q-239 0 -478 -63.5t-451 -177.5t-402.5 -277.5t-336 -357t-247 -422t-141.5 -467.5q-32 -180 -23 -350.5t46 -326t110 -294t168 -255.5t220 -210.5t267.5 -159t308.5 -100.5t344 -35zM1808 388l90 548h-547l29 170h547l90 548h172l-90 -548
h548l-30 -170h-547l-90 -548h-172z" />
    <glyph glyph-name="uni2296" unicode="&#x20dd;&#x2212;" horiz-adv-x="3912" 
d="M1691 -900q-176 0 -342.5 31t-312.5 90t-278 143.5t-238.5 191t-194.5 233.5t-146 270t-93 301.5t-36 327.5t26 348q43 260 153 508t268 458t363.5 386t436 299.5t490 192t519.5 68.5q176 0 342.5 -31t312.5 -90t278 -143.5t238.5 -191t194.5 -233.5t146.5 -270
t93.5 -301.5t35.5 -327.5t-26.5 -348q-43 -260 -153 -508t-268 -458t-363.5 -386t-436 -299.5t-490 -192t-519.5 -68.5zM1691 -724q239 0 478 63.5t451.5 177.5t402.5 277.5t336 357t247.5 422t140.5 467.5q32 180 23.5 350.5t-46 326t-110 294t-168 255.5t-220.5 210.5
t-267.5 159t-308.5 100.5t-344 35q-239 0 -478 -63.5t-451 -177.5t-402.5 -277.5t-336 -357t-247 -422t-141.5 -467.5q-32 -180 -23 -350.5t46 -326t110 -294t168 -255.5t220 -210.5t267.5 -159t308.5 -100.5t344 -35zM2633 1109l-29 -170h-1240l29 170h1240z" />
    <glyph glyph-name="uni2297" unicode="&#xd7;&#x20dd;" horiz-adv-x="3912" 
d="M1691 -900q-176 0 -342.5 31t-312.5 90t-278 143.5t-238.5 191t-194.5 233.5t-146 270t-93 301.5t-36 327.5t26 348q43 260 153 508t268 458t363.5 386t436 299.5t490 192t519.5 68.5q176 0 342.5 -31t312.5 -90t278 -143.5t238.5 -191t194.5 -233.5t146.5 -270
t93.5 -301.5t35.5 -327.5t-26.5 -348q-43 -260 -153 -508t-268 -458t-363.5 -386t-436 -299.5t-490 -192t-519.5 -68.5zM1691 -724q239 0 478 63.5t451.5 177.5t402.5 277.5t336 357t247.5 422t140.5 467.5q32 180 23.5 350.5t-46 326t-110 294t-168 255.5t-220.5 210.5
t-267.5 159t-308.5 100.5t-344 35q-239 0 -478 -63.5t-451 -177.5t-402.5 -277.5t-336 -357t-247 -422t-141.5 -467.5q-32 -180 -23 -350.5t46 -326t110 -294t168 -255.5t220 -210.5t267.5 -159t308.5 -100.5t344 -35zM2401 387l-415 498l-581 -497l-108 125l583 499
l-419 503l126 106l419 -502l586 501l107 -125l-588 -503l416 -499z" />
    <glyph glyph-name="uni2460" unicode="&#x31;&#x20dd;" horiz-adv-x="3912" 
d="M1691 -900q-176 0 -342.5 31t-312.5 90t-278 143.5t-238.5 191t-194.5 233.5t-146 270t-93 301.5t-36 327.5t26 348q43 260 153 508t268 458t363.5 386t436 299.5t490 192t519.5 68.5q176 0 342.5 -31t312.5 -90t278 -143.5t238.5 -191t194.5 -233.5t146.5 -270
t93.5 -301.5t35.5 -327.5t-26.5 -348q-43 -260 -153 -508t-268 -458t-363.5 -386t-436 -299.5t-490 -192t-519.5 -68.5zM1691 -724q239 0 478 63.5t451.5 177.5t402.5 277.5t336 357t247.5 422t140.5 467.5q32 180 23.5 350.5t-46 326t-110 294t-168 255.5t-220.5 210.5
t-267.5 159t-308.5 100.5t-344 35q-239 0 -478 -63.5t-451 -177.5t-402.5 -277.5t-336 -357t-247 -422t-141.5 -467.5q-32 -180 -23 -350.5t46 -326t110 -294t168 -255.5t220 -210.5t267.5 -159t308.5 -100.5t344 -35zM2305 2048l-340 -2048h-187l307 1852h-12l-533 -319
l33 194l537 321h195z" />
    <glyph glyph-name="uni2461" unicode="&#x32;&#x20dd;" horiz-adv-x="3912" 
d="M1691 -900q-176 0 -342.5 31t-312.5 90t-278 143.5t-238.5 191t-194.5 233.5t-146 270t-93 301.5t-36 327.5t26 348q43 260 153 508t268 458t363.5 386t436 299.5t490 192t519.5 68.5q176 0 342.5 -31t312.5 -90t278 -143.5t238.5 -191t194.5 -233.5t146.5 -270
t93.5 -301.5t35.5 -327.5t-26.5 -348q-43 -260 -153 -508t-268 -458t-363.5 -386t-436 -299.5t-490 -192t-519.5 -68.5zM1691 -724q239 0 478 63.5t451.5 177.5t402.5 277.5t336 357t247.5 422t140.5 467.5q32 180 23.5 350.5t-46 326t-110 294t-168 255.5t-220.5 210.5
t-267.5 159t-308.5 100.5t-344 35q-239 0 -478 -63.5t-451 -177.5t-402.5 -277.5t-336 -357t-247 -422t-141.5 -467.5q-32 -180 -23 -350.5t46 -326t110 -294t168 -255.5t220 -210.5t267.5 -159t308.5 -100.5t344 -35zM1180 0l24 137l792 752q249 236 348.5 365t122.5 267
q28 174 -69 282t-278 108q-188 0 -326.5 -117.5t-169.5 -300.5h-179q28 167 129 300.5t252.5 208t322.5 74.5q168 0 290.5 -73.5t176 -200t27.5 -281.5q-29 -170 -147.5 -330t-423.5 -443l-601 -567l-3 -13h1013l-28 -168h-1273z" />
    <glyph glyph-name="uni2462" unicode="&#x33;&#x20dd;" horiz-adv-x="3912" 
d="M1691 -900q-176 0 -342.5 31t-312.5 90t-278 143.5t-238.5 191t-194.5 233.5t-146 270t-93 301.5t-36 327.5t26 348q43 260 153 508t268 458t363.5 386t436 299.5t490 192t519.5 68.5q176 0 342.5 -31t312.5 -90t278 -143.5t238.5 -191t194.5 -233.5t146.5 -270
t93.5 -301.5t35.5 -327.5t-26.5 -348q-43 -260 -153 -508t-268 -458t-363.5 -386t-436 -299.5t-490 -192t-519.5 -68.5zM1691 -724q239 0 478 63.5t451.5 177.5t402.5 277.5t336 357t247.5 422t140.5 467.5q32 180 23.5 350.5t-46 326t-110 294t-168 255.5t-220.5 210.5
t-267.5 159t-308.5 100.5t-344 35q-239 0 -478 -63.5t-451 -177.5t-402.5 -277.5t-336 -357t-247 -422t-141.5 -467.5q-32 -180 -23 -350.5t46 -326t110 -294t168 -255.5t220 -210.5t267.5 -159t308.5 -100.5t344 -35zM1842 -28q-189 0 -330 67.5t-208.5 191t-45.5 281.5
h187q-20 -167 91 -269.5t309 -102.5q213 0 374 117t190 302q28 183 -91.5 296t-359.5 113h-122l26 168h115q202 0 349.5 110.5t177.5 292.5q27 167 -62.5 269.5t-272.5 102.5q-120 0 -230 -45t-188 -132t-97 -198h-181q29 156 132 280t253 192t318 68q177 0 302.5 -76
t177 -200.5t26.5 -274.5q-27 -170 -141.5 -292t-286.5 -172v-10q189 -39 279 -178.5t57 -335.5q-41 -253 -248.5 -409t-499.5 -156z" />
    <glyph glyph-name="uni2463" unicode="&#x34;&#x20dd;" horiz-adv-x="3912" 
d="M1691 -900q-176 0 -342.5 31t-312.5 90t-278 143.5t-238.5 191t-194.5 233.5t-146 270t-93 301.5t-36 327.5t26 348q43 260 153 508t268 458t363.5 386t436 299.5t490 192t519.5 68.5q176 0 342.5 -31t312.5 -90t278 -143.5t238.5 -191t194.5 -233.5t146.5 -270
t93.5 -301.5t35.5 -327.5t-26.5 -348q-43 -260 -153 -508t-268 -458t-363.5 -386t-436 -299.5t-490 -192t-519.5 -68.5zM1691 -724q239 0 478 63.5t451.5 177.5t402.5 277.5t336 357t247.5 422t140.5 467.5q32 180 23.5 350.5t-46 326t-110 294t-168 255.5t-220.5 210.5
t-267.5 159t-308.5 100.5t-344 35q-239 0 -478 -63.5t-451 -177.5t-402.5 -277.5t-336 -357t-247 -422t-141.5 -467.5q-32 -180 -23 -350.5t46 -326t110 -294t168 -255.5t220 -210.5t267.5 -159t308.5 -100.5t344 -35zM1077 440l24 152l1155 1456h221l-239 -1440h274
l-28 -168h-274l-73 -440h-178l73 440h-955zM2060 608l197 1185h-13l-929 -1172v-13h745z" />
    <glyph glyph-name="uni2464" unicode="&#x35;&#x20dd;" horiz-adv-x="3912" 
d="M1691 -900q-176 0 -342.5 31t-312.5 90t-278 143.5t-238.5 191t-194.5 233.5t-146 270t-93 301.5t-36 327.5t26 348q43 260 153 508t268 458t363.5 386t436 299.5t490 192t519.5 68.5q176 0 342.5 -31t312.5 -90t278 -143.5t238.5 -191t194.5 -233.5t146.5 -270
t93.5 -301.5t35.5 -327.5t-26.5 -348q-43 -260 -153 -508t-268 -458t-363.5 -386t-436 -299.5t-490 -192t-519.5 -68.5zM1691 -724q239 0 478 63.5t451.5 177.5t402.5 277.5t336 357t247.5 422t140.5 467.5q32 180 23.5 350.5t-46 326t-110 294t-168 255.5t-220.5 210.5
t-267.5 159t-308.5 100.5t-344 35q-239 0 -478 -63.5t-451 -177.5t-402.5 -277.5t-336 -357t-247 -422t-141.5 -467.5q-32 -180 -23 -350.5t46 -326t110 -294t168 -255.5t220 -210.5t267.5 -159t308.5 -100.5t344 -35zM1803 -28q-256 0 -401.5 152.5t-114.5 387.5h181
q-17 -162 83.5 -267t275.5 -105q205 0 364.5 143.5t195.5 360.5q36 223 -77.5 366t-320.5 143q-100 0 -207 -34.5t-183 -89.5l-183 24l288 995h1012l-28 -168h-855l-196 -685h11q80 60 183 94.5t212 34.5q133 0 243 -50.5t180.5 -139t98.5 -215.5t3 -272q-32 -192 -141 -346
t-273 -241.5t-351 -87.5z" />
    <glyph glyph-name="uni2465" unicode="&#x36;&#x20dd;" horiz-adv-x="3912" 
d="M1691 -900q-176 0 -342.5 31t-312.5 90t-278 143.5t-238.5 191t-194.5 233.5t-146 270t-93 301.5t-36 327.5t26 348q43 260 153 508t268 458t363.5 386t436 299.5t490 192t519.5 68.5q176 0 342.5 -31t312.5 -90t278 -143.5t238.5 -191t194.5 -233.5t146.5 -270
t93.5 -301.5t35.5 -327.5t-26.5 -348q-43 -260 -153 -508t-268 -458t-363.5 -386t-436 -299.5t-490 -192t-519.5 -68.5zM1691 -724q239 0 478 63.5t451.5 177.5t402.5 277.5t336 357t247.5 422t140.5 467.5q32 180 23.5 350.5t-46 326t-110 294t-168 255.5t-220.5 210.5
t-267.5 159t-308.5 100.5t-344 35q-239 0 -478 -63.5t-451 -177.5t-402.5 -277.5t-336 -357t-247 -422t-141.5 -467.5q-32 -180 -23 -350.5t46 -326t110 -294t168 -255.5t220 -210.5t267.5 -159t308.5 -100.5t344 -35zM1839 -28q-89 1 -167 23t-149.5 70.5t-121 124.5
t-82 184.5t-33 251t27.5 323.5q41 252 118.5 457.5t187 356t257 233.5t319.5 83q244 0 384.5 -149.5t130.5 -393.5h-179q3 172 -83 273.5t-257 101.5q-255 0 -438 -234t-256 -670l13 10q96 136 243 215t309 79q129 0 237.5 -51.5t179.5 -140.5t101 -215.5t6 -270.5
q-24 -135 -90 -256t-162.5 -211t-225.5 -142.5t-270 -51.5zM1844 140q201 0 364.5 150.5t199.5 364.5q22 134 -18 245.5t-133.5 177t-221.5 65.5q-102 0 -201.5 -43t-176 -114.5t-127.5 -167.5t-60 -197q-18 -211 84.5 -346t289.5 -135z" />
    <glyph glyph-name="uni2466" unicode="&#x37;&#x20dd;" horiz-adv-x="3912" 
d="M1691 -900q-176 0 -342.5 31t-312.5 90t-278 143.5t-238.5 191t-194.5 233.5t-146 270t-93 301.5t-36 327.5t26 348q43 260 153 508t268 458t363.5 386t436 299.5t490 192t519.5 68.5q176 0 342.5 -31t312.5 -90t278 -143.5t238.5 -191t194.5 -233.5t146.5 -270
t93.5 -301.5t35.5 -327.5t-26.5 -348q-43 -260 -153 -508t-268 -458t-363.5 -386t-436 -299.5t-490 -192t-519.5 -68.5zM1691 -724q239 0 478 63.5t451.5 177.5t402.5 277.5t336 357t247.5 422t140.5 467.5q32 180 23.5 350.5t-46 326t-110 294t-168 255.5t-220.5 210.5
t-267.5 159t-308.5 100.5t-344 35q-239 0 -478 -63.5t-451 -177.5t-402.5 -277.5t-336 -357t-247 -422t-141.5 -467.5q-32 -180 -23 -350.5t46 -326t110 -294t168 -255.5t220 -210.5t267.5 -159t308.5 -100.5t344 -35zM1362 0l1242 1867l3 13h-1075l28 168h1271l-31 -176
l-1241 -1872h-197z" />
    <glyph glyph-name="uni2467" unicode="&#x38;&#x20dd;" horiz-adv-x="3912" 
d="M1691 -900q-176 0 -342.5 31t-312.5 90t-278 143.5t-238.5 191t-194.5 233.5t-146 270t-93 301.5t-36 327.5t26 348q43 260 153 508t268 458t363.5 386t436 299.5t490 192t519.5 68.5q176 0 342.5 -31t312.5 -90t278 -143.5t238.5 -191t194.5 -233.5t146.5 -270
t93.5 -301.5t35.5 -327.5t-26.5 -348q-43 -260 -153 -508t-268 -458t-363.5 -386t-436 -299.5t-490 -192t-519.5 -68.5zM1691 -724q239 0 478 63.5t451.5 177.5t402.5 277.5t336 357t247.5 422t140.5 467.5q32 180 23.5 350.5t-46 326t-110 294t-168 255.5t-220.5 210.5
t-267.5 159t-308.5 100.5t-344 35q-239 0 -478 -63.5t-451 -177.5t-402.5 -277.5t-336 -357t-247 -422t-141.5 -467.5q-32 -180 -23 -350.5t46 -326t110 -294t168 -255.5t220 -210.5t267.5 -159t308.5 -100.5t344 -35zM1829 -28q-147 0 -268 44.5t-198.5 121.5t-111.5 184
t-14 227q31 187 169.5 332.5t318.5 179.5v8q-143 44 -211.5 178.5t-36.5 303.5q27 150 123.5 270t242.5 187.5t313 67.5q171 0 300 -71.5t189.5 -197t34.5 -278.5q-30 -167 -145.5 -292t-273.5 -168v-8q111 -24 193 -101t118 -191t14 -241q-27 -158 -133.5 -285.5
t-270.5 -199t-353 -71.5zM1833 140q223 0 384.5 118t190.5 301q19 120 -26.5 215.5t-145 149t-235.5 53.5q-215 0 -382.5 -126.5t-197.5 -313.5q-28 -177 85 -287t327 -110zM1997 1137q186 0 330 115t174 288q28 167 -68.5 269t-278.5 102q-190 0 -331.5 -110.5
t-169.5 -281.5q-28 -168 69.5 -275t274.5 -107z" />
    <glyph glyph-name="uni2468" unicode="&#x39;&#x20dd;" horiz-adv-x="3912" 
d="M1691 -900q-176 0 -342.5 31t-312.5 90t-278 143.5t-238.5 191t-194.5 233.5t-146 270t-93 301.5t-36 327.5t26 348q43 260 153 508t268 458t363.5 386t436 299.5t490 192t519.5 68.5q176 0 342.5 -31t312.5 -90t278 -143.5t238.5 -191t194.5 -233.5t146.5 -270
t93.5 -301.5t35.5 -327.5t-26.5 -348q-43 -260 -153 -508t-268 -458t-363.5 -386t-436 -299.5t-490 -192t-519.5 -68.5zM1691 -724q239 0 478 63.5t451.5 177.5t402.5 277.5t336 357t247.5 422t140.5 467.5q32 180 23.5 350.5t-46 326t-110 294t-168 255.5t-220.5 210.5
t-267.5 159t-308.5 100.5t-344 35q-239 0 -478 -63.5t-451 -177.5t-402.5 -277.5t-336 -357t-247 -422t-141.5 -467.5q-32 -180 -23 -350.5t46 -326t110 -294t168 -255.5t220 -210.5t267.5 -159t308.5 -100.5t344 -35zM2152 2080q89 -1 167 -23t149.5 -70.5t121 -124.5
t82 -184.5t33 -251t-26.5 -323.5q-42 -252 -119 -457.5t-187 -356.5t-257.5 -234t-319.5 -83q-244 0 -384.5 150t-130.5 394h179q-2 -173 83.5 -274.5t256.5 -101.5q255 0 438.5 234t256.5 671l-14 -10q-95 -136 -242.5 -215t-309.5 -79q-129 0 -237.5 51.5t-180 140.5
t-101 216t-5.5 270q24 135 90 256t162.5 211t225.5 142.5t270 51.5zM2147 1912q-201 0 -365 -150.5t-199 -364.5q-22 -134 18 -245.5t133.5 -177t221.5 -65.5q102 0 202 43t176.5 114.5t127.5 167.5t60 197q18 210 -85 345.5t-290 135.5z" />
    <glyph glyph-name="uni24B6" unicode="A&#x20dd;" horiz-adv-x="3912" 
d="M1691 -900q-176 0 -342.5 31t-312.5 90t-278 143.5t-238.5 191t-194.5 233.5t-146 270t-93 301.5t-36 327.5t26 348q43 260 153 508t268 458t363.5 386t436 299.5t490 192t519.5 68.5q176 0 342.5 -31t312.5 -90t278 -143.5t238.5 -191t194.5 -233.5t146.5 -270
t93.5 -301.5t35.5 -327.5t-26.5 -348q-43 -260 -153 -508t-268 -458t-363.5 -386t-436 -299.5t-490 -192t-519.5 -68.5zM1691 -724q239 0 478 63.5t451.5 177.5t402.5 277.5t336 357t247.5 422t140.5 467.5q32 180 23.5 350.5t-46 326t-110 294t-168 255.5t-220.5 210.5
t-267.5 159t-308.5 100.5t-344 35q-239 0 -478 -63.5t-451 -177.5t-402.5 -277.5t-336 -357t-247 -422t-141.5 -467.5q-32 -180 -23 -350.5t46 -326t110 -294t168 -255.5t220 -210.5t267.5 -159t308.5 -100.5t344 -35zM1186 0h-196l1085 2048h200l405 -2048h-196l-117 617
h-858zM1597 785h739l-193 1020h-13z" />
    <glyph glyph-name="uni24B7" unicode="B&#x20dd;" horiz-adv-x="3912" 
d="M1691 -900q-176 0 -342.5 31t-312.5 90t-278 143.5t-238.5 191t-194.5 233.5t-146 270t-93 301.5t-36 327.5t26 348q43 260 153 508t268 458t363.5 386t436 299.5t490 192t519.5 68.5q176 0 342.5 -31t312.5 -90t278 -143.5t238.5 -191t194.5 -233.5t146.5 -270
t93.5 -301.5t35.5 -327.5t-26.5 -348q-43 -260 -153 -508t-268 -458t-363.5 -386t-436 -299.5t-490 -192t-519.5 -68.5zM1691 -724q239 0 478 63.5t451.5 177.5t402.5 277.5t336 357t247.5 422t140.5 467.5q32 180 23.5 350.5t-46 326t-110 294t-168 255.5t-220.5 210.5
t-267.5 159t-308.5 100.5t-344 35q-239 0 -478 -63.5t-451 -177.5t-402.5 -277.5t-336 -357t-247 -422t-141.5 -467.5q-32 -180 -23 -350.5t46 -326t110 -294t168 -255.5t220 -210.5t267.5 -159t308.5 -100.5t344 -35zM1236 0l340 2048h691q147 0 255.5 -40.5t170 -112.5
t83 -169.5t1.5 -213.5q-30 -182 -137.5 -294.5t-259.5 -152.5l-3 -16q75 -5 140.5 -42.5t113 -101t67 -160t1.5 -208.5q-41 -243 -228.5 -390t-505.5 -147h-729zM1451 168h542q228 0 363 101t164 268q28 179 -78.5 299.5t-308.5 120.5h-550zM1611 1123h521
q180 0 310.5 109.5t156.5 279.5q29 168 -63 268t-297 100h-504z" />
    <glyph glyph-name="uni24B8" unicode="C&#x20dd;" horiz-adv-x="3912" 
d="M1691 -900q-176 0 -342.5 31t-312.5 90t-278 143.5t-238.5 191t-194.5 233.5t-146 270t-93 301.5t-36 327.5t26 348q43 260 153 508t268 458t363.5 386t436 299.5t490 192t519.5 68.5q176 0 342.5 -31t312.5 -90t278 -143.5t238.5 -191t194.5 -233.5t146.5 -270
t93.5 -301.5t35.5 -327.5t-26.5 -348q-43 -260 -153 -508t-268 -458t-363.5 -386t-436 -299.5t-490 -192t-519.5 -68.5zM1691 -724q239 0 478 63.5t451.5 177.5t402.5 277.5t336 357t247.5 422t140.5 467.5q32 180 23.5 350.5t-46 326t-110 294t-168 255.5t-220.5 210.5
t-267.5 159t-308.5 100.5t-344 35q-239 0 -478 -63.5t-451 -177.5t-402.5 -277.5t-336 -357t-247 -422t-141.5 -467.5q-32 -180 -23 -350.5t46 -326t110 -294t168 -255.5t220 -210.5t267.5 -159t308.5 -100.5t344 -35zM2887 1408h-186q-7 214 -153.5 353t-379.5 139
q-148 0 -287 -59t-254.5 -169t-199.5 -280t-118 -379q-34 -211 -7.5 -373t104 -271t193.5 -165t261 -56q241 0 438 138.5t277 353.5h188q-50 -141 -138.5 -263t-205 -212t-263.5 -141.5t-305 -51.5q-195 0 -348.5 75t-248 214t-130 335t6.5 439q39 235 136.5 430.5t235 329
t312 207.5t365.5 74q161 0 294 -51.5t222 -141.5t139 -212t52 -263z" />
    <glyph glyph-name="uni24B9" unicode="D&#x20dd;" horiz-adv-x="3912" 
d="M1691 -900q-176 0 -342.5 31t-312.5 90t-278 143.5t-238.5 191t-194.5 233.5t-146 270t-93 301.5t-36 327.5t26 348q43 260 153 508t268 458t363.5 386t436 299.5t490 192t519.5 68.5q176 0 342.5 -31t312.5 -90t278 -143.5t238.5 -191t194.5 -233.5t146.5 -270
t93.5 -301.5t35.5 -327.5t-26.5 -348q-43 -260 -153 -508t-268 -458t-363.5 -386t-436 -299.5t-490 -192t-519.5 -68.5zM1691 -724q239 0 478 63.5t451.5 177.5t402.5 277.5t336 357t247.5 422t140.5 467.5q32 180 23.5 350.5t-46 326t-110 294t-168 255.5t-220.5 210.5
t-267.5 159t-308.5 100.5t-344 35q-239 0 -478 -63.5t-451 -177.5t-402.5 -277.5t-336 -357t-247 -422t-141.5 -467.5q-32 -180 -23 -350.5t46 -326t110 -294t168 -255.5t220 -210.5t267.5 -159t308.5 -100.5t344 -35zM1801 0h-605l340 2048h631q291 0 482 -123
t264.5 -355.5t19.5 -550.5q-80 -482 -376 -750.5t-756 -268.5zM1411 168h400q387 0 632 231.5t312 640.5q67 401 -89 620.5t-527 219.5h-444z" />
    <glyph glyph-name="uni24BA" unicode="E&#x20dd;" horiz-adv-x="3912" 
d="M1691 -900q-176 0 -342.5 31t-312.5 90t-278 143.5t-238.5 191t-194.5 233.5t-146 270t-93 301.5t-36 327.5t26 348q43 260 153 508t268 458t363.5 386t436 299.5t490 192t519.5 68.5q176 0 342.5 -31t312.5 -90t278 -143.5t238.5 -191t194.5 -233.5t146.5 -270
t93.5 -301.5t35.5 -327.5t-26.5 -348q-43 -260 -153 -508t-268 -458t-363.5 -386t-436 -299.5t-490 -192t-519.5 -68.5zM1691 -724q239 0 478 63.5t451.5 177.5t402.5 277.5t336 357t247.5 422t140.5 467.5q32 180 23.5 350.5t-46 326t-110 294t-168 255.5t-220.5 210.5
t-267.5 159t-308.5 100.5t-344 35q-239 0 -478 -63.5t-451 -177.5t-402.5 -277.5t-336 -357t-247 -422t-141.5 -467.5q-32 -180 -23 -350.5t46 -326t110 -294t168 -255.5t220 -210.5t267.5 -159t308.5 -100.5t344 -35zM1234 0l340 2048h1188l-28 -168h-1001l-128 -771h938
l-28 -168h-938l-128 -773h1021l-28 -168h-1208z" />
    <glyph glyph-name="uni24BB" unicode="F&#x20dd;" horiz-adv-x="3912" 
d="M1691 -900q-176 0 -342.5 31t-312.5 90t-278 143.5t-238.5 191t-194.5 233.5t-146 270t-93 301.5t-36 327.5t26 348q43 260 153 508t268 458t363.5 386t436 299.5t490 192t519.5 68.5q176 0 342.5 -31t312.5 -90t278 -143.5t238.5 -191t194.5 -233.5t146.5 -270
t93.5 -301.5t35.5 -327.5t-26.5 -348q-43 -260 -153 -508t-268 -458t-363.5 -386t-436 -299.5t-490 -192t-519.5 -68.5zM1691 -724q239 0 478 63.5t451.5 177.5t402.5 277.5t336 357t247.5 422t140.5 467.5q32 180 23.5 350.5t-46 326t-110 294t-168 255.5t-220.5 210.5
t-267.5 159t-308.5 100.5t-344 35q-239 0 -478 -63.5t-451 -177.5t-402.5 -277.5t-336 -357t-247 -422t-141.5 -467.5q-32 -180 -23 -350.5t46 -326t110 -294t168 -255.5t220 -210.5t267.5 -159t308.5 -100.5t344 -35zM1235 0l340 2048h1185l-28 -168h-998l-128 -771h905
l-28 -168h-905l-156 -941h-187z" />
    <glyph glyph-name="uni24BC" unicode="G&#x20dd;" horiz-adv-x="3912" 
d="M1691 -900q-176 0 -342.5 31t-312.5 90t-278 143.5t-238.5 191t-194.5 233.5t-146 270t-93 301.5t-36 327.5t26 348q43 260 153 508t268 458t363.5 386t436 299.5t490 192t519.5 68.5q176 0 342.5 -31t312.5 -90t278 -143.5t238.5 -191t194.5 -233.5t146.5 -270
t93.5 -301.5t35.5 -327.5t-26.5 -348q-43 -260 -153 -508t-268 -458t-363.5 -386t-436 -299.5t-490 -192t-519.5 -68.5zM1691 -724q239 0 478 63.5t451.5 177.5t402.5 277.5t336 357t247.5 422t140.5 467.5q32 180 23.5 350.5t-46 326t-110 294t-168 255.5t-220.5 210.5
t-267.5 159t-308.5 100.5t-344 35q-239 0 -478 -63.5t-451 -177.5t-402.5 -277.5t-336 -357t-247 -422t-141.5 -467.5q-32 -180 -23 -350.5t46 -326t110 -294t168 -255.5t220 -210.5t267.5 -159t308.5 -100.5t344 -35zM2699 1408q-8 84 -32.5 157t-68 135t-103.5 106
t-143.5 69t-184.5 25q-144 0 -281.5 -58.5t-253.5 -166.5t-201.5 -276.5t-119.5 -374.5q-68 -410 83.5 -643t469.5 -233q184 0 344.5 81.5t272 236t147.5 358.5h-597l31 168h777l-31 -168q-41 -258 -178.5 -452.5t-340.5 -297t-442 -102.5q-266 0 -447 128.5t-252 367.5
t-18 556q38 237 135 434.5t235.5 332.5t314 210t367.5 75q164 0 299 -53.5t223 -145.5t136.5 -212.5t50.5 -256.5h-192z" />
    <glyph glyph-name="uni24BD" unicode="H&#x20dd;" horiz-adv-x="3912" 
d="M1691 -900q-176 0 -342.5 31t-312.5 90t-278 143.5t-238.5 191t-194.5 233.5t-146 270t-93 301.5t-36 327.5t26 348q43 260 153 508t268 458t363.5 386t436 299.5t490 192t519.5 68.5q176 0 342.5 -31t312.5 -90t278 -143.5t238.5 -191t194.5 -233.5t146.5 -270
t93.5 -301.5t35.5 -327.5t-26.5 -348q-43 -260 -153 -508t-268 -458t-363.5 -386t-436 -299.5t-490 -192t-519.5 -68.5zM1691 -724q239 0 478 63.5t451.5 177.5t402.5 277.5t336 357t247.5 422t140.5 467.5q32 180 23.5 350.5t-46 326t-110 294t-168 255.5t-220.5 210.5
t-267.5 159t-308.5 100.5t-344 35q-239 0 -478 -63.5t-451 -177.5t-402.5 -277.5t-336 -357t-247 -422t-141.5 -467.5q-32 -180 -23 -350.5t46 -326t110 -294t168 -255.5t220 -210.5t267.5 -159t308.5 -100.5t344 -35zM1060 0l340 2048h187l-156 -939h1162l156 939h187
l-340 -2048h-187l156 941h-1162l-156 -941h-187z" />
    <glyph glyph-name="uni24BE" unicode="I&#x20dd;" horiz-adv-x="3912" 
d="M1691 -900q-176 0 -342.5 31t-312.5 90t-278 143.5t-238.5 191t-194.5 233.5t-146 270t-93 301.5t-36 327.5t26 348q43 260 153 508t268 458t363.5 386t436 299.5t490 192t519.5 68.5q176 0 342.5 -31t312.5 -90t278 -143.5t238.5 -191t194.5 -233.5t146.5 -270
t93.5 -301.5t35.5 -327.5t-26.5 -348q-43 -260 -153 -508t-268 -458t-363.5 -386t-436 -299.5t-490 -192t-519.5 -68.5zM1691 -724q239 0 478 63.5t451.5 177.5t402.5 277.5t336 357t247.5 422t140.5 467.5q32 180 23.5 350.5t-46 326t-110 294t-168 255.5t-220.5 210.5
t-267.5 159t-308.5 100.5t-344 35q-239 0 -478 -63.5t-451 -177.5t-402.5 -277.5t-336 -357t-247 -422t-141.5 -467.5q-32 -180 -23 -350.5t46 -326t110 -294t168 -255.5t220 -210.5t267.5 -159t308.5 -100.5t344 -35zM2262 2048l-340 -2048h-187l340 2048h187z" />
    <glyph glyph-name="uni24BF" unicode="J&#x20dd;" horiz-adv-x="3912" 
d="M1691 -900q-176 0 -342.5 31t-312.5 90t-278 143.5t-238.5 191t-194.5 233.5t-146 270t-93 301.5t-36 327.5t26 348q43 260 153 508t268 458t363.5 386t436 299.5t490 192t519.5 68.5q176 0 342.5 -31t312.5 -90t278 -143.5t238.5 -191t194.5 -233.5t146.5 -270
t93.5 -301.5t35.5 -327.5t-26.5 -348q-43 -260 -153 -508t-268 -458t-363.5 -386t-436 -299.5t-490 -192t-519.5 -68.5zM1691 -724q239 0 478 63.5t451.5 177.5t402.5 277.5t336 357t247.5 422t140.5 467.5q32 180 23.5 350.5t-46 326t-110 294t-168 255.5t-220.5 210.5
t-267.5 159t-308.5 100.5t-344 35q-239 0 -478 -63.5t-451 -177.5t-402.5 -277.5t-336 -357t-247 -422t-141.5 -467.5q-32 -180 -23 -350.5t46 -326t110 -294t168 -255.5t220 -210.5t267.5 -159t308.5 -100.5t344 -35zM2421 2048h187l-246 -1483q-48 -292 -218.5 -442.5
t-423.5 -150.5q-245 0 -381.5 131.5t-102.5 344.5h178q-20 -139 67.5 -223.5t244.5 -84.5q173 0 294.5 110.5t157.5 325.5z" />
    <glyph glyph-name="uni24C0" unicode="K&#x20dd;" horiz-adv-x="3912" 
d="M1691 -900q-176 0 -342.5 31t-312.5 90t-278 143.5t-238.5 191t-194.5 233.5t-146 270t-93 301.5t-36 327.5t26 348q43 260 153 508t268 458t363.5 386t436 299.5t490 192t519.5 68.5q176 0 342.5 -31t312.5 -90t278 -143.5t238.5 -191t194.5 -233.5t146.5 -270
t93.5 -301.5t35.5 -327.5t-26.5 -348q-43 -260 -153 -508t-268 -458t-363.5 -386t-436 -299.5t-490 -192t-519.5 -68.5zM1691 -724q239 0 478 63.5t451.5 177.5t402.5 277.5t336 357t247.5 422t140.5 467.5q32 180 23.5 350.5t-46 326t-110 294t-168 255.5t-220.5 210.5
t-267.5 159t-308.5 100.5t-344 35q-239 0 -478 -63.5t-451 -177.5t-402.5 -277.5t-336 -357t-247 -422t-141.5 -467.5q-32 -180 -23 -350.5t46 -326t110 -294t168 -255.5t220 -210.5t267.5 -159t308.5 -100.5t344 -35zM1184 0l340 2048h187l-183 -1103h19l1182 1103h246
l-1031 -947l687 -1101h-228l-596 971l-324 -306l-112 -665h-187z" />
    <glyph glyph-name="uni24C1" unicode="L&#x20dd;" horiz-adv-x="3912" 
d="M1691 -900q-176 0 -342.5 31t-312.5 90t-278 143.5t-238.5 191t-194.5 233.5t-146 270t-93 301.5t-36 327.5t26 348q43 260 153 508t268 458t363.5 386t436 299.5t490 192t519.5 68.5q176 0 342.5 -31t312.5 -90t278 -143.5t238.5 -191t194.5 -233.5t146.5 -270
t93.5 -301.5t35.5 -327.5t-26.5 -348q-43 -260 -153 -508t-268 -458t-363.5 -386t-436 -299.5t-490 -192t-519.5 -68.5zM1691 -724q239 0 478 63.5t451.5 177.5t402.5 277.5t336 357t247.5 422t140.5 467.5q32 180 23.5 350.5t-46 326t-110 294t-168 255.5t-220.5 210.5
t-267.5 159t-308.5 100.5t-344 35q-239 0 -478 -63.5t-451 -177.5t-402.5 -277.5t-336 -357t-247 -422t-141.5 -467.5q-32 -180 -23 -350.5t46 -326t110 -294t168 -255.5t220 -210.5t267.5 -159t308.5 -100.5t344 -35zM1409 0l340 2048h187l-312 -1880h976l-28 -168h-1163z
" />
    <glyph glyph-name="uni24C2" unicode="M&#x20dd;" horiz-adv-x="3912" 
d="M1691 -900q-176 0 -342.5 31t-312.5 90t-278 143.5t-238.5 191t-194.5 233.5t-146 270t-93 301.5t-36 327.5t26 348q43 260 153 508t268 458t363.5 386t436 299.5t490 192t519.5 68.5q176 0 342.5 -31t312.5 -90t278 -143.5t238.5 -191t194.5 -233.5t146.5 -270
t93.5 -301.5t35.5 -327.5t-26.5 -348q-43 -260 -153 -508t-268 -458t-363.5 -386t-436 -299.5t-490 -192t-519.5 -68.5zM1691 -724q239 0 478 63.5t451.5 177.5t402.5 277.5t336 357t247.5 422t140.5 467.5q32 180 23.5 350.5t-46 326t-110 294t-168 255.5t-220.5 210.5
t-267.5 159t-308.5 100.5t-344 35q-239 0 -478 -63.5t-451 -177.5t-402.5 -277.5t-336 -357t-247 -422t-141.5 -467.5q-32 -180 -23 -350.5t46 -326t110 -294t168 -255.5t220 -210.5t267.5 -159t308.5 -100.5t344 -35zM1200 2048h216l448 -1784h19l1037 1784h216l-340 -2048
h-176l276 1653h-16l-967 -1653h-170l-415 1653h-16l-276 -1653h-176z" />
    <glyph glyph-name="uni24C3" unicode="N&#x20dd;" horiz-adv-x="3912" 
d="M1691 -900q-176 0 -342.5 31t-312.5 90t-278 143.5t-238.5 191t-194.5 233.5t-146 270t-93 301.5t-36 327.5t26 348q43 260 153 508t268 458t363.5 386t436 299.5t490 192t519.5 68.5q176 0 342.5 -31t312.5 -90t278 -143.5t238.5 -191t194.5 -233.5t146.5 -270
t93.5 -301.5t35.5 -327.5t-26.5 -348q-43 -260 -153 -508t-268 -458t-363.5 -386t-436 -299.5t-490 -192t-519.5 -68.5zM1691 -724q239 0 478 63.5t451.5 177.5t402.5 277.5t336 357t247.5 422t140.5 467.5q32 180 23.5 350.5t-46 326t-110 294t-168 255.5t-220.5 210.5
t-267.5 159t-308.5 100.5t-344 35q-239 0 -478 -63.5t-451 -177.5t-402.5 -277.5t-336 -357t-247 -422t-141.5 -467.5q-32 -180 -23 -350.5t46 -326t110 -294t168 -255.5t220 -210.5t267.5 -159t308.5 -100.5t344 -35zM2966 2048l-340 -2048h-182l-925 1715h-16l-285 -1715
h-187l340 2048h181l928 -1717h16l286 1717h184z" />
    <glyph glyph-name="uni24C4" unicode="O&#x20dd;" horiz-adv-x="3912" 
d="M1691 -900q-176 0 -342.5 31t-312.5 90t-278 143.5t-238.5 191t-194.5 233.5t-146 270t-93 301.5t-36 327.5t26 348q43 260 153 508t268 458t363.5 386t436 299.5t490 192t519.5 68.5q176 0 342.5 -31t312.5 -90t278 -143.5t238.5 -191t194.5 -233.5t146.5 -270
t93.5 -301.5t35.5 -327.5t-26.5 -348q-43 -260 -153 -508t-268 -458t-363.5 -386t-436 -299.5t-490 -192t-519.5 -68.5zM1691 -724q239 0 478 63.5t451.5 177.5t402.5 277.5t336 357t247.5 422t140.5 467.5q32 180 23.5 350.5t-46 326t-110 294t-168 255.5t-220.5 210.5
t-267.5 159t-308.5 100.5t-344 35q-239 0 -478 -63.5t-451 -177.5t-402.5 -277.5t-336 -357t-247 -422t-141.5 -467.5q-32 -180 -23 -350.5t46 -326t110 -294t168 -255.5t220 -210.5t267.5 -159t308.5 -100.5t344 -35zM2882 1013q-39 -235 -136.5 -430t-234.5 -329
t-311 -208t-365 -74q-196 0 -349.5 75t-248 214t-129.5 335.5t6 438.5q40 235 137.5 430t235 329t312 208t365.5 74q194 0 347 -75t247.5 -214t130 -335t-6.5 -439zM2703 1035q34 205 9 366t-98.5 272t-190 169t-265.5 58q-154 0 -295.5 -61t-256.5 -173t-197.5 -280
t-116.5 -373t-9 -366t98.5 -272t190.5 -169t267 -58q207 0 386 104.5t306.5 307.5t171.5 475z" />
    <glyph glyph-name="uni24C5" unicode="P&#x20dd;" horiz-adv-x="3912" 
d="M1691 -900q-176 0 -342.5 31t-312.5 90t-278 143.5t-238.5 191t-194.5 233.5t-146 270t-93 301.5t-36 327.5t26 348q43 260 153 508t268 458t363.5 386t436 299.5t490 192t519.5 68.5q176 0 342.5 -31t312.5 -90t278 -143.5t238.5 -191t194.5 -233.5t146.5 -270
t93.5 -301.5t35.5 -327.5t-26.5 -348q-43 -260 -153 -508t-268 -458t-363.5 -386t-436 -299.5t-490 -192t-519.5 -68.5zM1691 -724q239 0 478 63.5t451.5 177.5t402.5 277.5t336 357t247.5 422t140.5 467.5q32 180 23.5 350.5t-46 326t-110 294t-168 255.5t-220.5 210.5
t-267.5 159t-308.5 100.5t-344 35q-239 0 -478 -63.5t-451 -177.5t-402.5 -277.5t-336 -357t-247 -422t-141.5 -467.5q-32 -180 -23 -350.5t46 -326t110 -294t168 -255.5t220 -210.5t267.5 -159t308.5 -100.5t344 -35zM1301 0l340 2048h661q212 0 349 -83.5t186.5 -224.5
t19.5 -324q-22 -135 -84 -249.5t-157 -200.5t-229.5 -134.5t-292.5 -48.5h-476l-130 -783h-187zM1646 951h471q233 0 377.5 128t178.5 337q34 211 -67.5 337.5t-336.5 126.5h-469z" />
    <glyph glyph-name="uni24C6" unicode="Q&#x20dd;" horiz-adv-x="3912" 
d="M1691 -900q-176 0 -342.5 31t-312.5 90t-278 143.5t-238.5 191t-194.5 233.5t-146 270t-93 301.5t-36 327.5t26 348q43 260 153 508t268 458t363.5 386t436 299.5t490 192t519.5 68.5q176 0 342.5 -31t312.5 -90t278 -143.5t238.5 -191t194.5 -233.5t146.5 -270
t93.5 -301.5t35.5 -327.5t-26.5 -348q-43 -260 -153 -508t-268 -458t-363.5 -386t-436 -299.5t-490 -192t-519.5 -68.5zM1691 -724q239 0 478 63.5t451.5 177.5t402.5 277.5t336 357t247.5 422t140.5 467.5q32 180 23.5 350.5t-46 326t-110 294t-168 255.5t-220.5 210.5
t-267.5 159t-308.5 100.5t-344 35q-239 0 -478 -63.5t-451 -177.5t-402.5 -277.5t-336 -357t-247 -422t-141.5 -467.5q-32 -180 -23 -350.5t46 -326t110 -294t168 -255.5t220 -210.5t267.5 -159t308.5 -100.5t344 -35zM2882 1013q-44 -267 -161.5 -480t-290.5 -350l282 -375
h-208l-212 282q-211 -118 -457 -118q-196 0 -349.5 75t-248 214t-129.5 335.5t6 438.5q40 235 137.5 430t235 329t312 208t365.5 74q194 0 347 -75t247.5 -214t130 -335t-6.5 -439zM1876 640h208l240 -317q144 116 243 297.5t136 414.5q34 205 9 366t-98.5 272t-190 169
t-265.5 58q-154 0 -295.5 -61t-256.5 -173t-197.5 -280t-116.5 -373t-9 -366t98.5 -272t190.5 -169t267 -58q184 0 347 84z" />
    <glyph glyph-name="uni24C7" unicode="R&#x20dd;" horiz-adv-x="3912" 
d="M1691 -900q-176 0 -342.5 31t-312.5 90t-278 143.5t-238.5 191t-194.5 233.5t-146 270t-93 301.5t-36 327.5t26 348q43 260 153 508t268 458t363.5 386t436 299.5t490 192t519.5 68.5q176 0 342.5 -31t312.5 -90t278 -143.5t238.5 -191t194.5 -233.5t146.5 -270
t93.5 -301.5t35.5 -327.5t-26.5 -348q-43 -260 -153 -508t-268 -458t-363.5 -386t-436 -299.5t-490 -192t-519.5 -68.5zM1691 -724q239 0 478 63.5t451.5 177.5t402.5 277.5t336 357t247.5 422t140.5 467.5q32 180 23.5 350.5t-46 326t-110 294t-168 255.5t-220.5 210.5
t-267.5 159t-308.5 100.5t-344 35q-239 0 -478 -63.5t-451 -177.5t-402.5 -277.5t-336 -357t-247 -422t-141.5 -467.5q-32 -180 -23 -350.5t46 -326t110 -294t168 -255.5t220 -210.5t267.5 -159t308.5 -100.5t344 -35zM1226 0l340 2048h661q160 0 278.5 -45t186.5 -126.5
t92 -193.5t2 -248q-35 -207 -159.5 -356t-323.5 -211l330 -868h-214l-310 831q-41 -3 -82 -3h-477l-137 -828h-187zM1579 999h472q236 0 376.5 115.5t174.5 320.5q34 208 -68.5 326.5t-339.5 118.5h-469z" />
    <glyph glyph-name="uni24C8" unicode="S&#x20dd;" horiz-adv-x="3912" 
d="M1691 -900q-176 0 -342.5 31t-312.5 90t-278 143.5t-238.5 191t-194.5 233.5t-146 270t-93 301.5t-36 327.5t26 348q43 260 153 508t268 458t363.5 386t436 299.5t490 192t519.5 68.5q176 0 342.5 -31t312.5 -90t278 -143.5t238.5 -191t194.5 -233.5t146.5 -270
t93.5 -301.5t35.5 -327.5t-26.5 -348q-43 -260 -153 -508t-268 -458t-363.5 -386t-436 -299.5t-490 -192t-519.5 -68.5zM1691 -724q239 0 478 63.5t451.5 177.5t402.5 277.5t336 357t247.5 422t140.5 467.5q32 180 23.5 350.5t-46 326t-110 294t-168 255.5t-220.5 210.5
t-267.5 159t-308.5 100.5t-344 35q-239 0 -478 -63.5t-451 -177.5t-402.5 -277.5t-336 -357t-247 -422t-141.5 -467.5q-32 -180 -23 -350.5t46 -326t110 -294t168 -255.5t220 -210.5t267.5 -159t308.5 -100.5t344 -35zM2594 1525q7 180 -106.5 282t-317.5 102
q-213 0 -366 -107.5t-180 -273.5q-10 -62 5 -116t46.5 -92.5t81.5 -71t100.5 -54t112.5 -39.5l207 -62q83 -25 149.5 -52.5t135.5 -74.5t112 -103t63 -138.5t4 -180.5q-21 -125 -87 -231t-167.5 -183t-243.5 -121t-307 -44q-309 0 -474 150.5t-141 396.5h192
q-15 -177 111 -276.5t340 -99.5q232 0 399 114t197 297q13 76 -7 136.5t-72.5 105t-120.5 76.5t-166 62l-234 72q-481 148 -420 521q28 163 137.5 291t272.5 197t352 69q284 0 442 -154t132 -398h-182z" />
    <glyph glyph-name="uni24C9" unicode="T&#x20dd;" horiz-adv-x="3912" 
d="M1691 -900q-176 0 -342.5 31t-312.5 90t-278 143.5t-238.5 191t-194.5 233.5t-146 270t-93 301.5t-36 327.5t26 348q43 260 153 508t268 458t363.5 386t436 299.5t490 192t519.5 68.5q176 0 342.5 -31t312.5 -90t278 -143.5t238.5 -191t194.5 -233.5t146.5 -270
t93.5 -301.5t35.5 -327.5t-26.5 -348q-43 -260 -153 -508t-268 -458t-363.5 -386t-436 -299.5t-490 -192t-519.5 -68.5zM1691 -724q239 0 478 63.5t451.5 177.5t402.5 277.5t336 357t247.5 422t140.5 467.5q32 180 23.5 350.5t-46 326t-110 294t-168 255.5t-220.5 210.5
t-267.5 159t-308.5 100.5t-344 35q-239 0 -478 -63.5t-451 -177.5t-402.5 -277.5t-336 -357t-247 -422t-141.5 -467.5q-32 -180 -23 -350.5t46 -326t110 -294t168 -255.5t220 -210.5t267.5 -159t308.5 -100.5t344 -35zM1392 1880l28 168h1485l-28 -168h-649l-312 -1880h-187
l312 1880h-649z" />
    <glyph glyph-name="uni24CA" unicode="U&#x20dd;" horiz-adv-x="3912" 
d="M1691 -900q-176 0 -342.5 31t-312.5 90t-278 143.5t-238.5 191t-194.5 233.5t-146 270t-93 301.5t-36 327.5t26 348q43 260 153 508t268 458t363.5 386t436 299.5t490 192t519.5 68.5q176 0 342.5 -31t312.5 -90t278 -143.5t238.5 -191t194.5 -233.5t146.5 -270
t93.5 -301.5t35.5 -327.5t-26.5 -348q-43 -260 -153 -508t-268 -458t-363.5 -386t-436 -299.5t-490 -192t-519.5 -68.5zM1691 -724q239 0 478 63.5t451.5 177.5t402.5 277.5t336 357t247.5 422t140.5 467.5q32 180 23.5 350.5t-46 326t-110 294t-168 255.5t-220.5 210.5
t-267.5 159t-308.5 100.5t-344 35q-239 0 -478 -63.5t-451 -177.5t-402.5 -277.5t-336 -357t-247 -422t-141.5 -467.5q-32 -180 -23 -350.5t46 -326t110 -294t168 -255.5t220 -210.5t267.5 -159t308.5 -100.5t344 -35zM2738 2048h187l-224 -1356q-35 -208 -159 -373
t-317.5 -259.5t-420.5 -94.5t-388.5 94.5t-231 260t-35.5 372.5l224 1356h187l-223 -1343q-26 -162 24 -290t172 -201t297 -73q265 0 455.5 158.5t230.5 405.5z" />
    <glyph glyph-name="uni24CB" unicode="V&#x20dd;" horiz-adv-x="3912" 
d="M1691 -900q-176 0 -342.5 31t-312.5 90t-278 143.5t-238.5 191t-194.5 233.5t-146 270t-93 301.5t-36 327.5t26 348q43 260 153 508t268 458t363.5 386t436 299.5t490 192t519.5 68.5q176 0 342.5 -31t312.5 -90t278 -143.5t238.5 -191t194.5 -233.5t146.5 -270
t93.5 -301.5t35.5 -327.5t-26.5 -348q-43 -260 -153 -508t-268 -458t-363.5 -386t-436 -299.5t-490 -192t-519.5 -68.5zM1691 -724q239 0 478 63.5t451.5 177.5t402.5 277.5t336 357t247.5 422t140.5 467.5q32 180 23.5 350.5t-46 326t-110 294t-168 255.5t-220.5 210.5
t-267.5 159t-308.5 100.5t-344 35q-239 0 -478 -63.5t-451 -177.5t-402.5 -277.5t-336 -357t-247 -422t-141.5 -467.5q-32 -180 -23 -350.5t46 -326t110 -294t168 -255.5t220 -210.5t267.5 -159t308.5 -100.5t344 -35zM1518 2048l341 -1805h19l938 1805h196l-1085 -2048
h-200l-405 2048h196z" />
    <glyph glyph-name="uni24CC" unicode="W&#x20dd;" horiz-adv-x="3912" 
d="M1691 -900q-176 0 -342.5 31t-312.5 90t-278 143.5t-238.5 191t-194.5 233.5t-146 270t-93 301.5t-36 327.5t26 348q43 260 153 508t268 458t363.5 386t436 299.5t490 192t519.5 68.5q176 0 342.5 -31t312.5 -90t278 -143.5t238.5 -191t194.5 -233.5t146.5 -270
t93.5 -301.5t35.5 -327.5t-26.5 -348q-43 -260 -153 -508t-268 -458t-363.5 -386t-436 -299.5t-490 -192t-519.5 -68.5zM1691 -724q239 0 478 63.5t451.5 177.5t402.5 277.5t336 357t247.5 422t140.5 467.5q32 180 23.5 350.5t-46 326t-110 294t-168 255.5t-220.5 210.5
t-267.5 159t-308.5 100.5t-344 35q-239 0 -478 -63.5t-451 -177.5t-402.5 -277.5t-336 -357t-247 -422t-141.5 -467.5q-32 -180 -23 -350.5t46 -326t110 -294t168 -255.5t220 -210.5t267.5 -159t308.5 -100.5t344 -35zM1145 0l-221 2048h190l171 -1761h16l757 1761h216
l172 -1761h16l756 1761h192l-901 -2048h-201l-186 1737h-13l-764 -1737h-200z" />
    <glyph glyph-name="uni24CD" unicode="X&#x20dd;" horiz-adv-x="3912" 
d="M1691 -900q-176 0 -342.5 31t-312.5 90t-278 143.5t-238.5 191t-194.5 233.5t-146 270t-93 301.5t-36 327.5t26 348q43 260 153 508t268 458t363.5 386t436 299.5t490 192t519.5 68.5q176 0 342.5 -31t312.5 -90t278 -143.5t238.5 -191t194.5 -233.5t146.5 -270
t93.5 -301.5t35.5 -327.5t-26.5 -348q-43 -260 -153 -508t-268 -458t-363.5 -386t-436 -299.5t-490 -192t-519.5 -68.5zM1691 -724q239 0 478 63.5t451.5 177.5t402.5 277.5t336 357t247.5 422t140.5 467.5q32 180 23.5 350.5t-46 326t-110 294t-168 255.5t-220.5 210.5
t-267.5 159t-308.5 100.5t-344 35q-239 0 -478 -63.5t-451 -177.5t-402.5 -277.5t-336 -357t-247 -422t-141.5 -467.5q-32 -180 -23 -350.5t46 -326t110 -294t168 -255.5t220 -210.5t267.5 -159t308.5 -100.5t344 -35zM1594 2048l420 -889h13l713 889h223l-827 -1024
l487 -1024h-219l-420 879h-13l-713 -879h-224l841 1024l-501 1024h220z" />
    <glyph glyph-name="uni24CE" unicode="Y&#x20dd;" horiz-adv-x="3912" 
d="M1691 -900q-176 0 -342.5 31t-312.5 90t-278 143.5t-238.5 191t-194.5 233.5t-146 270t-93 301.5t-36 327.5t26 348q43 260 153 508t268 458t363.5 386t436 299.5t490 192t519.5 68.5q176 0 342.5 -31t312.5 -90t278 -143.5t238.5 -191t194.5 -233.5t146.5 -270
t93.5 -301.5t35.5 -327.5t-26.5 -348q-43 -260 -153 -508t-268 -458t-363.5 -386t-436 -299.5t-490 -192t-519.5 -68.5zM1691 -724q239 0 478 63.5t451.5 177.5t402.5 277.5t336 357t247.5 422t140.5 467.5q32 180 23.5 350.5t-46 326t-110 294t-168 255.5t-220.5 210.5
t-267.5 159t-308.5 100.5t-344 35q-239 0 -478 -63.5t-451 -177.5t-402.5 -277.5t-336 -357t-247 -422t-141.5 -467.5q-32 -180 -23 -350.5t46 -326t110 -294t168 -255.5t220 -210.5t267.5 -159t308.5 -100.5t344 -35zM1339 2048h213l447 -972h20l767 972h217l-932 -1161
l-147 -887h-186l146 887z" />
    <glyph glyph-name="uni24CF" unicode="Z&#x20dd;" horiz-adv-x="3912" 
d="M1691 -900q-176 0 -342.5 31t-312.5 90t-278 143.5t-238.5 191t-194.5 233.5t-146 270t-93 301.5t-36 327.5t26 348q43 260 153 508t268 458t363.5 386t436 299.5t490 192t519.5 68.5q176 0 342.5 -31t312.5 -90t278 -143.5t238.5 -191t194.5 -233.5t146.5 -270
t93.5 -301.5t35.5 -327.5t-26.5 -348q-43 -260 -153 -508t-268 -458t-363.5 -386t-436 -299.5t-490 -192t-519.5 -68.5zM1691 -724q239 0 478 63.5t451.5 177.5t402.5 277.5t336 357t247.5 422t140.5 467.5q32 180 23.5 350.5t-46 326t-110 294t-168 255.5t-220.5 210.5
t-267.5 159t-308.5 100.5t-344 35q-239 0 -478 -63.5t-451 -177.5t-402.5 -277.5t-336 -357t-247 -422t-141.5 -467.5q-32 -180 -23 -350.5t46 -326t110 -294t168 -255.5t220 -210.5t267.5 -159t308.5 -100.5t344 -35zM1148 0l25 141l1423 1739h-1140l26 168h1366l-22 -141
l-1426 -1739h1146l-28 -168h-1370z" />
    <glyph glyph-name="uni24EA" unicode="&#x30;&#x20dd;" horiz-adv-x="3912" 
d="M1691 -900q-176 0 -342.5 31t-312.5 90t-278 143.5t-238.5 191t-194.5 233.5t-146 270t-93 301.5t-36 327.5t26 348q43 260 153 508t268 458t363.5 386t436 299.5t490 192t519.5 68.5q176 0 342.5 -31t312.5 -90t278 -143.5t238.5 -191t194.5 -233.5t146.5 -270
t93.5 -301.5t35.5 -327.5t-26.5 -348q-43 -260 -153 -508t-268 -458t-363.5 -386t-436 -299.5t-490 -192t-519.5 -68.5zM1691 -724q239 0 478 63.5t451.5 177.5t402.5 277.5t336 357t247.5 422t140.5 467.5q32 180 23.5 350.5t-46 326t-110 294t-168 255.5t-220.5 210.5
t-267.5 159t-308.5 100.5t-344 35q-239 0 -478 -63.5t-451 -177.5t-402.5 -277.5t-336 -357t-247 -422t-141.5 -467.5q-32 -180 -23 -350.5t46 -326t110 -294t168 -255.5t220 -210.5t267.5 -159t308.5 -100.5t344 -35zM1822 -28q-215 0 -348 125t-172.5 359t12.5 568
q81 494 307.5 773t548.5 279q321 0 457.5 -279.5t54.5 -772.5q-83 -497 -310 -774.5t-550 -277.5zM1847 140q238 0 411 231.5t242 652.5q69 416 -24.5 651.5t-329.5 235.5t-409 -233t-242 -654q-69 -418 23 -651t329 -233z" />
    <glyph glyph-name="uni27F5" unicode="&#x3c;&#x2014;&#x2014;" horiz-adv-x="3776" 
d="M1046 0l-748 896l1046 896l109 -125l-804 -687h2809l-29 -168h-2844l588 -706z" />
    <glyph glyph-name="uni27F6" unicode="&#x2d;&#x2014;&#x3e;" horiz-adv-x="3776" 
d="M2474 0l-109 125l804 687h-2809l29 168h2844l-588 706l127 106l748 -896z" />
    <glyph glyph-name="uni27F7" unicode="&#x3c;&#x27f6;" horiz-adv-x="4928" 
d="M1046 0l-748 896l1046 896l109 -125l-804 -687h3736l-588 706l127 106l748 -896l-1046 -896l-109 125l804 687h-3736l588 -706z" />
    <glyph glyph-name="uni27F8" unicode="&#x3c;&#x3d;&#x3d;" horiz-adv-x="3776" 
d="M1046 0l-748 896l1046 896l109 -125l-541 -462h2582l-27 -168h-2752l-186 -159l103 -123h2788l-28 -168h-2620l401 -481z" />
    <glyph glyph-name="uni27F9" unicode="&#x3d;&#x3d;&#x3e;" horiz-adv-x="3776" 
d="M2474 0l-107 127l539 460h-2584l28 168h2753l186 159l-103 123h-2789l27 168h2622l-401 481l127 106l748 -896z" />
    <glyph glyph-name="uni27FA" unicode="&#x3c;&#x3d;&#x3d;&#x3e;" horiz-adv-x="4928" 
d="M3626 0l-107 127l539 460h-3286l401 -481l-127 -106l-748 896l1046 896l109 -125l-541 -462h3286l-401 481l127 106l748 -896zM632 755h3623l186 159l-103 123h-3623l-186 -159z" />
    <glyph glyph-name="uni2A38" unicode="&#xf7;&#x20dd;" horiz-adv-x="3912" 
d="M1691 -900q-176 0 -342.5 31t-312.5 90t-278 143.5t-238.5 191t-194.5 233.5t-146 270t-93 301.5t-36 327.5t26 348q43 260 153 508t268 458t363.5 386t436 299.5t490 192t519.5 68.5q176 0 342.5 -31t312.5 -90t278 -143.5t238.5 -191t194.5 -233.5t146.5 -270
t93.5 -301.5t35.5 -327.5t-26.5 -348q-43 -260 -153 -508t-268 -458t-363.5 -386t-436 -299.5t-490 -192t-519.5 -68.5zM1691 -724q239 0 478 63.5t451.5 177.5t402.5 277.5t336 357t247.5 422t140.5 467.5q32 180 23.5 350.5t-46 326t-110 294t-168 255.5t-220.5 210.5
t-267.5 159t-308.5 100.5t-344 35q-239 0 -478 -63.5t-451 -177.5t-402.5 -277.5t-336 -357t-247 -422t-141.5 -467.5q-32 -180 -23 -350.5t46 -326t110 -294t168 -255.5t220 -210.5t267.5 -159t308.5 -100.5t344 -35zM2632 1109l-28 -170h-1240l28 170h1240zM2070 1379
q-64 0 -103.5 45.5t-30.5 108.5q8 54 53 92.5t102 38.5q60 0 98.5 -45t29.5 -107q-8 -56 -51.5 -94.5t-97.5 -38.5zM1904 384q-63 0 -100.5 45t-29.5 110q6 54 50 92t102 38q60 0 97.5 -44.5t30.5 -107.5q-6 -55 -50.5 -94t-99.5 -39z" />
    <glyph glyph-name="uniE12B" unicode="&#x20dd;&#xe06b;" horiz-adv-x="3912" 
d="M1691 -900q-176 0 -342.5 31t-312.5 90t-278 143.5t-238.5 191t-194.5 233.5t-146 270t-93 301.5t-36 327.5t26 348q43 260 153 508t268 458t363.5 386t436 299.5t490 192t519.5 68.5q176 0 342.5 -31t312.5 -90t278 -143.5t238.5 -191t194.5 -233.5t146.5 -270
t93.5 -301.5t35.5 -327.5t-26.5 -348q-43 -260 -153 -508t-268 -458t-363.5 -386t-436 -299.5t-490 -192t-519.5 -68.5zM1691 -724q239 0 478 63.5t451.5 177.5t402.5 277.5t336 357t247.5 422t140.5 467.5q32 180 23.5 350.5t-46 326t-110 294t-168 255.5t-220.5 210.5
t-267.5 159t-308.5 100.5t-344 35q-239 0 -478 -63.5t-451 -177.5t-402.5 -277.5t-336 -357t-247 -422t-141.5 -467.5q-32 -180 -23 -350.5t46 -326t110 -294t168 -255.5t220 -210.5t267.5 -159t308.5 -100.5t344 -35zM1822 -29q-215 0 -348 125t-172.5 359t12.5 568
q81 494 307.5 773t548.5 279q321 0 457.5 -279.5t54.5 -772.5q-83 -497 -310 -774.5t-550 -277.5zM1847 139q238 0 411 231.5t242 652.5q68 410 -21 643l-913 -1385q98 -142 281 -142zM1503 415l907 1375q-98 120 -264 120q-236 0 -409 -233t-242 -654q-63 -379 8 -608z" />
    <glyph glyph-name="uniE12C" unicode="&#x20dd;&#xe06c;" horiz-adv-x="3912" 
d="M1691 -900q-176 0 -342.5 31t-312.5 90t-278 143.5t-238.5 191t-194.5 233.5t-146 270t-93 301.5t-36 327.5t26 348q43 260 153 508t268 458t363.5 386t436 299.5t490 192t519.5 68.5q176 0 342.5 -31t312.5 -90t278 -143.5t238.5 -191t194.5 -233.5t146.5 -270
t93.5 -301.5t35.5 -327.5t-26.5 -348q-43 -260 -153 -508t-268 -458t-363.5 -386t-436 -299.5t-490 -192t-519.5 -68.5zM1691 -724q239 0 478 63.5t451.5 177.5t402.5 277.5t336 357t247.5 422t140.5 467.5q32 180 23.5 350.5t-46 326t-110 294t-168 255.5t-220.5 210.5
t-267.5 159t-308.5 100.5t-344 35q-239 0 -478 -63.5t-451 -177.5t-402.5 -277.5t-336 -357t-247 -422t-141.5 -467.5q-32 -180 -23 -350.5t46 -326t110 -294t168 -255.5t220 -210.5t267.5 -159t308.5 -100.5t344 -35zM2342 2048l-340 -2048h-186l292 1760h-16
q-16 -22 -56 -50.5t-98.5 -58.5t-140 -50.5t-164.5 -21.5l25 160q85 1 166 30.5t142 74.5t103.5 85t74.5 79l33 40h165z" />
    <glyph glyph-name="uniE12D" unicode="&#x20dd;&#xe06d;" horiz-adv-x="3912" 
d="M1691 -900q-176 0 -342.5 31t-312.5 90t-278 143.5t-238.5 191t-194.5 233.5t-146 270t-93 301.5t-36 327.5t26 348q43 260 153 508t268 458t363.5 386t436 299.5t490 192t519.5 68.5q176 0 342.5 -31t312.5 -90t278 -143.5t238.5 -191t194.5 -233.5t146.5 -270
t93.5 -301.5t35.5 -327.5t-26.5 -348q-43 -260 -153 -508t-268 -458t-363.5 -386t-436 -299.5t-490 -192t-519.5 -68.5zM1691 -724q239 0 478 63.5t451.5 177.5t402.5 277.5t336 357t247.5 422t140.5 467.5q32 180 23.5 350.5t-46 326t-110 294t-168 255.5t-220.5 210.5
t-267.5 159t-308.5 100.5t-344 35q-239 0 -478 -63.5t-451 -177.5t-402.5 -277.5t-336 -357t-247 -422t-141.5 -467.5q-32 -180 -23 -350.5t46 -326t110 -294t168 -255.5t220 -210.5t267.5 -159t308.5 -100.5t344 -35zM1241 512h190q-17 -171 98 -271.5t314 -100.5
q215 0 371.5 118.5t188.5 314.5q16 97 -5 178.5t-80 145t-169 99.5t-262 36h-111l28 155l667 680v13h-907l28 168h1168l-21 -137l-707 -718l-1 -13q284 -13 441 -181t115 -426q-43 -258 -258 -429.5t-512 -171.5q-133 0 -245.5 38.5t-190.5 107t-116 171t-24 223.5z" />
    <glyph glyph-name="uniE12E" unicode="&#x20dd;&#xe06e;" horiz-adv-x="3912" 
d="M1691 -900q-176 0 -342.5 31t-312.5 90t-278 143.5t-238.5 191t-194.5 233.5t-146 270t-93 301.5t-36 327.5t26 348q43 260 153 508t268 458t363.5 386t436 299.5t490 192t519.5 68.5q176 0 342.5 -31t312.5 -90t278 -143.5t238.5 -191t194.5 -233.5t146.5 -270
t93.5 -301.5t35.5 -327.5t-26.5 -348q-43 -260 -153 -508t-268 -458t-363.5 -386t-436 -299.5t-490 -192t-519.5 -68.5zM1691 -724q239 0 478 63.5t451.5 177.5t402.5 277.5t336 357t247.5 422t140.5 467.5q32 180 23.5 350.5t-46 326t-110 294t-168 255.5t-220.5 210.5
t-267.5 159t-308.5 100.5t-344 35q-239 0 -478 -63.5t-451 -177.5t-402.5 -277.5t-336 -357t-247 -422t-141.5 -467.5q-32 -180 -23 -350.5t46 -326t110 -294t168 -255.5t220 -210.5t267.5 -159t308.5 -100.5t344 -35zM1134 440l24 152l1100 1456h188l-1077 -1427v-13h748
l111 672h178l-111 -672h274l-28 -168h-274l-73 -440h-178l73 440h-955z" />
    <glyph glyph-name="uniE12F" unicode="&#x20dd;&#xe06f;" horiz-adv-x="3912" 
d="M1691 -900q-176 0 -342.5 31t-312.5 90t-278 143.5t-238.5 191t-194.5 233.5t-146 270t-93 301.5t-36 327.5t26 348q43 260 153 508t268 458t363.5 386t436 299.5t490 192t519.5 68.5q176 0 342.5 -31t312.5 -90t278 -143.5t238.5 -191t194.5 -233.5t146.5 -270
t93.5 -301.5t35.5 -327.5t-26.5 -348q-43 -260 -153 -508t-268 -458t-363.5 -386t-436 -299.5t-490 -192t-519.5 -68.5zM1691 -724q239 0 478 63.5t451.5 177.5t402.5 277.5t336 357t247.5 422t140.5 467.5q32 180 23.5 350.5t-46 326t-110 294t-168 255.5t-220.5 210.5
t-267.5 159t-308.5 100.5t-344 35q-239 0 -478 -63.5t-451 -177.5t-402.5 -277.5t-336 -357t-247 -422t-141.5 -467.5q-32 -180 -23 -350.5t46 -326t110 -294t168 -255.5t220 -210.5t267.5 -159t308.5 -100.5t344 -35zM1312 636q23 141 101 282.5t241 333.5l674 796h210
l-695 -816q101 44 200 44q176 0 305.5 -85.5t186.5 -235t28 -332.5q-30 -183 -136 -332t-264 -234t-335 -85t-306 86.5t-185 238.5t-25 339zM1488 625q-34 -209 69 -348.5t295 -139.5t344 139.5t188 346.5q35 210 -68.5 347.5t-296.5 137.5t-344.5 -137t-186.5 -346z" />
    <glyph glyph-name="uniE130" unicode="&#x20dd;&#xe070;" horiz-adv-x="3912" 
d="M1691 -900q-176 0 -342.5 31t-312.5 90t-278 143.5t-238.5 191t-194.5 233.5t-146 270t-93 301.5t-36 327.5t26 348q43 260 153 508t268 458t363.5 386t436 299.5t490 192t519.5 68.5q176 0 342.5 -31t312.5 -90t278 -143.5t238.5 -191t194.5 -233.5t146.5 -270
t93.5 -301.5t35.5 -327.5t-26.5 -348q-43 -260 -153 -508t-268 -458t-363.5 -386t-436 -299.5t-490 -192t-519.5 -68.5zM1691 -724q239 0 478 63.5t451.5 177.5t402.5 277.5t336 357t247.5 422t140.5 467.5q32 180 23.5 350.5t-46 326t-110 294t-168 255.5t-220.5 210.5
t-267.5 159t-308.5 100.5t-344 35q-239 0 -478 -63.5t-451 -177.5t-402.5 -277.5t-336 -357t-247 -422t-141.5 -467.5q-32 -180 -23 -350.5t46 -326t110 -294t168 -255.5t220 -210.5t267.5 -159t308.5 -100.5t344 -35zM1449 1425q30 183 136.5 332t264.5 234t334 85
q177 0 306 -86.5t184.5 -238.5t25.5 -339q-22 -139 -100 -281t-241 -335l-675 -796h-209l694 816q-101 -44 -200 -44q-176 0 -305.5 85.5t-187 235t-27.5 332.5zM1628 1425q-35 -210 68.5 -347.5t296.5 -137.5t344 137t187 346q34 209 -69 348.5t-295 139.5
q-126 0 -240 -63.5t-191.5 -175t-100.5 -247.5z" />
    <glyph glyph-name="uniE131" unicode="&#x21;&#x20dd;" horiz-adv-x="3912" 
d="M1691 -900q-176 0 -342.5 31t-312.5 90t-278 143.5t-238.5 191t-194.5 233.5t-146 270t-93 301.5t-36 327.5t26 348q43 260 153 508t268 458t363.5 386t436 299.5t490 192t519.5 68.5q176 0 342.5 -31t312.5 -90t278 -143.5t238.5 -191t194.5 -233.5t146.5 -270
t93.5 -301.5t35.5 -327.5t-26.5 -348q-43 -260 -153 -508t-268 -458t-363.5 -386t-436 -299.5t-490 -192t-519.5 -68.5zM1691 -724q239 0 478 63.5t451.5 177.5t402.5 277.5t336 357t247.5 422t140.5 467.5q32 180 23.5 350.5t-46 326t-110 294t-168 255.5t-220.5 210.5
t-267.5 159t-308.5 100.5t-344 35q-239 0 -478 -63.5t-451 -177.5t-402.5 -277.5t-336 -357t-247 -422t-141.5 -467.5q-32 -180 -23 -350.5t46 -326t110 -294t168 -255.5t220 -210.5t267.5 -159t308.5 -100.5t344 -35zM2279 2048l-256 -1461h-176l230 1461h202zM1858 -15
q-60 0 -100.5 42t-40.5 102q0 59 43.5 100.5t103.5 41.5q59 0 101 -42t40 -100q-2 -60 -45 -102t-102 -42z" />
    <glyph glyph-name="uniE132" unicode="&#x3f;&#x20dd;" horiz-adv-x="3912" 
d="M1691 -900q-176 0 -342.5 31t-312.5 90t-278 143.5t-238.5 191t-194.5 233.5t-146 270t-93 301.5t-36 327.5t26 348q43 260 153 508t268 458t363.5 386t436 299.5t490 192t519.5 68.5q176 0 342.5 -31t312.5 -90t278 -143.5t238.5 -191t194.5 -233.5t146.5 -270
t93.5 -301.5t35.5 -327.5t-26.5 -348q-43 -260 -153 -508t-268 -458t-363.5 -386t-436 -299.5t-490 -192t-519.5 -68.5zM1691 -724q239 0 478 63.5t451.5 177.5t402.5 277.5t336 357t247.5 422t140.5 467.5q32 180 23.5 350.5t-46 326t-110 294t-168 255.5t-220.5 210.5
t-267.5 159t-308.5 100.5t-344 35q-239 0 -478 -63.5t-451 -177.5t-402.5 -277.5t-336 -357t-247 -422t-141.5 -467.5q-32 -180 -23 -350.5t46 -326t110 -294t168 -255.5t220 -210.5t267.5 -159t308.5 -100.5t344 -35zM1814 587l10 62q20 115 52.5 199t84 147.5t108.5 108
t145 95.5q130 77 201 159t88 199q24 161 -64.5 260t-248.5 99q-103 0 -196.5 -43.5t-164 -131.5t-94.5 -205h-189q32 162 129.5 285.5t237 189t298.5 65.5q164 0 280.5 -69t166.5 -189t26 -269q-25 -157 -112 -264.5t-252 -203.5q-150 -88 -218 -180t-96 -252l-11 -62h-181z
M1832 -15q-60 0 -100.5 42t-40.5 102q0 59 43.5 100.5t103.5 41.5q59 0 101 -42t40 -100q-2 -60 -45 -102t-102 -42z" />
    <glyph glyph-name="uniE133" unicode="&#x23;&#x20dd;" horiz-adv-x="3912" 
d="M1691 -900q-176 0 -342.5 31t-312.5 90t-278 143.5t-238.5 191t-194.5 233.5t-146 270t-93 301.5t-36 327.5t26 348q43 260 153 508t268 458t363.5 386t436 299.5t490 192t519.5 68.5q176 0 342.5 -31t312.5 -90t278 -143.5t238.5 -191t194.5 -233.5t146.5 -270
t93.5 -301.5t35.5 -327.5t-26.5 -348q-43 -260 -153 -508t-268 -458t-363.5 -386t-436 -299.5t-490 -192t-519.5 -68.5zM1691 -724q239 0 478 63.5t451.5 177.5t402.5 277.5t336 357t247.5 422t140.5 467.5q32 180 23.5 350.5t-46 326t-110 294t-168 255.5t-220.5 210.5
t-267.5 159t-308.5 100.5t-344 35q-239 0 -478 -63.5t-451 -177.5t-402.5 -277.5t-336 -357t-247 -422t-141.5 -467.5q-32 -180 -23 -350.5t46 -326t110 -294t168 -255.5t220 -210.5t267.5 -159t308.5 -100.5t344 -35zM2095 0l107 591h-565l-107 -591h-155l107 591h-327
l28 154h327l102 558h-326l28 154h326l107 591h155l-107 -591h565l107 591h155l-107 -591h327l-28 -154h-327l-102 -558h326l-28 -154h-326l-107 -591h-155zM1665 745h565l102 558h-565z" />
    <glyph glyph-name="uniE134" unicode="&#x2d;&#x20dd;" horiz-adv-x="3912" 
d="M1691 -900q-176 0 -342.5 31t-312.5 90t-278 143.5t-238.5 191t-194.5 233.5t-146 270t-93 301.5t-36 327.5t26 348q43 260 153 508t268 458t363.5 386t436 299.5t490 192t519.5 68.5q176 0 342.5 -31t312.5 -90t278 -143.5t238.5 -191t194.5 -233.5t146.5 -270
t93.5 -301.5t35.5 -327.5t-26.5 -348q-43 -260 -153 -508t-268 -458t-363.5 -386t-436 -299.5t-490 -192t-519.5 -68.5zM1691 -724q239 0 478 63.5t451.5 177.5t402.5 277.5t336 357t247.5 422t140.5 467.5q32 180 23.5 350.5t-46 326t-110 294t-168 255.5t-220.5 210.5
t-267.5 159t-308.5 100.5t-344 35q-239 0 -478 -63.5t-451 -177.5t-402.5 -277.5t-336 -357t-247 -422t-141.5 -467.5q-32 -180 -23 -350.5t46 -326t110 -294t168 -255.5t220 -210.5t267.5 -159t308.5 -100.5t344 -35zM2438 1108l-28 -168h-852l28 168h852z" />
    <glyph glyph-name="uniE135" unicode="&#x3c;&#x20dd;" horiz-adv-x="3912" 
d="M1691 -900q-176 0 -342.5 31t-312.5 90t-278 143.5t-238.5 191t-194.5 233.5t-146 270t-93 301.5t-36 327.5t26 348q43 260 153 508t268 458t363.5 386t436 299.5t490 192t519.5 68.5q176 0 342.5 -31t312.5 -90t278 -143.5t238.5 -191t194.5 -233.5t146.5 -270
t93.5 -301.5t35.5 -327.5t-26.5 -348q-43 -260 -153 -508t-268 -458t-363.5 -386t-436 -299.5t-490 -192t-519.5 -68.5zM1691 -724q239 0 478 63.5t451.5 177.5t402.5 277.5t336 357t247.5 422t140.5 467.5q32 180 23.5 350.5t-46 326t-110 294t-168 255.5t-220.5 210.5
t-267.5 159t-308.5 100.5t-344 35q-239 0 -478 -63.5t-451 -177.5t-402.5 -277.5t-336 -357t-247 -422t-141.5 -467.5q-32 -180 -23 -350.5t46 -326t110 -294t168 -255.5t220 -210.5t267.5 -159t308.5 -100.5t344 -35zM1279 939l22 128l1335 675l-31 -196l-1085 -538l-2 -12
l907 -536l-33 -196z" />
    <glyph glyph-name="uniE136" unicode="&#x3e;&#x20dd;" horiz-adv-x="3912" 
d="M1691 -900q-176 0 -342.5 31t-312.5 90t-278 143.5t-238.5 191t-194.5 233.5t-146 270t-93 301.5t-36 327.5t26 348q43 260 153 508t268 458t363.5 386t436 299.5t490 192t519.5 68.5q176 0 342.5 -31t312.5 -90t278 -143.5t238.5 -191t194.5 -233.5t146.5 -270
t93.5 -301.5t35.5 -327.5t-26.5 -348q-43 -260 -153 -508t-268 -458t-363.5 -386t-436 -299.5t-490 -192t-519.5 -68.5zM1691 -724q239 0 478 63.5t451.5 177.5t402.5 277.5t336 357t247.5 422t140.5 467.5q32 180 23.5 350.5t-46 326t-110 294t-168 255.5t-220.5 210.5
t-267.5 159t-308.5 100.5t-344 35q-239 0 -478 -63.5t-451 -177.5t-402.5 -277.5t-336 -357t-247 -422t-141.5 -467.5q-32 -180 -23 -350.5t46 -326t110 -294t168 -255.5t220 -210.5t267.5 -159t308.5 -100.5t344 -35zM2694 939l-1335 -675l34 196l1083 538l1 12l-904 536
l30 196l1114 -675z" />
    <glyph glyph-name="uniE137" unicode="&#x3d;&#x20dd;" horiz-adv-x="3912" 
d="M1691 -900q-176 0 -342.5 31t-312.5 90t-278 143.5t-238.5 191t-194.5 233.5t-146 270t-93 301.5t-36 327.5t26 348q43 260 153 508t268 458t363.5 386t436 299.5t490 192t519.5 68.5q176 0 342.5 -31t312.5 -90t278 -143.5t238.5 -191t194.5 -233.5t146.5 -270
t93.5 -301.5t35.5 -327.5t-26.5 -348q-43 -260 -153 -508t-268 -458t-363.5 -386t-436 -299.5t-490 -192t-519.5 -68.5zM1691 -724q239 0 478 63.5t451.5 177.5t402.5 277.5t336 357t247.5 422t140.5 467.5q32 180 23.5 350.5t-46 326t-110 294t-168 255.5t-220.5 210.5
t-267.5 159t-308.5 100.5t-344 35q-239 0 -478 -63.5t-451 -177.5t-402.5 -277.5t-336 -357t-247 -422t-141.5 -467.5q-32 -180 -23 -350.5t46 -326t110 -294t168 -255.5t220 -210.5t267.5 -159t308.5 -100.5t344 -35zM1368 655l28 165h1139l-28 -165h-1139zM1463 1228
l28 165h1138l-28 -165h-1138z" />
    <glyph glyph-name="uniE138" unicode="&#x20dd;&#x2191;" horiz-adv-x="3912" 
d="M1691 -900q-176 0 -342.5 31t-312.5 90t-278 143.5t-238.5 191t-194.5 233.5t-146 270t-93 301.5t-36 327.5t26 348q43 260 153 508t268 458t363.5 386t436 299.5t490 192t519.5 68.5q176 0 342.5 -31t312.5 -90t278 -143.5t238.5 -191t194.5 -233.5t146.5 -270
t93.5 -301.5t35.5 -327.5t-26.5 -348q-43 -260 -153 -508t-268 -458t-363.5 -386t-436 -299.5t-490 -192t-519.5 -68.5zM1691 -724q239 0 478 63.5t451.5 177.5t402.5 277.5t336 357t247.5 422t140.5 467.5q32 180 23.5 350.5t-46 326t-110 294t-168 255.5t-220.5 210.5
t-267.5 159t-308.5 100.5t-344 35q-239 0 -478 -63.5t-451 -177.5t-402.5 -277.5t-336 -357t-247 -422t-141.5 -467.5q-32 -180 -23 -350.5t46 -326t110 -294t168 -255.5t220 -210.5t267.5 -159t308.5 -100.5t344 -35zM1722 0l289 1742l-810 -696l-99 118l1046 896l748 -896
l-136 -118l-581 696l-289 -1742h-168z" />
    <glyph glyph-name="uniE139" unicode="&#x20dd;&#x2193;" horiz-adv-x="3912" 
d="M1691 -900q-176 0 -342.5 31t-312.5 90t-278 143.5t-238.5 191t-194.5 233.5t-146 270t-93 301.5t-36 327.5t26 348q43 260 153 508t268 458t363.5 386t436 299.5t490 192t519.5 68.5q176 0 342.5 -31t312.5 -90t278 -143.5t238.5 -191t194.5 -233.5t146.5 -270
t93.5 -301.5t35.5 -327.5t-26.5 -348q-43 -260 -153 -508t-268 -458t-363.5 -386t-436 -299.5t-490 -192t-519.5 -68.5zM1691 -724q239 0 478 63.5t451.5 177.5t402.5 277.5t336 357t247.5 422t140.5 467.5q32 180 23.5 350.5t-46 326t-110 294t-168 255.5t-220.5 210.5
t-267.5 159t-308.5 100.5t-344 35q-239 0 -478 -63.5t-451 -177.5t-402.5 -277.5t-336 -357t-247 -422t-141.5 -467.5q-32 -180 -23 -350.5t46 -326t110 -294t168 -255.5t220 -210.5t267.5 -159t308.5 -100.5t344 -35zM2276 2048l-289 -1742l810 696l99 -118l-1046 -896
l-748 896l136 118l581 -696l289 1742h168z" />
    <glyph glyph-name="uniE13A" unicode="&#x20dd;&#x2190;" horiz-adv-x="3912" 
d="M1691 -900q-176 0 -342.5 31t-312.5 90t-278 143.5t-238.5 191t-194.5 233.5t-146 270t-93 301.5t-36 327.5t26 348q43 260 153 508t268 458t363.5 386t436 299.5t490 192t519.5 68.5q176 0 342.5 -31t312.5 -90t278 -143.5t238.5 -191t194.5 -233.5t146.5 -270
t93.5 -301.5t35.5 -327.5t-26.5 -348q-43 -260 -153 -508t-268 -458t-363.5 -386t-436 -299.5t-490 -192t-519.5 -68.5zM1691 -724q239 0 478 63.5t451.5 177.5t402.5 277.5t336 357t247.5 422t140.5 467.5q32 180 23.5 350.5t-46 326t-110 294t-168 255.5t-220.5 210.5
t-267.5 159t-308.5 100.5t-344 35q-239 0 -478 -63.5t-451 -177.5t-402.5 -277.5t-336 -357t-247 -422t-141.5 -467.5q-32 -180 -23 -350.5t46 -326t110 -294t168 -255.5t220 -210.5t267.5 -159t308.5 -100.5t344 -35zM1710 128l-748 896l1046 896l109 -125l-804 -687h1721
l-29 -168h-1756l588 -706z" />
    <glyph glyph-name="uniE13B" unicode="&#x20dd;&#x2192;" horiz-adv-x="3912" 
d="M1691 -900q-176 0 -342.5 31t-312.5 90t-278 143.5t-238.5 191t-194.5 233.5t-146 270t-93 301.5t-36 327.5t26 348q43 260 153 508t268 458t363.5 386t436 299.5t490 192t519.5 68.5q176 0 342.5 -31t312.5 -90t278 -143.5t238.5 -191t194.5 -233.5t146.5 -270
t93.5 -301.5t35.5 -327.5t-26.5 -348q-43 -260 -153 -508t-268 -458t-363.5 -386t-436 -299.5t-490 -192t-519.5 -68.5zM1691 -724q239 0 478 63.5t451.5 177.5t402.5 277.5t336 357t247.5 422t140.5 467.5q32 180 23.5 350.5t-46 326t-110 294t-168 255.5t-220.5 210.5
t-267.5 159t-308.5 100.5t-344 35q-239 0 -478 -63.5t-451 -177.5t-402.5 -277.5t-336 -357t-247 -422t-141.5 -467.5q-32 -180 -23 -350.5t46 -326t110 -294t168 -255.5t220 -210.5t267.5 -159t308.5 -100.5t344 -35zM1988 128l-109 125l804 687h-1721l29 168h1756
l-588 706l127 106l748 -896z" />
    <glyph glyph-name="uniE13C" unicode="&#x20dd;&#x2713;" horiz-adv-x="3912" 
d="M1691 -900q-176 0 -342.5 31t-312.5 90t-278 143.5t-238.5 191t-194.5 233.5t-146 270t-93 301.5t-36 327.5t26 348q43 260 153 508t268 458t363.5 386t436 299.5t490 192t519.5 68.5q176 0 342.5 -31t312.5 -90t278 -143.5t238.5 -191t194.5 -233.5t146.5 -270
t93.5 -301.5t35.5 -327.5t-26.5 -348q-43 -260 -153 -508t-268 -458t-363.5 -386t-436 -299.5t-490 -192t-519.5 -68.5zM1691 -724q239 0 478 63.5t451.5 177.5t402.5 277.5t336 357t247.5 422t140.5 467.5q32 180 23.5 350.5t-46 326t-110 294t-168 255.5t-220.5 210.5
t-267.5 159t-308.5 100.5t-344 35q-239 0 -478 -63.5t-451 -177.5t-402.5 -277.5t-336 -357t-247 -422t-141.5 -467.5q-32 -180 -23 -350.5t46 -326t110 -294t168 -255.5t220 -210.5t267.5 -159t308.5 -100.5t344 -35zM1097 1015l128 110l449 -532l1296 1109l110 -128
l-1424 -1219z" />
    <glyph glyph-name="uniE13D" unicode="&#x20dd;&#x2717;" horiz-adv-x="3912" 
d="M1691 -900q-176 0 -342.5 31t-312.5 90t-278 143.5t-238.5 191t-194.5 233.5t-146 270t-93 301.5t-36 327.5t26 348q43 260 153 508t268 458t363.5 386t436 299.5t490 192t519.5 68.5q176 0 342.5 -31t312.5 -90t278 -143.5t238.5 -191t194.5 -233.5t146.5 -270
t93.5 -301.5t35.5 -327.5t-26.5 -348q-43 -260 -153 -508t-268 -458t-363.5 -386t-436 -299.5t-490 -192t-519.5 -68.5zM1691 -724q239 0 478 63.5t451.5 177.5t402.5 277.5t336 357t247.5 422t140.5 467.5q32 180 23.5 350.5t-46 326t-110 294t-168 255.5t-220.5 210.5
t-267.5 159t-308.5 100.5t-344 35q-239 0 -478 -63.5t-451 -177.5t-402.5 -277.5t-336 -357t-247 -422t-141.5 -467.5q-32 -180 -23 -350.5t46 -326t110 -294t168 -255.5t220 -210.5t267.5 -159t308.5 -100.5t344 -35zM1350 357l-110 128l641 549l-453 538l128 109l452 -537
l639 547l109 -128l-639 -548l453 -539l-128 -109l-453 538z" />
    <glyph glyph-name="uniE13E" unicode="&#x30;&#x20de;" horiz-adv-x="3912" 
d="M180 -832q-168 0 -242 88t-46 256l500 3024q29 168 131.5 256t270.5 88h3024q168 0 241 -88t45 -256l-500 -3024q-29 -168 -130.5 -256t-269.5 -88h-3024zM183 -656h3069q71 0 115.5 38.5t57.5 110.5l508 3069q11 69 -18.5 105.5t-98.5 36.5h-3070q-71 0 -116.5 -39
t-57.5 -110l-508 -3069q-12 -69 19 -105.5t100 -36.5zM1822 -28q-215 0 -348 125t-172.5 359t12.5 568q81 494 307.5 773t548.5 279q321 0 457.5 -279.5t54.5 -772.5q-83 -497 -310 -774.5t-550 -277.5zM1847 140q238 0 411 231.5t242 652.5q69 416 -24.5 651.5
t-329.5 235.5t-409 -233t-242 -654q-69 -418 23 -651t329 -233z" />
    <glyph glyph-name="uniE13F" unicode="&#x31;&#x20de;" horiz-adv-x="3912" 
d="M180 -832q-168 0 -242 88t-46 256l500 3024q29 168 131.5 256t270.5 88h3024q168 0 241 -88t45 -256l-500 -3024q-29 -168 -130.5 -256t-269.5 -88h-3024zM183 -656h3069q71 0 115.5 38.5t57.5 110.5l508 3069q11 69 -18.5 105.5t-98.5 36.5h-3070q-71 0 -116.5 -39
t-57.5 -110l-508 -3069q-12 -69 19 -105.5t100 -36.5zM2307 2048l-340 -2048h-187l307 1852h-12l-533 -319l33 194l537 321h195z" />
    <glyph glyph-name="uniE140" unicode="&#x32;&#x20de;" horiz-adv-x="3912" 
d="M180 -832q-168 0 -242 88t-46 256l500 3024q29 168 131.5 256t270.5 88h3024q168 0 241 -88t45 -256l-500 -3024q-29 -168 -130.5 -256t-269.5 -88h-3024zM183 -656h3069q71 0 115.5 38.5t57.5 110.5l508 3069q11 69 -18.5 105.5t-98.5 36.5h-3070q-71 0 -116.5 -39
t-57.5 -110l-508 -3069q-12 -69 19 -105.5t100 -36.5zM1187 0l24 137l792 752q249 236 348.5 365t122.5 267q28 174 -69 282t-278 108q-188 0 -326.5 -117.5t-169.5 -300.5h-179q28 167 129 300.5t252.5 208t322.5 74.5q168 0 290.5 -73.5t176 -200t27.5 -281.5
q-29 -170 -147.5 -330t-423.5 -443l-601 -567l-3 -13h1013l-28 -168h-1273z" />
    <glyph glyph-name="uniE141" unicode="&#x33;&#x20de;" horiz-adv-x="3912" 
d="M180 -832q-168 0 -242 88t-46 256l500 3024q29 168 131.5 256t270.5 88h3024q168 0 241 -88t45 -256l-500 -3024q-29 -168 -130.5 -256t-269.5 -88h-3024zM183 -656h3069q71 0 115.5 38.5t57.5 110.5l508 3069q11 69 -18.5 105.5t-98.5 36.5h-3070q-71 0 -116.5 -39
t-57.5 -110l-508 -3069q-12 -69 19 -105.5t100 -36.5zM1835 -28q-189 0 -330 67.5t-208.5 191t-45.5 281.5h187q-20 -167 91 -269.5t309 -102.5q213 0 374 117t190 302q28 183 -91.5 296t-359.5 113h-122l26 168h115q202 0 349.5 110.5t177.5 292.5q27 167 -62.5 269.5
t-272.5 102.5q-120 0 -230 -45t-188 -132t-97 -198h-181q29 156 132 280t253 192t318 68q177 0 302.5 -76t177 -200.5t26.5 -274.5q-27 -170 -141.5 -292t-286.5 -172v-10q189 -39 279 -178.5t57 -335.5q-41 -253 -248.5 -409t-499.5 -156z" />
    <glyph glyph-name="uniE142" unicode="&#x34;&#x20de;" horiz-adv-x="3912" 
d="M180 -832q-168 0 -242 88t-46 256l500 3024q29 168 131.5 256t270.5 88h3024q168 0 241 -88t45 -256l-500 -3024q-29 -168 -130.5 -256t-269.5 -88h-3024zM183 -656h3069q71 0 115.5 38.5t57.5 110.5l508 3069q11 69 -18.5 105.5t-98.5 36.5h-3070q-71 0 -116.5 -39
t-57.5 -110l-508 -3069q-12 -69 19 -105.5t100 -36.5zM1122 440l24 152l1155 1456h221l-239 -1440h274l-28 -168h-274l-73 -440h-178l73 440h-955zM2105 608l197 1185h-13l-929 -1172v-13h745z" />
    <glyph glyph-name="uniE143" unicode="&#x35;&#x20de;" horiz-adv-x="3912" 
d="M180 -832q-168 0 -242 88t-46 256l500 3024q29 168 131.5 256t270.5 88h3024q168 0 241 -88t45 -256l-500 -3024q-29 -168 -130.5 -256t-269.5 -88h-3024zM183 -656h3069q71 0 115.5 38.5t57.5 110.5l508 3069q11 69 -18.5 105.5t-98.5 36.5h-3070q-71 0 -116.5 -39
t-57.5 -110l-508 -3069q-12 -69 19 -105.5t100 -36.5zM1802 -28q-256 0 -401.5 152.5t-114.5 387.5h181q-17 -162 83.5 -267t275.5 -105q205 0 364.5 143.5t195.5 360.5q36 223 -77.5 366t-320.5 143q-100 0 -207 -34.5t-183 -89.5l-183 24l288 995h1012l-28 -168h-855
l-196 -685h11q80 60 183 94.5t212 34.5q133 0 243 -50.5t180.5 -139t98.5 -215.5t3 -272q-32 -192 -141 -346t-273 -241.5t-351 -87.5z" />
    <glyph glyph-name="uniE144" unicode="&#x36;&#x20de;" horiz-adv-x="3912" 
d="M180 -832q-168 0 -242 88t-46 256l500 3024q29 168 131.5 256t270.5 88h3024q168 0 241 -88t45 -256l-500 -3024q-29 -168 -130.5 -256t-269.5 -88h-3024zM183 -656h3069q71 0 115.5 38.5t57.5 110.5l508 3069q11 69 -18.5 105.5t-98.5 36.5h-3070q-71 0 -116.5 -39
t-57.5 -110l-508 -3069q-12 -69 19 -105.5t100 -36.5zM1830 -28q-89 1 -167 23t-149.5 70.5t-121 124.5t-82 184.5t-33 251t27.5 323.5q41 252 118.5 457.5t187 356t257 233.5t319.5 83q244 0 384.5 -149.5t130.5 -393.5h-179q3 172 -83 273.5t-257 101.5q-255 0 -438 -234
t-256 -670l13 10q96 136 243 215t309 79q129 0 237.5 -51.5t179.5 -140.5t101 -215.5t6 -270.5q-24 -135 -90 -256t-162.5 -211t-225.5 -142.5t-270 -51.5zM1835 140q201 0 364.5 150.5t199.5 364.5q22 134 -18 245.5t-133.5 177t-221.5 65.5q-102 0 -201.5 -43t-176 -114.5
t-127.5 -167.5t-60 -197q-18 -211 84.5 -346t289.5 -135z" />
    <glyph glyph-name="uniE145" unicode="&#x37;&#x20de;" horiz-adv-x="3912" 
d="M180 -832q-168 0 -242 88t-46 256l500 3024q29 168 131.5 256t270.5 88h3024q168 0 241 -88t45 -256l-500 -3024q-29 -168 -130.5 -256t-269.5 -88h-3024zM183 -656h3069q71 0 115.5 38.5t57.5 110.5l508 3069q11 69 -18.5 105.5t-98.5 36.5h-3070q-71 0 -116.5 -39
t-57.5 -110l-508 -3069q-12 -69 19 -105.5t100 -36.5zM1382 0l1242 1867l3 13h-1075l28 168h1271l-31 -176l-1241 -1872h-197z" />
    <glyph glyph-name="uniE146" unicode="&#x38;&#x20de;" horiz-adv-x="3912" 
d="M180 -832q-168 0 -242 88t-46 256l500 3024q29 168 131.5 256t270.5 88h3024q168 0 241 -88t45 -256l-500 -3024q-29 -168 -130.5 -256t-269.5 -88h-3024zM183 -656h3069q71 0 115.5 38.5t57.5 110.5l508 3069q11 69 -18.5 105.5t-98.5 36.5h-3070q-71 0 -116.5 -39
t-57.5 -110l-508 -3069q-12 -69 19 -105.5t100 -36.5zM1829 -28q-147 0 -268 44.5t-198.5 121.5t-111.5 184t-14 227q31 187 169.5 332.5t318.5 179.5v8q-143 44 -211.5 178.5t-36.5 303.5q27 150 123.5 270t242.5 187.5t313 67.5q171 0 300 -71.5t189.5 -197t34.5 -278.5
q-30 -167 -145.5 -292t-273.5 -168v-8q111 -24 193 -101t118 -191t14 -241q-27 -158 -133.5 -285.5t-270.5 -199t-353 -71.5zM1833 140q223 0 384.5 118t190.5 301q19 120 -26.5 215.5t-145 149t-235.5 53.5q-215 0 -382.5 -126.5t-197.5 -313.5q-28 -177 85 -287t327 -110z
M1997 1137q186 0 330 115t174 288q28 167 -68.5 269t-278.5 102q-190 0 -331.5 -110.5t-169.5 -281.5q-28 -168 69.5 -275t274.5 -107z" />
    <glyph glyph-name="uniE147" unicode="&#x39;&#x20de;" horiz-adv-x="3912" 
d="M180 -832q-168 0 -242 88t-46 256l500 3024q29 168 131.5 256t270.5 88h3024q168 0 241 -88t45 -256l-500 -3024q-29 -168 -130.5 -256t-269.5 -88h-3024zM183 -656h3069q71 0 115.5 38.5t57.5 110.5l508 3069q11 69 -18.5 105.5t-98.5 36.5h-3070q-71 0 -116.5 -39
t-57.5 -110l-508 -3069q-12 -69 19 -105.5t100 -36.5zM2158 2080q89 -1 167 -23t149.5 -70.5t121 -124.5t82 -184.5t33 -251t-26.5 -323.5q-42 -252 -119 -457.5t-187 -356.5t-257.5 -234t-319.5 -83q-244 0 -384.5 150t-130.5 394h179q-2 -173 83.5 -274.5t256.5 -101.5
q255 0 438.5 234t256.5 671l-14 -10q-95 -136 -242.5 -215t-309.5 -79q-129 0 -237.5 51.5t-180 140.5t-101 216t-5.5 270q24 135 90 256t162.5 211t225.5 142.5t270 51.5zM2153 1912q-201 0 -365 -150.5t-199 -364.5q-22 -134 18 -245.5t133.5 -177t221.5 -65.5
q102 0 202 43t176.5 114.5t127.5 167.5t60 197q18 210 -85 345.5t-290 135.5z" />
    <glyph glyph-name="uniE148" unicode="&#x20de;&#xe06b;" horiz-adv-x="3912" 
d="M180 -832q-168 0 -242 88t-46 256l500 3024q29 168 131.5 256t270.5 88h3024q168 0 241 -88t45 -256l-500 -3024q-29 -168 -130.5 -256t-269.5 -88h-3024zM183 -656h3069q71 0 115.5 38.5t57.5 110.5l508 3069q11 69 -18.5 105.5t-98.5 36.5h-3070q-71 0 -116.5 -39
t-57.5 -110l-508 -3069q-12 -69 19 -105.5t100 -36.5zM1822 -29q-215 0 -348 125t-172.5 359t12.5 568q81 494 307.5 773t548.5 279q321 0 457.5 -279.5t54.5 -772.5q-83 -497 -310 -774.5t-550 -277.5zM1847 139q238 0 411 231.5t242 652.5q68 410 -21 643l-913 -1385
q98 -142 281 -142zM1503 415l907 1375q-98 120 -264 120q-236 0 -409 -233t-242 -654q-63 -379 8 -608z" />
    <glyph glyph-name="uniE149" unicode="&#x20de;&#xe06c;" horiz-adv-x="3912" 
d="M180 -832q-168 0 -242 88t-46 256l500 3024q29 168 131.5 256t270.5 88h3024q168 0 241 -88t45 -256l-500 -3024q-29 -168 -130.5 -256t-269.5 -88h-3024zM183 -656h3069q71 0 115.5 38.5t57.5 110.5l508 3069q11 69 -18.5 105.5t-98.5 36.5h-3070q-71 0 -116.5 -39
t-57.5 -110l-508 -3069q-12 -69 19 -105.5t100 -36.5zM2344 2048l-340 -2048h-186l292 1760h-16q-16 -22 -56 -50.5t-98.5 -58.5t-140 -50.5t-164.5 -21.5l25 160q85 1 166 30.5t142 74.5t103.5 85t74.5 79l33 40h165z" />
    <glyph glyph-name="uniE14A" unicode="&#x20de;&#xe06d;" horiz-adv-x="3912" 
d="M180 -832q-168 0 -242 88t-46 256l500 3024q29 168 131.5 256t270.5 88h3024q168 0 241 -88t45 -256l-500 -3024q-29 -168 -130.5 -256t-269.5 -88h-3024zM183 -656h3069q71 0 115.5 38.5t57.5 110.5l508 3069q11 69 -18.5 105.5t-98.5 36.5h-3070q-71 0 -116.5 -39
t-57.5 -110l-508 -3069q-12 -69 19 -105.5t100 -36.5zM1241 512h190q-17 -171 98 -271.5t314 -100.5q215 0 371.5 118.5t188.5 314.5q16 97 -5 178.5t-80 145t-169 99.5t-262 36h-111l28 155l667 680v13h-907l28 168h1168l-21 -137l-707 -718l-1 -13q284 -13 441 -181
t115 -426q-43 -258 -258 -429.5t-512 -171.5q-133 0 -245.5 38.5t-190.5 107t-116 171t-24 223.5z" />
    <glyph glyph-name="uniE14B" unicode="&#x20de;&#xe06e;" horiz-adv-x="3912" 
d="M180 -832q-168 0 -242 88t-46 256l500 3024q29 168 131.5 256t270.5 88h3024q168 0 241 -88t45 -256l-500 -3024q-29 -168 -130.5 -256t-269.5 -88h-3024zM183 -656h3069q71 0 115.5 38.5t57.5 110.5l508 3069q11 69 -18.5 105.5t-98.5 36.5h-3070q-71 0 -116.5 -39
t-57.5 -110l-508 -3069q-12 -69 19 -105.5t100 -36.5zM1126 440l24 152l1100 1456h188l-1077 -1427v-13h748l111 672h178l-111 -672h274l-28 -168h-274l-73 -440h-178l73 440h-955z" />
    <glyph glyph-name="uniE14C" unicode="&#x20de;&#xe06f;" horiz-adv-x="3912" 
d="M180 -832q-168 0 -242 88t-46 256l500 3024q29 168 131.5 256t270.5 88h3024q168 0 241 -88t45 -256l-500 -3024q-29 -168 -130.5 -256t-269.5 -88h-3024zM183 -656h3069q71 0 115.5 38.5t57.5 110.5l508 3069q11 69 -18.5 105.5t-98.5 36.5h-3070q-71 0 -116.5 -39
t-57.5 -110l-508 -3069q-12 -69 19 -105.5t100 -36.5zM1312 636q23 141 101 282.5t241 333.5l674 796h210l-695 -816q101 44 200 44q176 0 305.5 -85.5t186.5 -235t28 -332.5q-30 -183 -136 -332t-264 -234t-335 -85t-306 86.5t-185 238.5t-25 339zM1488 625
q-34 -209 69 -348.5t295 -139.5t344 139.5t188 346.5q35 210 -68.5 347.5t-296.5 137.5t-344.5 -137t-186.5 -346z" />
    <glyph glyph-name="uniE14D" unicode="&#x20de;&#xe070;" horiz-adv-x="3912" 
d="M180 -832q-168 0 -242 88t-46 256l500 3024q29 168 131.5 256t270.5 88h3024q168 0 241 -88t45 -256l-500 -3024q-29 -168 -130.5 -256t-269.5 -88h-3024zM183 -656h3069q71 0 115.5 38.5t57.5 110.5l508 3069q11 69 -18.5 105.5t-98.5 36.5h-3070q-71 0 -116.5 -39
t-57.5 -110l-508 -3069q-12 -69 19 -105.5t100 -36.5zM1434 1425q30 183 136.5 332t264.5 234t334 85q177 0 306 -86.5t184.5 -238.5t25.5 -339q-22 -139 -100 -281t-241 -335l-675 -796h-209l694 816q-101 -44 -200 -44q-176 0 -305.5 85.5t-187 235t-27.5 332.5z
M1613 1425q-35 -210 68.5 -347.5t296.5 -137.5t344 137t187 346q34 209 -69 348.5t-295 139.5q-126 0 -240 -63.5t-191.5 -175t-100.5 -247.5z" />
    <glyph glyph-name="uniE14E" unicode="&#x21;&#x20de;" horiz-adv-x="3912" 
d="M180 -832q-168 0 -242 88t-46 256l500 3024q29 168 131.5 256t270.5 88h3024q168 0 241 -88t45 -256l-500 -3024q-29 -168 -130.5 -256t-269.5 -88h-3024zM183 -656h3069q71 0 115.5 38.5t57.5 110.5l508 3069q11 69 -18.5 105.5t-98.5 36.5h-3070q-71 0 -116.5 -39
t-57.5 -110l-508 -3069q-12 -69 19 -105.5t100 -36.5zM2279 2048l-256 -1461h-176l230 1461h202zM1858 -15q-60 0 -100.5 42t-40.5 102q0 59 43.5 100.5t103.5 41.5q59 0 101 -42t40 -100q-2 -60 -45 -102t-102 -42z" />
    <glyph glyph-name="uniE14F" unicode="&#x3f;&#x20de;" horiz-adv-x="3912" 
d="M180 -832q-168 0 -242 88t-46 256l500 3024q29 168 131.5 256t270.5 88h3024q168 0 241 -88t45 -256l-500 -3024q-29 -168 -130.5 -256t-269.5 -88h-3024zM183 -656h3069q71 0 115.5 38.5t57.5 110.5l508 3069q11 69 -18.5 105.5t-98.5 36.5h-3070q-71 0 -116.5 -39
t-57.5 -110l-508 -3069q-12 -69 19 -105.5t100 -36.5zM1818 587l10 62q20 115 52.5 199t84 147.5t108.5 108t145 95.5q130 77 201 159t88 199q24 161 -64.5 260t-248.5 99q-103 0 -196.5 -43.5t-164 -131.5t-94.5 -205h-189q32 162 129.5 285.5t237 189t298.5 65.5
q164 0 280.5 -69t166.5 -189t26 -269q-25 -157 -112 -264.5t-252 -203.5q-150 -88 -218 -180t-96 -252l-11 -62h-181zM1836 -15q-60 0 -100.5 42t-40.5 102q0 59 43.5 100.5t103.5 41.5q59 0 101 -42t40 -100q-2 -60 -45 -102t-102 -42z" />
    <glyph glyph-name="uniE150" unicode="&#x23;&#x20de;" horiz-adv-x="3912" 
d="M180 -832q-168 0 -242 88t-46 256l500 3024q29 168 131.5 256t270.5 88h3024q168 0 241 -88t45 -256l-500 -3024q-29 -168 -130.5 -256t-269.5 -88h-3024zM183 -656h3069q71 0 115.5 38.5t57.5 110.5l508 3069q11 69 -18.5 105.5t-98.5 36.5h-3070q-71 0 -116.5 -39
t-57.5 -110l-508 -3069q-12 -69 19 -105.5t100 -36.5zM2095 0l107 591h-565l-107 -591h-155l107 591h-327l28 154h327l102 558h-326l28 154h326l107 591h155l-107 -591h565l107 591h155l-107 -591h327l-28 -154h-327l-102 -558h326l-28 -154h-326l-107 -591h-155zM1665 745
h565l102 558h-565z" />
    <glyph glyph-name="uniE151" unicode="&#x2d;&#x20de;" horiz-adv-x="3912" 
d="M180 -832q-168 0 -242 88t-46 256l500 3024q29 168 131.5 256t270.5 88h3024q168 0 241 -88t45 -256l-500 -3024q-29 -168 -130.5 -256t-269.5 -88h-3024zM183 -656h3069q71 0 115.5 38.5t57.5 110.5l508 3069q11 69 -18.5 105.5t-98.5 36.5h-3070q-71 0 -116.5 -39
t-57.5 -110l-508 -3069q-12 -69 19 -105.5t100 -36.5zM2438 1108l-28 -168h-852l28 168h852z" />
    <glyph glyph-name="uniE152" unicode="&#x3c;&#x20de;" horiz-adv-x="3912" 
d="M180 -832q-168 0 -242 88t-46 256l500 3024q29 168 131.5 256t270.5 88h3024q168 0 241 -88t45 -256l-500 -3024q-29 -168 -130.5 -256t-269.5 -88h-3024zM183 -656h3069q71 0 115.5 38.5t57.5 110.5l508 3069q11 69 -18.5 105.5t-98.5 36.5h-3070q-71 0 -116.5 -39
t-57.5 -110l-508 -3069q-12 -69 19 -105.5t100 -36.5zM1319 939l22 128l1335 675l-31 -196l-1085 -538l-2 -12l907 -536l-33 -196z" />
    <glyph glyph-name="uniE153" unicode="&#x3e;&#x20de;" horiz-adv-x="3912" 
d="M180 -832q-168 0 -242 88t-46 256l500 3024q29 168 131.5 256t270.5 88h3024q168 0 241 -88t45 -256l-500 -3024q-29 -168 -130.5 -256t-269.5 -88h-3024zM183 -656h3069q71 0 115.5 38.5t57.5 110.5l508 3069q11 69 -18.5 105.5t-98.5 36.5h-3070q-71 0 -116.5 -39
t-57.5 -110l-508 -3069q-12 -69 19 -105.5t100 -36.5zM2654 939l-1335 -675l34 196l1083 538l1 12l-904 536l30 196l1114 -675z" />
    <glyph glyph-name="uniE154" unicode="&#x3d;&#x20de;" horiz-adv-x="3912" 
d="M180 -832q-168 0 -242 88t-46 256l500 3024q29 168 131.5 256t270.5 88h3024q168 0 241 -88t45 -256l-500 -3024q-29 -168 -130.5 -256t-269.5 -88h-3024zM183 -656h3069q71 0 115.5 38.5t57.5 110.5l508 3069q11 69 -18.5 105.5t-98.5 36.5h-3070q-71 0 -116.5 -39
t-57.5 -110l-508 -3069q-12 -69 19 -105.5t100 -36.5zM1368 655l28 165h1139l-28 -165h-1139zM1463 1228l28 165h1138l-28 -165h-1138z" />
    <glyph glyph-name="uniE155" unicode="&#x2b;&#x20de;" horiz-adv-x="3912" 
d="M180 -832q-168 0 -242 88t-46 256l500 3024q29 168 131.5 256t270.5 88h3024q168 0 241 -88t45 -256l-500 -3024q-29 -168 -130.5 -256t-269.5 -88h-3024zM183 -656h3069q71 0 115.5 38.5t57.5 110.5l508 3069q11 69 -18.5 105.5t-98.5 36.5h-3070q-71 0 -116.5 -39
t-57.5 -110l-508 -3069q-12 -69 19 -105.5t100 -36.5zM1808 388l90 548h-547l29 170h547l90 548h172l-90 -548h548l-30 -170h-547l-90 -548h-172z" />
    <glyph glyph-name="uniE156" unicode="&#x20de;&#x2212;" horiz-adv-x="3912" 
d="M180 -832q-168 0 -242 88t-46 256l500 3024q29 168 131.5 256t270.5 88h3024q168 0 241 -88t45 -256l-500 -3024q-29 -168 -130.5 -256t-269.5 -88h-3024zM183 -656h3069q71 0 115.5 38.5t57.5 110.5l508 3069q11 69 -18.5 105.5t-98.5 36.5h-3070q-71 0 -116.5 -39
t-57.5 -110l-508 -3069q-12 -69 19 -105.5t100 -36.5zM2633 1109l-29 -170h-1240l29 170h1240z" />
    <glyph glyph-name="uniE157" unicode="&#xd7;&#x20de;" horiz-adv-x="3912" 
d="M180 -832q-168 0 -242 88t-46 256l500 3024q29 168 131.5 256t270.5 88h3024q168 0 241 -88t45 -256l-500 -3024q-29 -168 -130.5 -256t-269.5 -88h-3024zM183 -656h3069q71 0 115.5 38.5t57.5 110.5l508 3069q11 69 -18.5 105.5t-98.5 36.5h-3070q-71 0 -116.5 -39
t-57.5 -110l-508 -3069q-12 -69 19 -105.5t100 -36.5zM2401 387l-415 498l-581 -497l-108 125l583 499l-419 503l126 106l419 -502l586 501l107 -125l-588 -503l416 -499z" />
    <glyph glyph-name="uniE158" unicode="&#xf7;&#x20de;" horiz-adv-x="3912" 
d="M180 -832q-168 0 -242 88t-46 256l500 3024q29 168 131.5 256t270.5 88h3024q168 0 241 -88t45 -256l-500 -3024q-29 -168 -130.5 -256t-269.5 -88h-3024zM183 -656h3069q71 0 115.5 38.5t57.5 110.5l508 3069q11 69 -18.5 105.5t-98.5 36.5h-3070q-71 0 -116.5 -39
t-57.5 -110l-508 -3069q-12 -69 19 -105.5t100 -36.5zM2632 1109l-28 -170h-1240l28 170h1240zM2070 1379q-64 0 -103.5 45.5t-30.5 108.5q8 54 53 92.5t102 38.5q60 0 98.5 -45t29.5 -107q-8 -56 -51.5 -94.5t-97.5 -38.5zM1904 384q-63 0 -100.5 45t-29.5 110q6 54 50 92
t102 38q60 0 97.5 -44.5t30.5 -107.5q-6 -55 -50.5 -94t-99.5 -39z" />
    <glyph glyph-name="uniE159" unicode="&#x20de;&#x2191;" horiz-adv-x="3912" 
d="M180 -832q-168 0 -242 88t-46 256l500 3024q29 168 131.5 256t270.5 88h3024q168 0 241 -88t45 -256l-500 -3024q-29 -168 -130.5 -256t-269.5 -88h-3024zM183 -656h3069q71 0 115.5 38.5t57.5 110.5l508 3069q11 69 -18.5 105.5t-98.5 36.5h-3070q-71 0 -116.5 -39
t-57.5 -110l-508 -3069q-12 -69 19 -105.5t100 -36.5zM1722 0l289 1742l-810 -696l-99 118l1046 896l748 -896l-136 -118l-581 696l-289 -1742h-168z" />
    <glyph glyph-name="uniE15A" unicode="&#x20de;&#x2193;" horiz-adv-x="3912" 
d="M180 -832q-168 0 -242 88t-46 256l500 3024q29 168 131.5 256t270.5 88h3024q168 0 241 -88t45 -256l-500 -3024q-29 -168 -130.5 -256t-269.5 -88h-3024zM183 -656h3069q71 0 115.5 38.5t57.5 110.5l508 3069q11 69 -18.5 105.5t-98.5 36.5h-3070q-71 0 -116.5 -39
t-57.5 -110l-508 -3069q-12 -69 19 -105.5t100 -36.5zM2276 2048l-289 -1742l810 696l99 -118l-1046 -896l-748 896l136 118l581 -696l289 1742h168z" />
    <glyph glyph-name="uniE15B" unicode="&#x20de;&#x2190;" horiz-adv-x="3912" 
d="M180 -832q-168 0 -242 88t-46 256l500 3024q29 168 131.5 256t270.5 88h3024q168 0 241 -88t45 -256l-500 -3024q-29 -168 -130.5 -256t-269.5 -88h-3024zM183 -656h3069q71 0 115.5 38.5t57.5 110.5l508 3069q11 69 -18.5 105.5t-98.5 36.5h-3070q-71 0 -116.5 -39
t-57.5 -110l-508 -3069q-12 -69 19 -105.5t100 -36.5zM1710 128l-748 896l1046 896l109 -125l-804 -687h1721l-29 -168h-1756l588 -706z" />
    <glyph glyph-name="uniE15C" unicode="&#x20de;&#x2192;" horiz-adv-x="3912" 
d="M180 -832q-168 0 -242 88t-46 256l500 3024q29 168 131.5 256t270.5 88h3024q168 0 241 -88t45 -256l-500 -3024q-29 -168 -130.5 -256t-269.5 -88h-3024zM183 -656h3069q71 0 115.5 38.5t57.5 110.5l508 3069q11 69 -18.5 105.5t-98.5 36.5h-3070q-71 0 -116.5 -39
t-57.5 -110l-508 -3069q-12 -69 19 -105.5t100 -36.5zM1988 128l-109 125l804 687h-1721l29 168h1756l-588 706l127 106l748 -896z" />
    <glyph glyph-name="uniE15D" unicode="&#x20de;&#x2713;" horiz-adv-x="3912" 
d="M180 -832q-168 0 -242 88t-46 256l500 3024q29 168 131.5 256t270.5 88h3024q168 0 241 -88t45 -256l-500 -3024q-29 -168 -130.5 -256t-269.5 -88h-3024zM183 -656h3069q71 0 115.5 38.5t57.5 110.5l508 3069q11 69 -18.5 105.5t-98.5 36.5h-3070q-71 0 -116.5 -39
t-57.5 -110l-508 -3069q-12 -69 19 -105.5t100 -36.5zM1079 1018l128 110l449 -532l1296 1109l110 -128l-1424 -1219z" />
    <glyph glyph-name="uniE15E" unicode="&#x20de;&#x2717;" horiz-adv-x="3912" 
d="M180 -832q-168 0 -242 88t-46 256l500 3024q29 168 131.5 256t270.5 88h3024q168 0 241 -88t45 -256l-500 -3024q-29 -168 -130.5 -256t-269.5 -88h-3024zM183 -656h3069q71 0 115.5 38.5t57.5 110.5l508 3069q11 69 -18.5 105.5t-98.5 36.5h-3070q-71 0 -116.5 -39
t-57.5 -110l-508 -3069q-12 -69 19 -105.5t100 -36.5zM1350 358l-110 128l641 549l-453 538l128 109l452 -537l639 547l109 -128l-639 -548l453 -539l-128 -109l-453 538z" />
    <glyph glyph-name="u1F130" unicode="A&#x20de;" horiz-adv-x="3912" 
d="M180 -832q-168 0 -242 88t-46 256l500 3024q29 168 131.5 256t270.5 88h3024q168 0 241 -88t45 -256l-500 -3024q-29 -168 -130.5 -256t-269.5 -88h-3024zM183 -656h3069q71 0 115.5 38.5t57.5 110.5l508 3069q11 69 -18.5 105.5t-98.5 36.5h-3070q-71 0 -116.5 -39
t-57.5 -110l-508 -3069q-12 -69 19 -105.5t100 -36.5zM1178 0h-196l1085 2048h200l405 -2048h-196l-117 617h-858zM1589 785h739l-193 1020h-13z" />
    <glyph glyph-name="u1F131" unicode="B&#x20de;" horiz-adv-x="3912" 
d="M180 -832q-168 0 -242 88t-46 256l500 3024q29 168 131.5 256t270.5 88h3024q168 0 241 -88t45 -256l-500 -3024q-29 -168 -130.5 -256t-269.5 -88h-3024zM183 -656h3069q71 0 115.5 38.5t57.5 110.5l508 3069q11 69 -18.5 105.5t-98.5 36.5h-3070q-71 0 -116.5 -39
t-57.5 -110l-508 -3069q-12 -69 19 -105.5t100 -36.5zM1189 0l340 2048h691q147 0 255.5 -40.5t170 -112.5t83 -169.5t1.5 -213.5q-30 -182 -137.5 -294.5t-259.5 -152.5l-3 -16q75 -5 140.5 -42.5t113 -101t67 -160t1.5 -208.5q-41 -243 -228.5 -390t-505.5 -147h-729z
M1404 168h542q228 0 363 101t164 268q28 179 -78.5 299.5t-308.5 120.5h-550zM1564 1123h521q180 0 310.5 109.5t156.5 279.5q29 168 -63 268t-297 100h-504z" />
    <glyph glyph-name="u1F132" unicode="C&#x20de;" horiz-adv-x="3912" 
d="M180 -832q-168 0 -242 88t-46 256l500 3024q29 168 131.5 256t270.5 88h3024q168 0 241 -88t45 -256l-500 -3024q-29 -168 -130.5 -256t-269.5 -88h-3024zM183 -656h3069q71 0 115.5 38.5t57.5 110.5l508 3069q11 69 -18.5 105.5t-98.5 36.5h-3070q-71 0 -116.5 -39
t-57.5 -110l-508 -3069q-12 -69 19 -105.5t100 -36.5zM2887 1408h-186q-7 214 -153.5 353t-379.5 139q-148 0 -287 -59t-254.5 -169t-199.5 -280t-118 -379q-34 -211 -7.5 -373t104 -271t193.5 -165t261 -56q241 0 438 138.5t277 353.5h188q-50 -141 -138.5 -263t-205 -212
t-263.5 -141.5t-305 -51.5q-195 0 -348.5 75t-248 214t-130 335t6.5 439q39 235 136.5 430.5t235 329t312 207.5t365.5 74q161 0 294 -51.5t222 -141.5t139 -212t52 -263z" />
    <glyph glyph-name="u1F133" unicode="D&#x20de;" horiz-adv-x="3912" 
d="M180 -832q-168 0 -242 88t-46 256l500 3024q29 168 131.5 256t270.5 88h3024q168 0 241 -88t45 -256l-500 -3024q-29 -168 -130.5 -256t-269.5 -88h-3024zM183 -656h3069q71 0 115.5 38.5t57.5 110.5l508 3069q11 69 -18.5 105.5t-98.5 36.5h-3070q-71 0 -116.5 -39
t-57.5 -110l-508 -3069q-12 -69 19 -105.5t100 -36.5zM1710 0h-605l340 2048h631q291 0 482 -123t264.5 -355.5t19.5 -550.5q-80 -482 -376 -750.5t-756 -268.5zM1320 168h400q387 0 632 231.5t312 640.5q67 401 -89 620.5t-527 219.5h-444z" />
    <glyph glyph-name="u1F134" unicode="E&#x20de;" horiz-adv-x="3912" 
d="M180 -832q-168 0 -242 88t-46 256l500 3024q29 168 131.5 256t270.5 88h3024q168 0 241 -88t45 -256l-500 -3024q-29 -168 -130.5 -256t-269.5 -88h-3024zM183 -656h3069q71 0 115.5 38.5t57.5 110.5l508 3069q11 69 -18.5 105.5t-98.5 36.5h-3070q-71 0 -116.5 -39
t-57.5 -110l-508 -3069q-12 -69 19 -105.5t100 -36.5zM1234 0l340 2048h1188l-28 -168h-1001l-128 -771h938l-28 -168h-938l-128 -773h1021l-28 -168h-1208z" />
    <glyph glyph-name="u1F135" unicode="F&#x20de;" horiz-adv-x="3912" 
d="M180 -832q-168 0 -242 88t-46 256l500 3024q29 168 131.5 256t270.5 88h3024q168 0 241 -88t45 -256l-500 -3024q-29 -168 -130.5 -256t-269.5 -88h-3024zM183 -656h3069q71 0 115.5 38.5t57.5 110.5l508 3069q11 69 -18.5 105.5t-98.5 36.5h-3070q-71 0 -116.5 -39
t-57.5 -110l-508 -3069q-12 -69 19 -105.5t100 -36.5zM1262 0l340 2048h1185l-28 -168h-998l-128 -771h905l-28 -168h-905l-156 -941h-187z" />
    <glyph glyph-name="u1F136" unicode="G&#x20de;" horiz-adv-x="3912" 
d="M180 -832q-168 0 -242 88t-46 256l500 3024q29 168 131.5 256t270.5 88h3024q168 0 241 -88t45 -256l-500 -3024q-29 -168 -130.5 -256t-269.5 -88h-3024zM183 -656h3069q71 0 115.5 38.5t57.5 110.5l508 3069q11 69 -18.5 105.5t-98.5 36.5h-3070q-71 0 -116.5 -39
t-57.5 -110l-508 -3069q-12 -69 19 -105.5t100 -36.5zM2697 1408q-8 84 -32.5 157t-68 135t-103.5 106t-143.5 69t-184.5 25q-144 0 -281.5 -58.5t-253.5 -166.5t-201.5 -276.5t-119.5 -374.5q-68 -410 83.5 -643t469.5 -233q184 0 344.5 81.5t272 236t147.5 358.5h-597
l31 168h777l-31 -168q-41 -258 -178.5 -452.5t-340.5 -297t-442 -102.5q-266 0 -447 128.5t-252 367.5t-18 556q38 237 135 434.5t235.5 332.5t314 210t367.5 75q164 0 299 -53.5t223 -145.5t136.5 -212.5t50.5 -256.5h-192z" />
    <glyph glyph-name="u1F137" unicode="H&#x20de;" horiz-adv-x="3912" 
d="M180 -832q-168 0 -242 88t-46 256l500 3024q29 168 131.5 256t270.5 88h3024q168 0 241 -88t45 -256l-500 -3024q-29 -168 -130.5 -256t-269.5 -88h-3024zM183 -656h3069q71 0 115.5 38.5t57.5 110.5l508 3069q11 69 -18.5 105.5t-98.5 36.5h-3070q-71 0 -116.5 -39
t-57.5 -110l-508 -3069q-12 -69 19 -105.5t100 -36.5zM1060 0l340 2048h187l-156 -939h1162l156 939h187l-340 -2048h-187l156 941h-1162l-156 -941h-187z" />
    <glyph glyph-name="u1F138" unicode="I&#x20de;" horiz-adv-x="3912" 
d="M180 -832q-168 0 -242 88t-46 256l500 3024q29 168 131.5 256t270.5 88h3024q168 0 241 -88t45 -256l-500 -3024q-29 -168 -130.5 -256t-269.5 -88h-3024zM183 -656h3069q71 0 115.5 38.5t57.5 110.5l508 3069q11 69 -18.5 105.5t-98.5 36.5h-3070q-71 0 -116.5 -39
t-57.5 -110l-508 -3069q-12 -69 19 -105.5t100 -36.5zM2262 2048l-340 -2048h-187l340 2048h187z" />
    <glyph glyph-name="u1F139" unicode="J&#x20de;" horiz-adv-x="3912" 
d="M180 -832q-168 0 -242 88t-46 256l500 3024q29 168 131.5 256t270.5 88h3024q168 0 241 -88t45 -256l-500 -3024q-29 -168 -130.5 -256t-269.5 -88h-3024zM183 -656h3069q71 0 115.5 38.5t57.5 110.5l508 3069q11 69 -18.5 105.5t-98.5 36.5h-3070q-71 0 -116.5 -39
t-57.5 -110l-508 -3069q-12 -69 19 -105.5t100 -36.5zM2494 2048h187l-246 -1483q-48 -292 -218.5 -442.5t-423.5 -150.5q-245 0 -381.5 131.5t-102.5 344.5h178q-20 -139 67.5 -223.5t244.5 -84.5q173 0 294.5 110.5t157.5 325.5z" />
    <glyph glyph-name="u1F13A" unicode="K&#x20de;" horiz-adv-x="3912" 
d="M180 -832q-168 0 -242 88t-46 256l500 3024q29 168 131.5 256t270.5 88h3024q168 0 241 -88t45 -256l-500 -3024q-29 -168 -130.5 -256t-269.5 -88h-3024zM183 -656h3069q71 0 115.5 38.5t57.5 110.5l508 3069q11 69 -18.5 105.5t-98.5 36.5h-3070q-71 0 -116.5 -39
t-57.5 -110l-508 -3069q-12 -69 19 -105.5t100 -36.5zM1143 0l340 2048h187l-183 -1103h19l1182 1103h246l-1031 -947l687 -1101h-228l-596 971l-324 -306l-112 -665h-187z" />
    <glyph glyph-name="u1F13B" unicode="L&#x20de;" horiz-adv-x="3912" 
d="M180 -832q-168 0 -242 88t-46 256l500 3024q29 168 131.5 256t270.5 88h3024q168 0 241 -88t45 -256l-500 -3024q-29 -168 -130.5 -256t-269.5 -88h-3024zM183 -656h3069q71 0 115.5 38.5t57.5 110.5l508 3069q11 69 -18.5 105.5t-98.5 36.5h-3070q-71 0 -116.5 -39
t-57.5 -110l-508 -3069q-12 -69 19 -105.5t100 -36.5zM1283 0l340 2048h187l-312 -1880h976l-28 -168h-1163z" />
    <glyph glyph-name="u1F13C" unicode="M&#x20de;" horiz-adv-x="3912" 
d="M180 -832q-168 0 -242 88t-46 256l500 3024q29 168 131.5 256t270.5 88h3024q168 0 241 -88t45 -256l-500 -3024q-29 -168 -130.5 -256t-269.5 -88h-3024zM183 -656h3069q71 0 115.5 38.5t57.5 110.5l508 3069q11 69 -18.5 105.5t-98.5 36.5h-3070q-71 0 -116.5 -39
t-57.5 -110l-508 -3069q-12 -69 19 -105.5t100 -36.5zM1200 2048h216l448 -1784h19l1037 1784h216l-340 -2048h-176l276 1653h-16l-967 -1653h-170l-415 1653h-16l-276 -1653h-176z" />
    <glyph glyph-name="u1F13D" unicode="N&#x20de;" horiz-adv-x="3912" 
d="M180 -832q-168 0 -242 88t-46 256l500 3024q29 168 131.5 256t270.5 88h3024q168 0 241 -88t45 -256l-500 -3024q-29 -168 -130.5 -256t-269.5 -88h-3024zM183 -656h3069q71 0 115.5 38.5t57.5 110.5l508 3069q11 69 -18.5 105.5t-98.5 36.5h-3070q-71 0 -116.5 -39
t-57.5 -110l-508 -3069q-12 -69 19 -105.5t100 -36.5zM2966 2048l-340 -2048h-182l-925 1715h-16l-285 -1715h-187l340 2048h181l928 -1717h16l286 1717h184z" />
    <glyph glyph-name="u1F13E" unicode="O&#x20de;" horiz-adv-x="3912" 
d="M180 -832q-168 0 -242 88t-46 256l500 3024q29 168 131.5 256t270.5 88h3024q168 0 241 -88t45 -256l-500 -3024q-29 -168 -130.5 -256t-269.5 -88h-3024zM183 -656h3069q71 0 115.5 38.5t57.5 110.5l508 3069q11 69 -18.5 105.5t-98.5 36.5h-3070q-71 0 -116.5 -39
t-57.5 -110l-508 -3069q-12 -69 19 -105.5t100 -36.5zM2882 1013q-39 -235 -136.5 -430t-234.5 -329t-311 -208t-365 -74q-196 0 -349.5 75t-248 214t-129.5 335.5t6 438.5q40 235 137.5 430t235 329t312 208t365.5 74q194 0 347 -75t247.5 -214t130 -335t-6.5 -439z
M2703 1035q34 205 9 366t-98.5 272t-190 169t-265.5 58q-154 0 -295.5 -61t-256.5 -173t-197.5 -280t-116.5 -373t-9 -366t98.5 -272t190.5 -169t267 -58q207 0 386 104.5t306.5 307.5t171.5 475z" />
    <glyph glyph-name="u1F13F" unicode="P&#x20de;" horiz-adv-x="3912" 
d="M180 -832q-168 0 -242 88t-46 256l500 3024q29 168 131.5 256t270.5 88h3024q168 0 241 -88t45 -256l-500 -3024q-29 -168 -130.5 -256t-269.5 -88h-3024zM183 -656h3069q71 0 115.5 38.5t57.5 110.5l508 3069q11 69 -18.5 105.5t-98.5 36.5h-3070q-71 0 -116.5 -39
t-57.5 -110l-508 -3069q-12 -69 19 -105.5t100 -36.5zM1223 0l340 2048h661q212 0 349 -83.5t186.5 -224.5t19.5 -324q-22 -135 -84 -249.5t-157 -200.5t-229.5 -134.5t-292.5 -48.5h-476l-130 -783h-187zM1568 951h471q233 0 377.5 128t178.5 337q34 211 -67.5 337.5
t-336.5 126.5h-469z" />
    <glyph glyph-name="u1F140" unicode="Q&#x20de;" horiz-adv-x="3912" 
d="M180 -832q-168 0 -242 88t-46 256l500 3024q29 168 131.5 256t270.5 88h3024q168 0 241 -88t45 -256l-500 -3024q-29 -168 -130.5 -256t-269.5 -88h-3024zM183 -656h3069q71 0 115.5 38.5t57.5 110.5l508 3069q11 69 -18.5 105.5t-98.5 36.5h-3070q-71 0 -116.5 -39
t-57.5 -110l-508 -3069q-12 -69 19 -105.5t100 -36.5zM2882 1013q-44 -267 -161.5 -480t-290.5 -350l282 -375h-208l-212 282q-211 -118 -457 -118q-196 0 -349.5 75t-248 214t-129.5 335.5t6 438.5q40 235 137.5 430t235 329t312 208t365.5 74q194 0 347 -75t247.5 -214
t130 -335t-6.5 -439zM1876 640h208l240 -317q144 116 243 297.5t136 414.5q34 205 9 366t-98.5 272t-190 169t-265.5 58q-154 0 -295.5 -61t-256.5 -173t-197.5 -280t-116.5 -373t-9 -366t98.5 -272t190.5 -169t267 -58q184 0 347 84z" />
    <glyph glyph-name="u1F141" unicode="R&#x20de;" horiz-adv-x="3912" 
d="M180 -832q-168 0 -242 88t-46 256l500 3024q29 168 131.5 256t270.5 88h3024q168 0 241 -88t45 -256l-500 -3024q-29 -168 -130.5 -256t-269.5 -88h-3024zM183 -656h3069q71 0 115.5 38.5t57.5 110.5l508 3069q11 69 -18.5 105.5t-98.5 36.5h-3070q-71 0 -116.5 -39
t-57.5 -110l-508 -3069q-12 -69 19 -105.5t100 -36.5zM1223 0l340 2048h661q160 0 278.5 -45t186.5 -126.5t92 -193.5t2 -248q-35 -207 -159.5 -356t-323.5 -211l330 -868h-214l-310 831q-40 -3 -82 -3h-477l-137 -828h-187zM1576 999h472q236 0 376.5 115.5t174.5 320.5
q34 208 -68.5 326.5t-339.5 118.5h-469z" />
    <glyph glyph-name="u1F142" unicode="S&#x20de;" horiz-adv-x="3912" 
d="M180 -832q-168 0 -242 88t-46 256l500 3024q29 168 131.5 256t270.5 88h3024q168 0 241 -88t45 -256l-500 -3024q-29 -168 -130.5 -256t-269.5 -88h-3024zM183 -656h3069q71 0 115.5 38.5t57.5 110.5l508 3069q11 69 -18.5 105.5t-98.5 36.5h-3070q-71 0 -116.5 -39
t-57.5 -110l-508 -3069q-12 -69 19 -105.5t100 -36.5zM2594 1525q7 180 -106.5 282t-317.5 102q-213 0 -366 -107.5t-180 -273.5q-10 -62 5 -116t46.5 -92.5t81.5 -71t100.5 -54t112.5 -39.5l207 -62q83 -25 149.5 -52.5t135.5 -74.5t112 -103t63 -138.5t4 -180.5
q-21 -125 -87 -231t-167.5 -183t-243.5 -121t-307 -44q-309 0 -474 150.5t-141 396.5h192q-15 -177 111 -276.5t340 -99.5q232 0 399 114t197 297q13 76 -7 136.5t-72.5 105t-120.5 76.5t-166 62l-234 72q-481 148 -420 521q28 163 137.5 291t272.5 197t352 69
q284 0 442 -154t132 -398h-182z" />
    <glyph glyph-name="u1F143" unicode="T&#x20de;" horiz-adv-x="3912" 
d="M180 -832q-168 0 -242 88t-46 256l500 3024q29 168 131.5 256t270.5 88h3024q168 0 241 -88t45 -256l-500 -3024q-29 -168 -130.5 -256t-269.5 -88h-3024zM183 -656h3069q71 0 115.5 38.5t57.5 110.5l508 3069q11 69 -18.5 105.5t-98.5 36.5h-3070q-71 0 -116.5 -39
t-57.5 -110l-508 -3069q-12 -69 19 -105.5t100 -36.5zM1396 1880l28 168h1485l-28 -168h-649l-312 -1880h-187l312 1880h-649z" />
    <glyph glyph-name="u1F144" unicode="U&#x20de;" horiz-adv-x="3912" 
d="M180 -832q-168 0 -242 88t-46 256l500 3024q29 168 131.5 256t270.5 88h3024q168 0 241 -88t45 -256l-500 -3024q-29 -168 -130.5 -256t-269.5 -88h-3024zM183 -656h3069q71 0 115.5 38.5t57.5 110.5l508 3069q11 69 -18.5 105.5t-98.5 36.5h-3070q-71 0 -116.5 -39
t-57.5 -110l-508 -3069q-12 -69 19 -105.5t100 -36.5zM2758 2048h187l-224 -1356q-35 -208 -159 -373t-317.5 -259.5t-420.5 -94.5t-388.5 94.5t-231 260t-35.5 372.5l224 1356h187l-223 -1343q-26 -162 24 -290t172 -201t297 -73q265 0 455.5 158.5t230.5 405.5z" />
    <glyph glyph-name="u1F145" unicode="V&#x20de;" horiz-adv-x="3912" 
d="M180 -832q-168 0 -242 88t-46 256l500 3024q29 168 131.5 256t270.5 88h3024q168 0 241 -88t45 -256l-500 -3024q-29 -168 -130.5 -256t-269.5 -88h-3024zM183 -656h3069q71 0 115.5 38.5t57.5 110.5l508 3069q11 69 -18.5 105.5t-98.5 36.5h-3070q-71 0 -116.5 -39
t-57.5 -110l-508 -3069q-12 -69 19 -105.5t100 -36.5zM1518 2048l341 -1805h19l938 1805h196l-1085 -2048h-200l-405 2048h196z" />
    <glyph glyph-name="u1F146" unicode="W&#x20de;" horiz-adv-x="3912" 
d="M180 -832q-168 0 -242 88t-46 256l500 3024q29 168 131.5 256t270.5 88h3024q168 0 241 -88t45 -256l-500 -3024q-29 -168 -130.5 -256t-269.5 -88h-3024zM183 -656h3069q71 0 115.5 38.5t57.5 110.5l508 3069q11 69 -18.5 105.5t-98.5 36.5h-3070q-71 0 -116.5 -39
t-57.5 -110l-508 -3069q-12 -69 19 -105.5t100 -36.5zM1146 0l-221 2048h190l171 -1761h16l757 1761h216l172 -1761h16l756 1761h192l-901 -2048h-201l-186 1737h-13l-764 -1737h-200z" />
    <glyph glyph-name="u1F147" unicode="X&#x20de;" horiz-adv-x="3912" 
d="M180 -832q-168 0 -242 88t-46 256l500 3024q29 168 131.5 256t270.5 88h3024q168 0 241 -88t45 -256l-500 -3024q-29 -168 -130.5 -256t-269.5 -88h-3024zM183 -656h3069q71 0 115.5 38.5t57.5 110.5l508 3069q11 69 -18.5 105.5t-98.5 36.5h-3070q-71 0 -116.5 -39
t-57.5 -110l-508 -3069q-12 -69 19 -105.5t100 -36.5zM1594 2048l420 -889h13l713 889h223l-827 -1024l487 -1024h-219l-420 879h-13l-713 -879h-224l841 1024l-501 1024h220z" />
    <glyph glyph-name="u1F148" unicode="Y&#x20de;" horiz-adv-x="3912" 
d="M180 -832q-168 0 -242 88t-46 256l500 3024q29 168 131.5 256t270.5 88h3024q168 0 241 -88t45 -256l-500 -3024q-29 -168 -130.5 -256t-269.5 -88h-3024zM183 -656h3069q71 0 115.5 38.5t57.5 110.5l508 3069q11 69 -18.5 105.5t-98.5 36.5h-3070q-71 0 -116.5 -39
t-57.5 -110l-508 -3069q-12 -69 19 -105.5t100 -36.5zM1335 2048h213l447 -972h20l767 972h217l-932 -1161l-147 -887h-186l146 887z" />
    <glyph glyph-name="u1F149" unicode="Z&#x20de;" horiz-adv-x="3912" 
d="M180 -832q-168 0 -242 88t-46 256l500 3024q29 168 131.5 256t270.5 88h3024q168 0 241 -88t45 -256l-500 -3024q-29 -168 -130.5 -256t-269.5 -88h-3024zM183 -656h3069q71 0 115.5 38.5t57.5 110.5l508 3069q11 69 -18.5 105.5t-98.5 36.5h-3070q-71 0 -116.5 -39
t-57.5 -110l-508 -3069q-12 -69 19 -105.5t100 -36.5zM1148 0l25 141l1423 1739h-1140l26 168h1366l-22 -141l-1426 -1739h1146l-28 -168h-1370z" />
    <glyph glyph-name="u1F850" unicode="&#x3c;&#x2014;&#x2014;&#x2014;" horiz-adv-x="7552" 
d="M1046 0l-748 896l1046 896l109 -125l-804 -687h6585l-29 -168h-6620l588 -706z" />
    <glyph glyph-name="u1F852" unicode="&#x2d;&#x2014;&#x2014;&#x3e;" horiz-adv-x="7552" 
d="M6250 0l-109 125l804 687h-6585l29 168h6620l-588 706l127 106l748 -896z" />
    <glyph glyph-name="uni27F5.case" unicode="&#xe097;&#x2014;&#x2014;" horiz-adv-x="3776" 
d="M1068 128l-748 896l1046 896l109 -125l-804 -687h2809l-29 -168h-2844l588 -706z" />
    <glyph glyph-name="u1F850.case" unicode="&#xe097;&#x2014;&#x2014;&#x2014;" horiz-adv-x="7552" 
d="M1067 128l-748 896l1046 896l109 -125l-804 -687h6585l-29 -168h-6620l588 -706z" />
    <glyph glyph-name="uni27F8.case" unicode="&#xe097;&#x3d;&#x3d;" horiz-adv-x="3776" 
d="M1066 128l-748 896l1046 896l109 -125l-541 -462h2582l-27 -168h-2752l-186 -159l103 -123h2788l-28 -168h-2620l401 -481z" />
    <glyph glyph-name="uni2192.case" unicode="&#x2d;&#xe098;" horiz-adv-x="2688" 
d="M1406 128l-109 125l804 687h-1721l29 168h1756l-588 706l127 106l748 -896z" />
    <glyph glyph-name="uni27F6.case" unicode="&#x2d;&#xe089;&#xe098;" horiz-adv-x="3776" 
d="M2792 1920l748 -896l-1046 -896l-109 125l804 687h-2809l29 168h2844l-588 706z" />
    <glyph glyph-name="u1F852.case" unicode="&#x2d;&#x2014;&#x2014;&#xe098;" horiz-adv-x="7552" 
d="M6271 128l-109 125l804 687h-6585l29 168h6620l-588 706l127 106l748 -896z" />
    <glyph glyph-name="uni21D2.case" unicode="&#x3d;&#xe098;" horiz-adv-x="2688" 
d="M1406 128l-107 127l539 460h-1496l28 168h1665l186 159l-103 123h-1701l27 168h1534l-401 481l127 106l748 -896z" />
    <glyph glyph-name="uni27F9.case" unicode="&#x3d;&#x3d;&#xe098;" horiz-adv-x="3776" 
d="M2494 128l-107 127l539 460h-2584l28 168h2753l186 159l-103 123h-2789l27 168h2622l-401 481l127 106l748 -896z" />
    <glyph glyph-name="uni21D4.case" unicode="&#xe097;&#x3d;&#x3e;" horiz-adv-x="3776" 
d="M2496 128l-107 127l539 460h-2134l401 -481l-127 -106l-748 896l1046 896l109 -125l-541 -462h2134l-401 481l127 106l748 -896zM654 883h2471l186 159l-103 123h-2471l-186 -159z" />
    <glyph glyph-name="uni27FA.case" unicode="&#xe097;&#x3d;&#x3d;&#x3e;" horiz-adv-x="4928" 
d="M3648 128l-107 127l539 460h-3286l401 -481l-127 -106l-748 896l1046 896l109 -125l-541 -462h3286l-401 481l127 106l748 -896zM654 883h3623l186 159l-103 123h-3623l-186 -159z" />
    <glyph glyph-name=".notdef" horiz-adv-x="2748" 
d="M211 1472l-18 512h2282l17 -512h-2281zM233 768l-16 512h2280l18 -512h-2282zM280 -640l-16 512h2280l17 -512h-2281zM257 64l-17 512h2281l16 -512h-2280zM188 2176l-17 512h2281l16 -512h-2280z" />
    <glyph glyph-name=".null" 
 />
    <glyph glyph-name="nonmarkingreturn" horiz-adv-x="938" 
 />
    <glyph glyph-name="uni0020" unicode=" " horiz-adv-x="792" 
 />
    <glyph glyph-name="uni0021" unicode="!" horiz-adv-x="768" 
d="M697 2048l-256 -1461h-176l230 1461h202zM276 -15q-60 0 -100.5 42t-40.5 102q0 59 43.5 100.5t103.5 41.5q59 0 101 -42t40 -100q-2 -60 -45 -102t-102 -42z" />
    <glyph glyph-name="uni0022" unicode="&#x22;" horiz-adv-x="1077" 
d="M599 2048l-114 -683h-168l114 683h168zM1068 2048l-114 -683h-168l114 683h168z" />
    <glyph glyph-name="uni0023" unicode="#" horiz-adv-x="1779" 
d="M1028 0l107 591h-565l-107 -591h-155l107 591h-327l28 154h327l102 558h-326l28 154h326l107 591h155l-107 -591h565l107 591h155l-107 -591h327l-28 -154h-327l-102 -558h326l-28 -154h-326l-107 -591h-155zM598 745h565l102 558h-565z" />
    <glyph glyph-name="uni0024" unicode="$" horiz-adv-x="1772" 
d="M653 -256l37 223q-281 15 -428.5 163t-125.5 382h192q-14 -164 94 -261.5t296 -112.5l139 836l-82 25q-481 148 -420 521q26 152 123 274t243 194t318 86l38 230h131l-38 -229q261 -15 403 -166.5t118 -383.5h-182q6 167 -91.5 267.5t-275.5 114.5l-131 -790l81 -24
q83 -25 149.5 -52.5t135.5 -74.5t112 -103t63 -138.5t4 -180.5q-41 -241 -237.5 -400t-497.5 -177l-37 -223h-131zM849 139q208 17 353.5 128.5t172.5 279.5q13 76 -7 136.5t-72.5 105t-120.5 76.5t-166 62l-28 9zM887 1155l124 750q-187 -19 -317 -122.5t-155 -254.5
q-10 -62 5 -116t46.5 -92.5t81.5 -71t100.5 -54t112.5 -39.5h2z" />
    <glyph glyph-name="uni0025" unicode="%" horiz-adv-x="2251" 
d="M1200 380l16 93q28 176 151 292t296 116q115 0 192 -54.5t106 -146t10 -207.5l-16 -93q-29 -176 -150.5 -292t-293.5 -116q-115 0 -193 54.5t-107.5 146.5t-10.5 207zM367 1575l14 93q28 176 151 292t295 116q173 0 255 -115.5t54 -292.5l-15 -93q-31 -177 -151.5 -292.5
t-292.5 -115.5q-173 0 -257 115.5t-53 292.5zM208 0l1686 2048h187l-1687 -2048h-186zM539 1668l-15 -93q-22 -118 23.5 -195t152.5 -77q104 0 173 76.5t91 195.5l15 93q19 120 -25 196t-150 76q-104 0 -175 -77t-90 -195zM1373 473l-16 -93q-20 -119 24.5 -195.5
t151.5 -76.5q104 0 174 77t90 195l16 93q20 119 -23.5 195.5t-149.5 76.5q-104 0 -175.5 -77t-91.5 -195z" />
    <glyph glyph-name="uni0026" unicode="&#x26;" horiz-adv-x="1748" 
d="M651 -28q-185 0 -316.5 73t-187.5 200.5t-29 287.5q14 85 52 159.5t104.5 143t145.5 128t194 132.5l21 14q-28 42 -45.5 69.5t-39.5 64.5t-35 63.5t-27.5 59.5t-21.5 61t-12.5 60t-4.5 64t6 65q32 197 187.5 325.5t363.5 128.5q207 0 316 -122.5t79 -301.5
q-22 -135 -108.5 -242.5t-246.5 -213.5l-167 -111l394 -613q121 167 168 378l173 -2q-59 -298 -252 -515l211 -328h-216l-126 194q-117 -106 -273 -164t-307 -58zM1145 327l-421 649l-94 -63q-161 -106 -240 -204t-91 -176q-27 -166 76.5 -284t293.5 -117q259 2 476 195z
M792 1214l155 103q127 80 191.5 154t80.5 176q17 107 -47 186.5t-183 79.5q-125 0 -231 -91.5t-124 -206.5q-3 -18 -3.5 -36.5t2.5 -38t6.5 -36.5t12 -38.5t15 -37t20 -40t22 -39.5t25.5 -42.5t26.5 -43t29.5 -45.5q2 -2 2 -4z" />
    <glyph glyph-name="uni0027" unicode="'" horiz-adv-x="608" 
d="M599 2048l-114 -683h-168l114 683h168z" />
    <glyph glyph-name="uni0028" unicode="(" horiz-adv-x="976" 
d="M325 864q117 703 564 1280h162q-186 -236 -335 -586.5t-207 -693.5q-56 -349 -23 -695.5t141 -584.5h-162q-256 585 -140 1280z" />
    <glyph glyph-name="uni0029" unicode=")" horiz-adv-x="976" 
d="M683 864q-117 -703 -564 -1280h-162q186 236 335 586.5t207 693.5q56 349 23 695.5t-141 584.5h162q256 -585 140 -1280z" />
    <glyph glyph-name="uni002A" unicode="*" horiz-adv-x="1408" 
d="M649 896l91 467l-436 -244l-56 130l447 224l-375 222l93 130l362 -245l66 468h150l-88 -467l433 244l59 -130l-447 -224l375 -222l-94 -130l-361 245l-69 -468h-150z" />
    <glyph glyph-name="uni002B" unicode="+" horiz-adv-x="1835" 
d="M732 167l90 548h-547l29 170h547l90 548h172l-90 -548h548l-30 -170h-547l-90 -548h-172z" />
    <glyph glyph-name="uni002C" unicode="," horiz-adv-x="767" 
d="M447 280l-38 -107q-51 -151 -135.5 -353.5t-141.5 -319.5h-137q10 31 56 160t89 258t79 250l34 112h194z" />
    <glyph glyph-name="uni002D" unicode="-" horiz-adv-x="1276" 
d="M1096 962l-28 -168h-852l28 168h852z" />
    <glyph glyph-name="uni002E" unicode="." horiz-adv-x="755" 
d="M269 -15q-60 0 -100.5 42t-40.5 102q0 59 43.5 100.5t103.5 41.5q59 0 101 -42t40 -100q-2 -60 -45 -102t-102 -42z" />
    <glyph glyph-name="uni002F" unicode="/" horiz-adv-x="973" 
d="M1128 2144l-1065 -2452h-166l1064 2452h167z" />
    <glyph glyph-name="uni0030" unicode="0" horiz-adv-x="1728" 
d="M731 -28q-215 0 -348 125t-172.5 359t12.5 568q81 494 307.5 773t548.5 279q321 0 457.5 -279.5t54.5 -772.5q-83 -497 -310 -774.5t-550 -277.5zM756 140q238 0 411 231.5t242 652.5q69 416 -24.5 651.5t-329.5 235.5t-409 -233t-242 -654q-69 -418 23 -651t329 -233z
" />
    <glyph glyph-name="uni0031" unicode="1" horiz-adv-x="1255" 
d="M1072 2048l-340 -2048h-187l307 1852h-12l-533 -319l33 194l537 321h195z" />
    <glyph glyph-name="uni0032" unicode="2" horiz-adv-x="1719" 
d="M100 0l24 137l792 752q249 236 348.5 365t122.5 267q28 174 -69 282t-278 108q-188 0 -326.5 -117.5t-169.5 -300.5h-179q28 167 129 300.5t252.5 208t322.5 74.5q168 0 290.5 -73.5t176 -200t27.5 -281.5q-29 -170 -147.5 -330t-423.5 -443l-601 -567l-3 -13h1013
l-28 -168h-1273z" />
    <glyph glyph-name="uni0033" unicode="3" horiz-adv-x="1771" 
d="M769 -28q-189 0 -330 67.5t-208.5 191t-45.5 281.5h187q-20 -167 91 -269.5t309 -102.5q213 0 374 117t190 302q28 183 -91.5 296t-359.5 113h-122l26 168h115q202 0 349.5 110.5t177.5 292.5q27 167 -62.5 269.5t-272.5 102.5q-120 0 -230 -45t-188 -132t-97 -198h-181
q29 156 132 280t253 192t318 68q177 0 302.5 -76t177 -200.5t26.5 -274.5q-27 -170 -141.5 -292t-286.5 -172v-10q189 -39 279 -178.5t57 -335.5q-41 -253 -248.5 -409t-499.5 -156z" />
    <glyph glyph-name="uni0034" unicode="4" horiz-adv-x="1764" 
d="M125 440l24 152l1155 1456h221l-239 -1440h274l-28 -168h-274l-73 -440h-178l73 440h-955zM1108 608l197 1185h-13l-929 -1172v-13h745z" />
    <glyph glyph-name="uni0035" unicode="5" horiz-adv-x="1677" 
d="M695 -28q-256 0 -401.5 152.5t-114.5 387.5h181q-17 -162 83.5 -267t275.5 -105q205 0 364.5 143.5t195.5 360.5q36 223 -77.5 366t-320.5 143q-100 0 -207 -34.5t-183 -89.5l-183 24l288 995h1012l-28 -168h-855l-196 -685h11q80 60 183 94.5t212 34.5q133 0 243 -50.5
t180.5 -139t98.5 -215.5t3 -272q-32 -192 -141 -346t-273 -241.5t-351 -87.5z" />
    <glyph glyph-name="uni0036" unicode="6" horiz-adv-x="1717" 
d="M752 -28q-89 1 -167 23t-149.5 70.5t-121 124.5t-82 184.5t-33 251t27.5 323.5q41 252 118.5 457.5t187 356t257 233.5t319.5 83q244 0 384.5 -149.5t130.5 -393.5h-179q3 172 -83 273.5t-257 101.5q-255 0 -438 -234t-256 -670l13 10q96 136 243 215t309 79
q129 0 237.5 -51.5t179.5 -140.5t101 -215.5t6 -270.5q-24 -135 -90 -256t-162.5 -211t-225.5 -142.5t-270 -51.5zM757 140q201 0 364.5 150.5t199.5 364.5q22 134 -18 245.5t-133.5 177t-221.5 65.5q-102 0 -201.5 -43t-176 -114.5t-127.5 -167.5t-60 -197
q-18 -211 84.5 -346t289.5 -135z" />
    <glyph glyph-name="uni0037" unicode="7" horiz-adv-x="1585" 
d="M159 0l1242 1867l3 13h-1075l28 168h1271l-31 -176l-1241 -1872h-197z" />
    <glyph glyph-name="uni0038" unicode="8" horiz-adv-x="1723" 
d="M740 -28q-147 0 -268 44.5t-198.5 121.5t-111.5 184t-14 227q31 187 169.5 332.5t318.5 179.5v8q-143 44 -211.5 178.5t-36.5 303.5q27 150 123.5 270t242.5 187.5t313 67.5q171 0 300 -71.5t189.5 -197t34.5 -278.5q-30 -167 -145.5 -292t-273.5 -168v-8
q111 -24 193 -101t118 -191t14 -241q-27 -158 -133.5 -285.5t-270.5 -199t-353 -71.5zM744 140q223 0 384.5 118t190.5 301q19 120 -26.5 215.5t-145 149t-235.5 53.5q-215 0 -382.5 -126.5t-197.5 -313.5q-28 -177 85 -287t327 -110zM908 1137q186 0 330 115t174 288
q28 167 -68.5 269t-278.5 102q-190 0 -331.5 -110.5t-169.5 -281.5q-28 -168 69.5 -275t274.5 -107z" />
    <glyph glyph-name="uni0039" unicode="9" horiz-adv-x="1717" 
d="M1053 2080q89 -1 167 -23t149.5 -70.5t121 -124.5t82 -184.5t33 -251t-26.5 -323.5q-42 -252 -119 -457.5t-187 -356.5t-257.5 -234t-319.5 -83q-244 0 -384.5 150t-130.5 394h179q-2 -173 83.5 -274.5t256.5 -101.5q255 0 438.5 234t256.5 671l-14 -10
q-95 -136 -242.5 -215t-309.5 -79q-129 0 -237.5 51.5t-180 140.5t-101 216t-5.5 270q24 135 90 256t162.5 211t225.5 142.5t270 51.5zM1048 1912q-201 0 -365 -150.5t-199 -364.5q-22 -134 18 -245.5t133.5 -177t221.5 -65.5q102 0 202 43t176.5 114.5t127.5 167.5t60 197
q18 210 -85 345.5t-290 135.5z" />
    <glyph glyph-name="uni003A" unicode=":" horiz-adv-x="755" 
d="M461 1146q-60 0 -100.5 42t-40.5 102q0 59 43.5 100.5t103.5 41.5q59 0 101 -42t40 -100q-2 -60 -45 -102t-102 -42zM277 38q-60 0 -100.5 42t-40.5 102q0 59 43.5 100.5t103.5 41.5q59 0 101 -42t40 -100q-2 -60 -45 -102t-102 -42z" />
    <glyph glyph-name="uni003B" unicode=";" horiz-adv-x="768" 
d="M447 280l-38 -107q-51 -151 -135.5 -353.5t-141.5 -319.5h-137q10 31 56 160t89 258t79 250l34 112h194zM469 1146q-60 0 -100.5 42t-40.5 102q0 59 43.5 100.5t103.5 41.5q59 0 101 -42t40 -100q-2 -60 -45 -102t-102 -42z" />
    <glyph glyph-name="uni003C" unicode="&#x3c;" horiz-adv-x="1835" 
d="M299 736l22 128l1335 675l-31 -196l-1085 -538l-2 -12l907 -536l-33 -196z" />
    <glyph glyph-name="uni003D" unicode="=" horiz-adv-x="1835" 
d="M292 431l28 165h1139l-28 -165h-1139zM387 1004l28 165h1138l-28 -165h-1138z" />
    <glyph glyph-name="uni003E" unicode="&#x3e;" horiz-adv-x="1835" 
d="M1556 736l-1335 -675l34 196l1083 538l1 12l-904 536l30 196l1114 -675z" />
    <glyph glyph-name="uni003F" unicode="?" horiz-adv-x="1401" 
d="M515 587l10 62q20 115 52.5 199t84 147.5t108.5 108t145 95.5q130 77 201 159t88 199q24 161 -64.5 260t-248.5 99q-103 0 -196.5 -43.5t-164 -131.5t-94.5 -205h-189q32 162 129.5 285.5t237 189t298.5 65.5q164 0 280.5 -69t166.5 -189t26 -269q-25 -157 -112 -264.5
t-252 -203.5q-150 -88 -218 -180t-96 -252l-11 -62h-181zM533 -15q-60 0 -100.5 42t-40.5 102q0 59 43.5 100.5t103.5 41.5q59 0 101 -42t40 -100q-2 -60 -45 -102t-102 -42z" />
    <glyph glyph-name="uni0040" unicode="@" horiz-adv-x="2636" 
d="M1155 -541q-377 0 -631 154.5t-356 439.5t-39 667q46 279 172 512.5t311 396t426.5 252.5t513.5 90q132 0 250.5 -24.5t214 -70t177.5 -110t140.5 -143.5t102.5 -171.5t63.5 -194t24 -210t-15.5 -220.5q-20 -121 -50 -227t-80 -209t-114 -176t-156 -118t-201 -45
q-58 0 -109 14t-93.5 43t-64.5 80.5t-17 119.5h-11q-69 -117 -191 -189.5t-279 -68.5q-99 2 -179.5 37t-134 96.5t-87 145.5t-38.5 184t12 214q29 178 124.5 323t232.5 230t290 95q151 9 257 -51.5t128 -157.5h11l32 184h162l-156 -930q-33 -222 138 -222q160 0 260.5 157.5
t153.5 472.5q16 112 14.5 218.5t-30.5 205.5t-75 185.5t-119 157.5t-162.5 121.5t-205.5 78.5t-248 28q-309 0 -569 -138t-432 -390t-225 -581q-56 -335 31 -585t306.5 -386t546.5 -136q151 0 312.5 41.5t263.5 93.5l30 -140q-125 -62 -300.5 -103t-331.5 -41zM1188 208
q202 0 334 138.5t174 389.5q40 245 -47 366.5t-281 121.5q-179 0 -318.5 -142.5t-173.5 -345.5q-23 -145 1 -262t103.5 -191.5t207.5 -74.5z" />
    <glyph glyph-name="uni0041" unicode="A" horiz-adv-x="1848" 
d="M147 0h-196l1085 2048h200l405 -2048h-196l-117 617h-858zM558 785h739l-193 1020h-13z" />
    <glyph glyph-name="uni0042" unicode="B" horiz-adv-x="1823" 
d="M144 0l340 2048h691q147 0 255.5 -40.5t170 -112.5t83 -169.5t1.5 -213.5q-30 -182 -137.5 -294.5t-259.5 -152.5l-3 -16q75 -5 140.5 -42.5t113 -101t67 -160t1.5 -208.5q-41 -243 -228.5 -390t-505.5 -147h-729zM359 168h542q228 0 363 101t164 268q28 179 -78.5 299.5
t-308.5 120.5h-550zM519 1123h521q180 0 310.5 109.5t156.5 279.5q29 168 -63 268t-297 100h-504z" />
    <glyph glyph-name="uni0043" unicode="C" horiz-adv-x="2044" 
d="M1979 1408h-186q-7 214 -153.5 353t-379.5 139q-148 0 -287 -59t-254.5 -169t-199.5 -280t-118 -379q-34 -211 -7.5 -373t104 -271t193.5 -165t261 -56q241 0 438 138.5t277 353.5h188q-50 -141 -138.5 -263t-205 -212t-263.5 -141.5t-305 -51.5q-195 0 -348.5 75
t-248 214t-130 335t6.5 439q39 235 136.5 430.5t235 329t312 207.5t365.5 74q161 0 294 -51.5t222 -141.5t139 -212t52 -263z" />
    <glyph glyph-name="uni0044" unicode="D" horiz-adv-x="2020" 
d="M749 0h-605l340 2048h631q291 0 482 -123t264.5 -355.5t19.5 -550.5q-80 -482 -376 -750.5t-756 -268.5zM359 168h400q387 0 632 231.5t312 640.5q67 401 -89 620.5t-527 219.5h-444z" />
    <glyph glyph-name="uni0045" unicode="E" horiz-adv-x="1671" 
d="M144 0l340 2048h1188l-28 -168h-1001l-128 -771h938l-28 -168h-938l-128 -773h1021l-28 -168h-1208z" />
    <glyph glyph-name="uni0046" unicode="F" horiz-adv-x="1651" 
d="M144 0l340 2048h1185l-28 -168h-998l-128 -771h905l-28 -168h-905l-156 -941h-187z" />
    <glyph glyph-name="uni0047" unicode="G" horiz-adv-x="2088" 
d="M1792 1408q-8 84 -32.5 157t-68 135t-103.5 106t-143.5 69t-184.5 25q-144 0 -281.5 -58.5t-253.5 -166.5t-201.5 -276.5t-119.5 -374.5q-68 -410 83.5 -643t469.5 -233q184 0 344.5 81.5t272 236t147.5 358.5h-597l31 168h777l-31 -168q-41 -258 -178.5 -452.5
t-340.5 -297t-442 -102.5q-266 0 -447 128.5t-252 367.5t-18 556q38 237 135 434.5t235.5 332.5t314 210t367.5 75q164 0 299 -53.5t223 -145.5t136.5 -212.5t50.5 -256.5h-192z" />
    <glyph glyph-name="uni0048" unicode="H" horiz-adv-x="2080" 
d="M144 0l340 2048h187l-156 -939h1162l156 939h187l-340 -2048h-187l156 941h-1162l-156 -941h-187z" />
    <glyph glyph-name="uni0049" unicode="I" horiz-adv-x="731" 
d="M671 2048l-340 -2048h-187l340 2048h187z" />
    <glyph glyph-name="uni004A" unicode="J" horiz-adv-x="1507" 
d="M1260 2048h187l-246 -1483q-48 -292 -218.5 -442.5t-423.5 -150.5q-245 0 -381.5 131.5t-102.5 344.5h178q-20 -139 67.5 -223.5t244.5 -84.5q173 0 294.5 110.5t157.5 325.5z" />
    <glyph glyph-name="uni004B" unicode="K" horiz-adv-x="1801" 
d="M144 0l340 2048h187l-183 -1103h19l1182 1103h246l-1031 -947l687 -1101h-228l-596 971l-324 -306l-112 -665h-187z" />
    <glyph glyph-name="uni004C" unicode="L" horiz-adv-x="1584" 
d="M144 0l340 2048h187l-312 -1880h976l-28 -168h-1163z" />
    <glyph glyph-name="uni004D" unicode="M" horiz-adv-x="2480" 
d="M484 2048h216l448 -1784h19l1037 1784h216l-340 -2048h-176l276 1653h-16l-967 -1653h-170l-415 1653h-16l-276 -1653h-176z" />
    <glyph glyph-name="uni004E" unicode="N" horiz-adv-x="2139" 
d="M2079 2048l-340 -2048h-182l-925 1715h-16l-285 -1715h-187l340 2048h181l928 -1717h16l286 1717h184z" />
    <glyph glyph-name="uni004F" unicode="O" horiz-adv-x="2131" 
d="M1991 1013q-39 -235 -136.5 -430t-234.5 -329t-311 -208t-365 -74q-196 0 -349.5 75t-248 214t-129.5 335.5t6 438.5q40 235 137.5 430t235 329t312 208t365.5 74q194 0 347 -75t247.5 -214t130 -335t-6.5 -439zM1812 1035q34 205 9 366t-98.5 272t-190 169t-265.5 58
q-154 0 -295.5 -61t-256.5 -173t-197.5 -280t-116.5 -373t-9 -366t98.5 -272t190.5 -169t267 -58q207 0 386 104.5t306.5 307.5t171.5 475z" />
    <glyph glyph-name="uni0050" unicode="P" horiz-adv-x="1759" 
d="M144 0l340 2048h661q212 0 349 -83.5t186.5 -224.5t19.5 -324q-22 -135 -84 -249.5t-157 -200.5t-229.5 -134.5t-292.5 -48.5h-476l-130 -783h-187zM489 951h471q233 0 377.5 128t178.5 337q34 211 -67.5 337.5t-336.5 126.5h-469z" />
    <glyph glyph-name="uni0051" unicode="Q" horiz-adv-x="2157" 
d="M1991 1013q-44 -267 -161.5 -480t-290.5 -350l282 -375h-208l-212 282q-211 -118 -457 -118q-196 0 -349.5 75t-248 214t-129.5 335.5t6 438.5q40 235 137.5 430t235 329t312 208t365.5 74q194 0 347 -75t247.5 -214t130 -335t-6.5 -439zM985 640h208l240 -317
q144 116 243 297.5t136 414.5q34 205 9 366t-98.5 272t-190 169t-265.5 58q-154 0 -295.5 -61t-256.5 -173t-197.5 -280t-116.5 -373t-9 -366t98.5 -272t190.5 -169t267 -58q184 0 347 84z" />
    <glyph glyph-name="uni0052" unicode="R" horiz-adv-x="1777" 
d="M144 0l340 2048h661q160 0 278.5 -45t186.5 -126.5t92 -193.5t2 -248q-35 -207 -159.5 -356t-323.5 -211l330 -868h-214l-310 831q-40 -3 -82 -3h-477l-137 -828h-187zM497 999h472q236 0 376.5 115.5t174.5 320.5q34 208 -68.5 326.5t-339.5 118.5h-469z" />
    <glyph glyph-name="uni0053" unicode="S" horiz-adv-x="1772" 
d="M1509 1525q7 180 -106.5 282t-317.5 102q-213 0 -366 -107.5t-180 -273.5q-10 -62 5 -116t46.5 -92.5t81.5 -71t100.5 -54t112.5 -39.5l207 -62q83 -25 149.5 -52.5t135.5 -74.5t112 -103t63 -138.5t4 -180.5q-21 -125 -87 -231t-167.5 -183t-243.5 -121t-307 -44
q-309 0 -474 150.5t-141 396.5h192q-15 -177 111 -276.5t340 -99.5q232 0 399 114t197 297q13 76 -7 136.5t-72.5 105t-120.5 76.5t-166 62l-234 72q-481 148 -420 521q28 163 137.5 291t272.5 197t352 69q284 0 442 -154t132 -398h-182z" />
    <glyph glyph-name="uni0054" unicode="T" horiz-adv-x="1781" 
d="M332 1880l28 168h1485l-28 -168h-649l-312 -1880h-187l312 1880h-649z" />
    <glyph glyph-name="uni0055" unicode="U" horiz-adv-x="2096" 
d="M1849 2048h187l-224 -1356q-35 -208 -159 -373t-317.5 -259.5t-420.5 -94.5t-388.5 94.5t-231 260t-35.5 372.5l224 1356h187l-223 -1343q-26 -162 24 -290t172 -201t297 -73q265 0 455.5 158.5t230.5 405.5z" />
    <glyph glyph-name="uni0056" unicode="V" horiz-adv-x="1848" 
d="M487 2048l341 -1805h19l938 1805h196l-1085 -2048h-200l-405 2048h196z" />
    <glyph glyph-name="uni0057" unicode="W" horiz-adv-x="2619" 
d="M500 0l-221 2048h190l171 -1761h16l757 1761h216l172 -1761h16l756 1761h192l-901 -2048h-201l-186 1737h-13l-764 -1737h-200z" />
    <glyph glyph-name="uni0058" unicode="X" horiz-adv-x="1755" 
d="M515 2048l420 -889h13l713 889h223l-827 -1024l487 -1024h-219l-420 879h-13l-713 -879h-224l841 1024l-501 1024h220z" />
    <glyph glyph-name="uni0059" unicode="Y" horiz-adv-x="1824" 
d="M292 2048h213l447 -972h20l767 972h217l-932 -1161l-147 -887h-186l146 887z" />
    <glyph glyph-name="uni005A" unicode="Z" horiz-adv-x="1741" 
d="M63 0l25 141l1423 1739h-1140l26 168h1366l-22 -141l-1426 -1739h1146l-28 -168h-1370z" />
    <glyph glyph-name="uni005B" unicode="[" horiz-adv-x="976" 
d="M143 -416l424 2560h512l-26 -152h-341l-373 -2256h341l-25 -152h-512z" />
    <glyph glyph-name="uni005C" unicode="\" horiz-adv-x="945" 
d="M199 2048h185l409 -2356h-185z" />
    <glyph glyph-name="uni005D" unicode="]" horiz-adv-x="976" 
d="M865 2144l-424 -2560h-512l26 152h341l373 2256h-341l25 152h512z" />
    <glyph glyph-name="uni005E" unicode="^" horiz-adv-x="1256" 
d="M177 1120l552 864h198l269 -864h-176l-208 688h-10l-435 -688h-190z" />
    <glyph glyph-name="uni005F" unicode="_" horiz-adv-x="1249" 
d="M1125 0l-29 -185h-1260l31 185h1258z" />
    <glyph glyph-name="uni0060" unicode="`" horiz-adv-x="1400" 
d="M931 1749l-230 454h210l178 -454h-158z" />
    <glyph glyph-name="uni0061" unicode="a" horiz-adv-x="1567" 
d="M532 -35q-217 0 -340.5 124.5t-90.5 339.5q15 89 55.5 158.5t98 117t140 81.5t171 54t201.5 33q225 28 254 33q121 22 155 73q13 19 17 44l6 36q26 159 -49.5 248.5t-246.5 89.5q-158 0 -281.5 -70t-186.5 -175l-158 61q52 91 126.5 159t159.5 107.5t173 58.5t180 19
q53 0 103 -7t103 -23t95 -42.5t80 -66t58 -93.5t28.5 -124t-8.5 -158l-174 -1043h-178l41 243h-11q-46 -73 -115 -133t-177 -102.5t-229 -42.5zM577 128q208 0 359.5 133.5t183.5 327.5l37 222q-61 -52 -414 -94q-210 -25 -325.5 -93.5t-137.5 -202.5q-23 -137 60 -215
t237 -78z" />
    <glyph glyph-name="uni0062" unicode="b" horiz-adv-x="1727" 
d="M144 0l340 2048h179l-132 -805h16q35 59 78 108.5t106 99t150 78t187 28.5q187 0 315 -99t177.5 -279.5t10.5 -414.5q-39 -235 -148 -416.5t-269 -280.5t-347 -99q-330 0 -420 317h-22l-48 -285h-173zM448 767q-30 -187 0 -329.5t122.5 -224.5t238.5 -82q149 0 272.5 85
t202 227.5t108.5 323.5q24 133 10 247.5t-56.5 199t-125 133t-195.5 48.5q-221 0 -376 -173.5t-201 -454.5z" />
    <glyph glyph-name="uni0063" unicode="c" horiz-adv-x="1567" 
d="M703 -32q-204 0 -342 103t-190.5 282.5t-14.5 407.5q28 172 102 319.5t179.5 252.5t241.5 164.5t285 59.5q231 0 371.5 -131.5t136.5 -345.5h-180q-7 138 -99 226.5t-250 88.5q-224 0 -393.5 -174.5t-214.5 -453.5q-48 -282 59.5 -459t332.5 -177q155 0 280.5 85.5
t181.5 231.5h180q-69 -213 -250 -346.5t-416 -133.5z" />
    <glyph glyph-name="uni0064" unicode="d" horiz-adv-x="1729" 
d="M659 -32q-188 0 -315.5 99t-176.5 280t-10 417q59 355 271 574t495 219q332 0 418 -314h16l134 805h178l-340 -2048h-173l48 285h-21q-195 -317 -524 -317zM697 131q220 0 378.5 176.5t205.5 459.5q31 185 -0.5 326t-126 221.5t-241.5 80.5q-113 0 -211.5 -48t-171 -133
t-122 -199t-71.5 -248q-25 -134 -12 -250.5t54.5 -202t123.5 -134.5t194 -49z" />
    <glyph glyph-name="uni0065" unicode="e" horiz-adv-x="1637" 
d="M724 -32q-212 0 -354.5 100.5t-197.5 279.5t-16 411q38 230 153 412t285.5 284t366.5 102q128 0 234.5 -45.5t184.5 -139t106 -235.5t-1 -334l-14 -88h-1145q-45 -286 65.5 -435t357.5 -149q156 0 275 70.5t185 181.5l159 -55q-82 -155 -252.5 -257.5t-391.5 -102.5z
M353 872h962q25 147 -13.5 266t-134 188t-230.5 69q-132 0 -256.5 -74t-210 -193t-117.5 -256z" />
    <glyph glyph-name="uni0066" unicode="f" horiz-adv-x="988" 
d="M995 1536l-26 -155h-341l-229 -1381h-179l230 1381h-235l25 155h236l36 216q28 177 164 279t304 102q108 0 183 -33l-76 -156q-71 21 -119 21q-116 0 -190 -64.5t-95 -185.5l-30 -179h342z" />
    <glyph glyph-name="uni0067" unicode="g" horiz-adv-x="1692" 
d="M597 -608q-225 0 -363.5 84t-188.5 224l162 95q93 -243 409 -243q211 0 353.5 105.5t177.5 313.5l54 346h-16q-34 -58 -78.5 -107.5t-107.5 -95t-149 -72t-185 -26.5q-281 0 -422.5 204t-83.5 552q38 231 146 409.5t269 277t349 98.5q329 0 420 -314h18l48 293h174
l-260 -1576q-24 -143 -89.5 -253t-162.5 -178t-216.5 -102.5t-257.5 -34.5zM705 179q222 0 376 159t200 437q30 181 -1.5 320.5t-126.5 219.5t-242 80q-113 0 -211.5 -48t-170.5 -132.5t-121 -196.5t-71 -243q-29 -178 1 -311t123.5 -209t243.5 -76z" />
    <glyph glyph-name="uni0068" unicode="h" horiz-adv-x="1643" 
d="M444 960l-159 -960h-178l340 2048h178l-124 -753h16q74 123 201 192t298 69q239 0 357 -146t74 -415l-167 -995h-179l164 984q31 189 -55 299t-265 110q-187 0 -326.5 -117.5t-174.5 -315.5z" />
    <glyph glyph-name="uni0069" unicode="i" horiz-adv-x="653" 
d="M109 0l256 1536h179l-256 -1536h-179zM519 1803q-56 0 -95 38.5t-37 92.5q2 51 41.5 88t93.5 37q56 0 94.5 -38.5t37.5 -92.5q-2 -51 -41.5 -88t-93.5 -37z" />
    <glyph glyph-name="uni006A" unicode="j" horiz-adv-x="653" 
d="M365 1536h179l-279 -1685q-33 -198 -161.5 -312.5t-322.5 -114.5q-26 0 -41 1l29 167h38q110 0 184.5 68.5t95.5 190.5zM514 1800q-56 0 -95 38.5t-37 92.5q2 51 41.5 88t93.5 37q56 0 94.5 -38.5t37.5 -92.5q-2 -51 -41.5 -88t-93.5 -37z" />
    <glyph glyph-name="uni006B" unicode="k" horiz-adv-x="1479" 
d="M107 0l340 2048h178l-205 -1233h21l839 721h228l-768 -660l552 -876h-225l-478 761l-205 -166l-99 -595h-178z" />
    <glyph glyph-name="uni006C" unicode="l" horiz-adv-x="648" 
d="M625 2048l-340 -2048h-178l340 2048h178z" />
    <glyph glyph-name="uni006D" unicode="m" horiz-adv-x="2416" 
d="M107 0l256 1536h173l-40 -236h16q67 120 186.5 188t269.5 68q304 0 368 -279h13q73 130 204.5 204.5t297.5 74.5q216 0 316.5 -136.5t57.5 -390.5l-172 -1029h-178l172 1029q28 179 -45.5 271.5t-229.5 92.5q-173 0 -288.5 -106t-143.5 -276l-169 -1011h-182l175 1045
q25 159 -45.5 253.5t-226.5 94.5q-161 0 -287.5 -115.5t-155.5 -293.5l-164 -984h-178z" />
    <glyph glyph-name="uni006E" unicode="n" horiz-adv-x="1632" 
d="M444 960l-159 -960h-178l256 1536h173l-40 -241h16q74 121 202.5 191t293.5 70q236 0 354 -147t74 -414l-167 -995h-178l164 984q31 189 -54.5 299t-263.5 110q-184 0 -321 -117.5t-172 -315.5z" />
    <glyph glyph-name="uni006F" unicode="o" horiz-adv-x="1664" 
d="M712 -32q-200 0 -339.5 102t-196 286t-17.5 419q38 229 151 407.5t280.5 276.5t360.5 98q200 0 339.5 -102t196 -286.5t18.5 -420.5q-38 -228 -151 -405.5t-280.5 -276t-361.5 -98.5zM715 131q158 0 290.5 88t215 232.5t111.5 323.5q14 102 11 194t-32 170t-76.5 135
t-121 89t-164.5 32q-119 0 -225 -51.5t-184.5 -140.5t-132.5 -206t-75 -249q-28 -171 4 -309.5t130 -223t249 -84.5z" />
    <glyph glyph-name="uni0070" unicode="p" horiz-adv-x="1687" 
d="M8 -576l352 2112h173l-48 -293h22q191 314 521 314q141 0 250 -57t173.5 -161.5t87.5 -250.5t-8 -324q-39 -235 -148.5 -416.5t-269.5 -280.5t-346 -99q-330 0 -420 317h-16l-144 -861h-179zM408 767q-30 -187 0 -329.5t123 -224.5t238 -82q149 0 272.5 85t202 227.5
t108.5 323.5q29 180 0 320t-123 224t-244 84q-221 0 -376 -173.5t-201 -454.5z" />
    <glyph glyph-name="uni0071" unicode="q" horiz-adv-x="1694" 
d="M1246 -576h-179l141 861h-16q-36 -60 -80.5 -110.5t-108 -100t-150.5 -78t-186 -28.5q-186 0 -313.5 99t-176.5 280.5t-10 416.5q59 356 270 574.5t496 218.5q328 0 417 -314h22l49 293h173zM1291 767q31 185 -0.5 326t-126.5 221.5t-242 80.5q-150 0 -272 -84t-197 -224
t-106 -320q-30 -181 1 -323.5t126.5 -227.5t244.5 -85q218 0 371 175.5t201 460.5z" />
    <glyph glyph-name="uni0072" unicode="r" horiz-adv-x="1007" 
d="M107 0l256 1536h173l-40 -236h13q65 116 192 187.5t272 71.5q70 0 94 -3l-31 -181q-80 10 -107 10q-180 0 -315.5 -111t-164.5 -282l-164 -992h-178z" />
    <glyph glyph-name="uni0073" unicode="s" horiz-adv-x="1444" 
d="M1339 1199l-171 -44q-48 245 -315 245q-157 0 -269.5 -75.5t-131.5 -192.5q-16 -97 41 -158.5t194 -96.5l224 -57q371 -96 320 -408q-32 -195 -211.5 -319.5t-431.5 -124.5q-228 0 -357 102.5t-138 293.5l179 40q8 -136 93.5 -206t241.5 -70q175 0 297 80t141 201
q33 189 -209 248l-239 60q-379 97 -326 412q21 125 106 222.5t215.5 151.5t283.5 54q400 0 463 -358z" />
    <glyph glyph-name="uni0074" unicode="t" horiz-adv-x="1009" 
d="M968 1536l-25 -155h-327l-163 -980q-22 -134 33.5 -192t158.5 -58q43 0 106 14l13 -161q-81 -27 -165 -27q-75 0 -140 25t-113.5 71.5t-70 120.5t-6.5 165l169 1022h-229l26 155h228l61 368h179l-61 -368h326z" />
    <glyph glyph-name="uni0075" unicode="u" horiz-adv-x="1624" 
d="M1180 587l159 949h178l-256 -1536h-178l42 255h-13q-75 -123 -208 -199t-296 -76q-227 0 -341.5 147t-70.5 414l167 995h178l-164 -984q-28 -179 58.5 -289t253.5 -110q79 0 158 29t147.5 82t118.5 137t67 186z" />
    <glyph glyph-name="uni0076" unicode="v" horiz-adv-x="1536" 
d="M1552 1536l-817 -1536h-190l-305 1536h185l240 -1301h13l673 1301h201z" />
    <glyph glyph-name="uni0077" unicode="w" horiz-adv-x="2267" 
d="M448 0l-208 1536h187l153 -1267h13l574 1267h189l149 -1264h14l574 1264h190l-720 -1536h-184l-156 1257h-19l-572 -1257h-184z" />
    <glyph glyph-name="uni0078" unicode="x" horiz-adv-x="1483" 
d="M471 1536l288 -655l506 655h208l-624 -771l366 -765h-205l-290 633l-501 -633h-210l618 769l-360 767h204z" />
    <glyph glyph-name="uni0079" unicode="y" horiz-adv-x="1537" 
d="M137 -575q-101 0 -167 32l75 158q129 -45 226 4t189 217l84 156l-304 1544h185l240 -1304h13l673 1304h201l-945 -1777q-176 -334 -470 -334z" />
    <glyph glyph-name="uni007A" unicode="z" horiz-adv-x="1493" 
d="M59 0l25 141l1087 1214l2 13h-848l28 168h1079l-25 -147l-1070 -1208l-2 -13h901l-28 -168h-1149z" />
    <glyph glyph-name="uni007B" unicode="{" horiz-adv-x="976" 
d="M701 -416q-253 0 -340.5 119t-44.5 381l63 388q28 168 -25.5 234.5t-221.5 66.5h-4l29 182h4q169 0 246 66.5t105 234.5l63 388q43 262 169.5 381t380.5 119l-25 -152q-166 0 -248 -81.5t-112 -266.5l-73 -441q-14 -91 -44 -153t-91.5 -108.5t-156.5 -68.5l-3 -18
q127 -32 166 -112t17 -218l-74 -441q-31 -185 24 -266.5t222 -81.5z" />
    <glyph glyph-name="uni007C" unicode="|" horiz-adv-x="869" 
d="M833 2708l-557 -3368h-155l557 3368h155z" />
    <glyph glyph-name="uni007D" unicode="}" horiz-adv-x="976" 
d="M307 2144q253 0 340.5 -119t44.5 -381l-63 -388q-28 -168 25.5 -234.5t221.5 -66.5h4l-29 -182h-4q-169 0 -246 -66.5t-105 -234.5l-63 -388q-43 -262 -169.5 -381t-380.5 -119l25 152q166 0 248 81.5t112 266.5l73 441q14 91 44 153t91.5 108.5t156.5 68.5l3 18
q-127 32 -166 112t-17 218l74 441q31 185 -24 266.5t-222 81.5z" />
    <glyph glyph-name="uni007E" unicode="~" horiz-adv-x="1835" 
d="M219 629q38 199 159.5 299t284.5 100q96 0 169 -39t164 -124q66 -60 111 -85t101 -25q94 0 162 61.5t94 172.5l164 -5q-39 -196 -159 -292t-278 -96q-92 0 -162 38.5t-158 122.5q-61 58 -111.5 82t-115.5 24q-97 0 -167 -60t-93 -176z" />
    <glyph glyph-name="uni00A0" unicode="&#xa0;" horiz-adv-x="792" 
 />
    <glyph glyph-name="uni00A1" unicode="&#xa1;" horiz-adv-x="768" 
d="M71 -520l256 1461h176l-230 -1461h-202zM492 1543q60 0 100.5 -42t40.5 -102q0 -59 -43.5 -100.5t-103.5 -41.5q-59 0 -101 42t-40 100q2 60 45 102t102 42z" />
    <glyph glyph-name="uni00A2" unicode="&#xa2;" horiz-adv-x="1567" 
d="M585 -256l38 228q-178 20 -296.5 127t-162 278.5t-8.5 383.5q53 324 253 542t474 249l38 228h131l-37 -225q210 -15 335.5 -144.5t121.5 -330.5h-180q-6 127 -86 213.5t-218 99.5l-208 -1259q138 14 248 98t161 216h180q-65 -201 -231 -332t-385 -146l-37 -226h-131z
M650 137l206 1251q-195 -34 -338 -202.5t-183 -418.5q-44 -256 41.5 -427.5t273.5 -202.5z" />
    <glyph glyph-name="uni00A3" unicode="&#xa3;" horiz-adv-x="1776" 
d="M1389 0h-1320l28 168h88q46 0 85 32.5t65 84.5t43 108.5t25 113.5l42 308h-246l30 173h239l64 467q15 117 60.5 218.5t112 174.5t149.5 125t175 77.5t187 25.5q104 0 194.5 -31.5t151.5 -86t98.5 -127.5t37 -156t-33.5 -172l-167 48q26 80 11.5 146t-57.5 113
t-109.5 72.5t-145.5 25.5q-113 0 -213.5 -50t-176 -155t-98.5 -248l-63 -467h494l-31 -173h-486l-41 -308q-30 -233 -143 -339h979z" />
    <glyph glyph-name="uni00A4" unicode="&#xa4;" horiz-adv-x="1997" 
d="M859 -28q-144 0 -266.5 50t-212.5 142l-205 -180l-123 160l210 184q-113 225 -66 508q49 298 251 527l-158 198l176 159l159 -197q244 173 519 173q282 0 472 -179l229 203l128 -159l-234 -203q127 -229 78 -522q-46 -282 -235 -506l152 -186l-180 -160l-144 182
q-256 -194 -550 -194zM892 179q162 0 314 89t256.5 240.5t134.5 327.5q30 178 -25 329.5t-178.5 239.5t-285.5 88q-121 0 -240 -52t-213 -140.5t-161.5 -210t-89.5 -254.5q-30 -176 25 -327.5t178.5 -240.5t284.5 -89z" />
    <glyph glyph-name="uni00A5" unicode="&#xa5;" horiz-adv-x="1520" 
d="M467 2048l328 -1013h20l662 1013h208l-720 -1059h383l-23 -141h-456l-1 -1h-1l-34 -207h458l-23 -141h-459l-84 -499h-186l83 499h-458l23 141h459l35 208h-2l-3 -1v1h-455l23 141h383l-368 1059h208z" />
    <glyph glyph-name="uni00A6" unicode="&#xa6;" horiz-adv-x="674" 
d="M217 545h167l-156 -929h-167zM632 2048l-155 -925h-166l154 925h167z" />
    <glyph glyph-name="uni00A7" unicode="&#xa7;" horiz-adv-x="1532" 
d="M1381 1588h-173q21 145 -43.5 236t-211.5 91q-139 0 -232 -79.5t-113 -187.5q-9 -52 4.5 -98.5t46 -85t67 -67t81.5 -58.5l285 -186q65 -43 104.5 -75.5t91 -90t70.5 -131t5 -159.5q-20 -118 -126.5 -218t-235.5 -124v-4q87 -76 116 -158t12 -182q-16 -103 -69.5 -185.5
t-131.5 -134.5t-172.5 -79.5t-196.5 -27.5q-231 0 -356.5 134.5t-91.5 358.5h176q-22 -152 61.5 -241t238.5 -89q139 0 244 70t125 194q2 29 4 51t-6 45.5t-15 41t-24 37t-31.5 34.5t-38 33.5t-44.5 33t-50 33.5l-284 183q-34 21 -61.5 40.5t-57.5 44t-52 48t-44.5 52.5
t-34.5 58t-23 64.5t-10 72t5 80.5q21 122 123 225t236 123l1 8q-143 146 -114 329q32 184 185.5 306t359.5 122q216 0 324.5 -135.5t76.5 -352.5zM1195 697q9 51 -5.5 98t-49.5 86.5t-71.5 69t-87.5 62.5l-297 194q-103 30 -204.5 -45t-122.5 -199q-15 -95 40 -167t179 -153
l279 -179q58 -19 132.5 5t134.5 86t73 142z" />
    <glyph glyph-name="uni00A8" unicode="&#xa8;" horiz-adv-x="1728" 
d="M1301 1800q-55 0 -90.5 42.5t-25.5 98.5q9 49 48.5 82t86.5 33q60 0 94.5 -41t24.5 -100q-8 -48 -47.5 -81.5t-90.5 -33.5zM789 1800q-54 0 -89 42.5t-27 98.5q7 48 47.5 81.5t87.5 33.5q60 0 94 -40.5t25 -100.5q-8 -46 -47.5 -80.5t-90.5 -34.5z" />
    <glyph glyph-name="uni00A9" unicode="&#xa9;" horiz-adv-x="2576" 
d="M1157 -32q-143 0 -274 37.5t-235 106.5t-186.5 165.5t-130 213.5t-65 252t9.5 281q36 215 152 410.5t281 337t374 225t423 83.5q144 0 275 -37.5t234.5 -106.5t186 -165t129.5 -213.5t64.5 -252.5t-7.5 -281q-28 -172 -108 -333t-199 -291t-265 -227.5t-316.5 -151
t-342.5 -53.5zM1182 144q144 0 287 44.5t265 126.5t222 190.5t166.5 243.5t89.5 278q29 179 -13.5 341.5t-140.5 280t-248.5 186.5t-329.5 69t-353.5 -70t-312 -188.5t-235 -282.5t-128.5 -343q-30 -177 12.5 -339t140 -279.5t248.5 -187.5t330 -70zM752 1024
q27 161 129 298t252 216.5t311 79.5q200 0 330.5 -119.5t138.5 -303.5h-185q-13 112 -91 179.5t-205 67.5q-175 0 -325 -121t-179 -297q-18 -110 17.5 -206t118.5 -154t195 -58q127 0 238 69t162 178h185q-69 -186 -233.5 -304.5t-362.5 -118.5q-121 0 -223 47t-168.5 126.5
t-95.5 189.5t-9 231z" />
    <glyph glyph-name="uni00AA" unicode="&#xaa;" horiz-adv-x="1228" 
d="M839 1066q-123 -114 -291 -114q-162 0 -238.5 84.5t-52.5 227.5q25 155 157 238t363 83h141l11 67q12 89 -19.5 132.5t-110.5 43.5q-91 0 -147.5 -35.5t-67.5 -100.5l-229 21q24 140 154.5 229.5t321.5 89.5q182 0 273.5 -97.5t62.5 -282.5l-72 -432q-25 -133 -10 -247
h-241q-5 36 -5 93zM890 1425h-141q-112 0 -175.5 -43.5t-73.5 -108.5q-9 -59 24 -89.5t115 -30.5q53 0 114.5 24t104.5 59z" />
    <glyph glyph-name="uni00AB" unicode="&#xab;" horiz-adv-x="1507" 
d="M679 220h-164l-304 600l2 8h-2l4 20l502 600h166l-494 -617zM1191 220h-164l-304 600l2 8h-2l4 20l502 600h166l-494 -617z" />
    <glyph glyph-name="uni00AC" unicode="&#xac;" horiz-adv-x="1482" 
d="M1368 1108l-18 -108h2l-80 -484h-275l59 356h-865l40 236h1137z" />
    <glyph glyph-name="uni00AD" unicode="&#xad;" horiz-adv-x="1276" 
d="M1096 962l-28 -168h-852l28 168h852z" />
    <glyph glyph-name="uni00AE" unicode="&#xae;" horiz-adv-x="1888" 
d="M1028 476q-163 0 -311 63.5t-255 170.5t-170.5 255t-63.5 311t63 311t170 255t255.5 170.5t311.5 63.5q162 0 310.5 -63.5t256 -170.5t170.5 -255t63 -311t-63.5 -311t-171 -255t-255.5 -170.5t-310 -63.5zM1028 625q132 0 253 51.5t208 138.5t138.5 207.5t51.5 253.5
t-52 253.5t-139 207.5t-207.5 138.5t-252.5 51.5q-133 0 -253.5 -51.5t-207.5 -138.5t-138.5 -207.5t-51.5 -253.5t51 -253.5t138 -207.5t208 -138.5t254 -51.5zM698 916l122 738h355q89 0 149.5 -62.5t42.5 -168.5q-13 -72 -57.5 -127.5t-105.5 -86.5l108 -293h-143
l-94 265h-204l-44 -265h-129zM888 1282h184q54 0 99.5 38t55.5 103q9 65 -23 97.5t-85 32.5h-186z" />
    <glyph glyph-name="uni00AF" unicode="&#xaf;" horiz-adv-x="1117" 
d="M1182 2003l-25 -155h-838l26 155h837z" />
    <glyph glyph-name="uni00B0" unicode="&#xb0;" horiz-adv-x="1280" 
d="M781 1177q-91 0 -173.5 35.5t-142 95t-95 142t-35.5 173.5q0 184 130.5 314.5t315.5 130.5q121 0 223.5 -59.5t162 -162t59.5 -223.5q0 -185 -130.5 -315.5t-314.5 -130.5zM781 1332q121 0 205.5 85t84.5 206t-84.5 205.5t-205.5 84.5t-206 -84.5t-85 -205.5t85 -206
t206 -85z" />
    <glyph glyph-name="uni00B1" unicode="&#xb1;" horiz-adv-x="1835" 
d="M321 923l28 170h538l73 443h171l-73 -443h537l-28 -170h-538l-73 -443h-171l73 443h-537zM188 128l28 171h1245l-28 -171h-1245z" />
    <glyph glyph-name="uni00B2" unicode="&#xb2;" horiz-adv-x="1173" 
d="M191 1024l18 120l532 431q151 122 213.5 193.5t74.5 150.5q16 95 -47 155.5t-177 60.5q-115 0 -201.5 -65t-102.5 -166h-162q26 158 160 261t321 103q185 0 284.5 -101.5t75.5 -253.5q-18 -110 -97 -205.5t-278 -254.5l-353 -285v-7h653l-22 -137h-892z" />
    <glyph glyph-name="uni00B3" unicode="&#xb3;" horiz-adv-x="1191" 
d="M643 1008q-201 0 -316 97.5t-92 250.5h165q-14 -92 56.5 -150t192.5 -58q132 0 229.5 65.5t113.5 159.5q17 101 -60.5 159.5t-226.5 58.5h-78l18 126h75q130 0 222.5 61.5t106.5 150.5q17 93 -37.5 149.5t-174.5 56.5q-115 0 -208.5 -59.5t-109.5 -152.5h-159
q18 102 87.5 181t172 121.5t219.5 42.5q189 0 291 -96t78 -245q-35 -211 -299 -264v-7q134 -23 201.5 -105t49.5 -198q-26 -153 -170.5 -249t-346.5 -96z" />
    <glyph glyph-name="uni00B4" unicode="&#xb4;" horiz-adv-x="1400" 
d="M757 1749l330 454h211l-381 -454h-160z" />
    <glyph glyph-name="uni00B5" unicode="&#xb5;" horiz-adv-x="1710" 
d="M5 -583l355 2119h172l-153 -916q-33 -204 70 -330t307 -126t348 126t177 330l154 916h173l-256 -1536h-179l40 232h-12q-89 -125 -216.5 -193.5t-263.5 -67.5q-133 -1 -237 67.5t-149 193.5h-12l-139 -815h-179z" />
    <glyph glyph-name="uni00B6" unicode="&#xb6;" horiz-adv-x="1645" 
d="M1060 0l312 1880h-229l-184 -1120h-116q-213 0 -354.5 84t-195 228.5t-22.5 331.5q24 139 88.5 256t163 203.5t235.5 135.5t297 49h532l-340 -2048h-187z" />
    <glyph glyph-name="uni00B7" unicode="&#xb7;" horiz-adv-x="755" 
d="M396 753q-60 0 -100.5 42t-40.5 102q0 59 43.5 100.5t103.5 41.5q59 0 101 -42t40 -100q-2 -60 -45 -102t-102 -42z" />
    <glyph glyph-name="uni00B8" unicode="&#xb8;" horiz-adv-x="693" 
d="M150 8h152l-31 -80q92 -15 139.5 -73t29.5 -162q-21 -123 -127.5 -193.5t-285.5 -71.5l16 125q213 3 234 135q12 73 -33.5 105t-161.5 38z" />
    <glyph glyph-name="uni00B9" unicode="&#xb9;" horiz-adv-x="844" 
d="M475 1024l176 1060h-10l-341 -203l29 166l342 205h168l-204 -1228h-160z" />
    <glyph glyph-name="uni00BA" unicode="&#xba;" horiz-adv-x="1230" 
d="M256 1436l16 109q37 215 187.5 351t364.5 136q216 0 321.5 -135.5t69.5 -351.5l-16 -109q-37 -216 -185 -349.5t-362 -133.5q-218 0 -325 134t-71 349zM509 1545l-16 -109q-21 -128 27.5 -206t163.5 -78q112 0 183.5 78t93.5 206l16 109q22 126 -24.5 204.5t-160.5 78.5
q-112 0 -186 -78.5t-97 -204.5z" />
    <glyph glyph-name="uni00BB" unicode="&#xbb;" horiz-adv-x="1513" 
d="M119 220l494 615l-290 613h162l306 -600l-2 -8h2l-4 -20l-503 -600h-165zM638 220l494 615l-290 613h162l306 -600l-2 -8h2l-4 -20l-503 -600h-165z" />
    <glyph glyph-name="uni00BC" unicode="&#xbc;" horiz-adv-x="2388" 
d="M1310 212l22 127l661 749h197l-123 -744h151l-20 -132h-153l-35 -212h-157l37 212h-580zM242 0l1686 2048h187l-1687 -2048h-186zM408 960l153 920h-11l-303 -182l26 167l307 183h168l-180 -1088h-160zM1915 344l94 559h-5l-502 -555v-4h413z" />
    <glyph glyph-name="uni00BD" unicode="&#xbd;" horiz-adv-x="2517" 
d="M242 0l1686 2048h187l-1687 -2048h-186zM1451 0l22 117l482 375q128 101 184.5 163.5t67.5 129.5q14 81 -41.5 135.5t-158.5 54.5q-100 0 -176.5 -56.5t-92.5 -142.5h-156q23 142 145.5 235t294.5 93q171 0 261.5 -92t69.5 -233q-15 -96 -88.5 -183.5t-250.5 -220.5
l-305 -236v-7h585l-23 -132h-820zM408 960l153 920h-11l-303 -182l26 167l307 183h168l-180 -1088h-160z" />
    <glyph glyph-name="uni00BE" unicode="&#xbe;" horiz-adv-x="2640" 
d="M1562 212l22 127l661 749h197l-123 -744h151l-20 -132h-153l-35 -212h-157l37 212h-580zM494 0l1686 2048h187l-1687 -2048h-186zM576 944q-180 0 -290 88t-86 229h160q-12 -81 51.5 -131.5t168.5 -50.5q116 0 202 59t100 139q13 83 -57 131.5t-197 48.5h-70l16 118h65
q115 0 198 53t97 139q13 74 -37.5 121t-149.5 47q-104 0 -186 -52t-95 -131h-154q21 135 146 223.5t290 88.5q177 0 269 -89.5t70 -219.5q-14 -93 -89 -152t-183 -76v-7q125 -22 185.5 -94t42.5 -186q-21 -122 -154 -209t-313 -87zM2167 344l94 559h-5l-502 -555v-4h413z
" />
    <glyph glyph-name="uni00BF" unicode="&#xbf;" horiz-adv-x="1401" 
d="M888 950l-10 -62q-20 -115 -52.5 -199t-84 -147.5t-108.5 -108t-145 -95.5q-130 -77 -201 -159t-88 -199q-24 -161 64.5 -260t248.5 -99q103 0 196.5 43.5t164 131.5t94.5 205h189q-32 -162 -129.5 -285.5t-237 -189t-298.5 -65.5q-164 0 -280.5 69t-166.5 189t-26 269
q25 157 112 264.5t252 203.5q150 88 218 180t96 252l11 62h181zM870 1552q60 0 100.5 -42t40.5 -102q0 -59 -43.5 -100.5t-103.5 -41.5q-59 0 -101 42t-40 100q2 60 45 102t102 42z" />
    <glyph glyph-name="uni00C0" unicode="&#xc0;" horiz-adv-x="1848" 
d="M147 0h-196l1085 2048h200l405 -2048h-196l-117 617h-858zM558 785h739l-193 1020h-13zM1098 2261l-230 454h210l178 -454h-158z" />
    <glyph glyph-name="uni00C1" unicode="&#xc1;" horiz-adv-x="1848" 
d="M147 0h-196l1085 2048h200l405 -2048h-196l-117 617h-858zM558 785h739l-193 1020h-13zM1090 2261l330 454h211l-381 -454h-160z" />
    <glyph glyph-name="uni00C2" unicode="&#xc2;" horiz-adv-x="1848" 
d="M147 0h-196l1085 2048h200l405 -2048h-196l-117 617h-858zM558 785h739l-193 1020h-13zM926 2224h-175l2 14l407 402h149l270 -402l-1 -14h-175l-190 290z" />
    <glyph glyph-name="uni00C3" unicode="&#xc3;" horiz-adv-x="1848" 
d="M147 0h-196l1085 2048h200l405 -2048h-196l-117 617h-858zM558 785h739l-193 1020h-13zM839 2283l-142 8q26 132 122.5 217.5t217.5 85.5q55 0 103.5 -22t79 -48t75.5 -48t93 -22q61 0 114.5 44t68.5 109l137 -16q-27 -132 -123.5 -213.5t-215.5 -81.5q-50 0 -89.5 14.5
t-66.5 35t-52.5 41t-61 35t-79.5 14.5q-63 0 -114.5 -43.5t-66.5 -109.5z" />
    <glyph glyph-name="uni00C4" unicode="&#xc4;" horiz-adv-x="1848" 
d="M147 0h-196l1085 2048h200l405 -2048h-196l-117 617h-858zM558 785h739l-193 1020h-13zM1449 2312q-55 0 -90.5 42.5t-25.5 98.5q9 49 48.5 82t86.5 33q60 0 94.5 -41t24.5 -100q-8 -48 -47.5 -81.5t-90.5 -33.5zM937 2312q-54 0 -89 42.5t-27 98.5q7 48 47.5 81.5
t87.5 33.5q60 0 94 -40.5t25 -100.5q-8 -46 -47.5 -80.5t-90.5 -34.5z" />
    <glyph glyph-name="uni00C5" unicode="&#xc5;" horiz-adv-x="1848" 
d="M147 0h-196l1085 2048h200l405 -2048h-196l-117 617h-858zM558 785h739l-193 1020h-13zM1162 2172q-122 0 -196 83t-58 201q17 118 115.5 201t222.5 83t200.5 -83t56.5 -201q-21 -125 -115 -204.5t-226 -79.5zM1180 2295q68 0 125.5 47.5t64.5 113.5q8 71 -31.5 116
t-111.5 45q-65 0 -119.5 -48t-65.5 -113q-11 -68 29 -114.5t109 -46.5z" />
    <glyph glyph-name="uni00C6" unicode="&#xc6;" horiz-adv-x="2759" 
d="M-49 0l1349 2048h1460l-28 -168h-1001l-128 -771h938l-28 -168h-938l-128 -773h1021l-28 -168h-1208l102 617h-776l-401 -617h-206zM668 785h694l182 1095h-164z" />
    <glyph glyph-name="uni00C7" unicode="&#xc7;" horiz-adv-x="2044" 
d="M1979 1408h-186q-7 214 -153.5 353t-379.5 139q-148 0 -287 -59t-254.5 -169t-199.5 -280t-118 -379q-34 -211 -7.5 -373t104 -271t193.5 -165t261 -56q241 0 438 138.5t277 353.5h188q-96 -274 -324.5 -459.5t-520.5 -206.5l-22 -57q92 -15 139.5 -73t29.5 -162
q-21 -123 -127.5 -193.5t-285.5 -71.5l16 125q213 3 234 135q12 73 -33.5 105t-161.5 38l60 156q-235 21 -396 155.5t-225.5 369t-14.5 534.5q39 235 136.5 430.5t235 329t312 207.5t365.5 74q161 0 294 -51.5t222 -141.5t139 -212t52 -263z" />
    <glyph glyph-name="uni00C8" unicode="&#xc8;" horiz-adv-x="1671" 
d="M144 0l340 2048h1188l-28 -168h-1001l-128 -771h938l-28 -168h-938l-128 -773h1021l-28 -168h-1208zM1039 2261l-230 454h210l178 -454h-158z" />
    <glyph glyph-name="uni00C9" unicode="&#xc9;" horiz-adv-x="1671" 
d="M144 0l340 2048h1188l-28 -168h-1001l-128 -771h938l-28 -168h-938l-128 -773h1021l-28 -168h-1208zM1031 2261l330 454h211l-381 -454h-160z" />
    <glyph glyph-name="uni00CA" unicode="&#xca;" horiz-adv-x="1671" 
d="M144 0l340 2048h1188l-28 -168h-1001l-128 -771h938l-28 -168h-938l-128 -773h1021l-28 -168h-1208zM868 2224h-175l2 14l407 402h149l270 -402l-1 -14h-175l-190 290z" />
    <glyph glyph-name="uni00CB" unicode="&#xcb;" horiz-adv-x="1671" 
d="M144 0l340 2048h1188l-28 -168h-1001l-128 -771h938l-28 -168h-938l-128 -773h1021l-28 -168h-1208zM1391 2312q-55 0 -90.5 42.5t-25.5 98.5q9 49 48.5 82t86.5 33q60 0 94.5 -41t24.5 -100q-8 -48 -47.5 -81.5t-90.5 -33.5zM879 2312q-54 0 -89 42.5t-27 98.5
q7 48 47.5 81.5t87.5 33.5q60 0 94 -40.5t25 -100.5q-8 -46 -47.5 -80.5t-90.5 -34.5z" />
    <glyph glyph-name="uni00CC" unicode="&#xcc;" horiz-adv-x="731" 
d="M671 2048l-340 -2048h-187l340 2048h187zM536 2261l-230 454h210l178 -454h-158z" />
    <glyph glyph-name="uni00CD" unicode="&#xcd;" horiz-adv-x="731" 
d="M671 2048l-340 -2048h-187l340 2048h187zM528 2261l330 454h211l-381 -454h-160z" />
    <glyph glyph-name="uni00CE" unicode="&#xce;" horiz-adv-x="731" 
d="M671 2048l-340 -2048h-187l340 2048h187zM365 2224h-175l2 14l407 402h149l270 -402l-1 -14h-175l-190 290z" />
    <glyph glyph-name="uni00CF" unicode="&#xcf;" horiz-adv-x="731" 
d="M671 2048l-340 -2048h-187l340 2048h187zM888 2312q-55 0 -90.5 42.5t-25.5 98.5q9 49 48.5 82t86.5 33q60 0 94.5 -41t24.5 -100q-8 -48 -47.5 -81.5t-90.5 -33.5zM376 2312q-54 0 -89 42.5t-27 98.5q7 48 47.5 81.5t87.5 33.5q60 0 94 -40.5t25 -100.5
q-8 -46 -47.5 -80.5t-90.5 -34.5z" />
    <glyph glyph-name="uni00D0" unicode="&#xd0;" horiz-adv-x="2020" 
d="M749 0h-605l163 979h-295l25 144h293l154 925h631q291 0 482 -123t264.5 -355.5t19.5 -550.5q-80 -482 -376 -750.5t-756 -268.5zM517 1123h360l-25 -144h-358l-135 -811h400q387 0 632 231.5t312 640.5q67 401 -89 620.5t-527 219.5h-444z" />
    <glyph glyph-name="uni00D1" unicode="&#xd1;" horiz-adv-x="2139" 
d="M2079 2048l-340 -2048h-182l-925 1715h-16l-285 -1715h-187l340 2048h181l928 -1717h16l286 1717h184zM982 2260l-142 8q26 132 122.5 217.5t217.5 85.5q55 0 103.5 -22t79 -48t75.5 -48t93 -22q61 0 114.5 44t68.5 109l137 -16q-27 -132 -123.5 -213.5t-215.5 -81.5
q-50 0 -89.5 14.5t-66.5 35t-52.5 41t-61 35t-79.5 14.5q-63 0 -114.5 -43.5t-66.5 -109.5z" />
    <glyph glyph-name="uni00D2" unicode="&#xd2;" horiz-adv-x="2131" 
d="M1991 1013q-39 -235 -136.5 -430t-234.5 -329t-311 -208t-365 -74q-196 0 -349.5 75t-248 214t-129.5 335.5t6 438.5q40 235 137.5 430t235 329t312 208t365.5 74q194 0 347 -75t247.5 -214t130 -335t-6.5 -439zM1812 1035q34 205 9 366t-98.5 272t-190 169t-265.5 58
q-154 0 -295.5 -61t-256.5 -173t-197.5 -280t-116.5 -373t-9 -366t98.5 -272t190.5 -169t267 -58q207 0 386 104.5t306.5 307.5t171.5 475zM1234 2261l-230 454h210l178 -454h-158z" />
    <glyph glyph-name="uni00D3" unicode="&#xd3;" horiz-adv-x="2131" 
d="M1991 1013q-39 -235 -136.5 -430t-234.5 -329t-311 -208t-365 -74q-196 0 -349.5 75t-248 214t-129.5 335.5t6 438.5q40 235 137.5 430t235 329t312 208t365.5 74q194 0 347 -75t247.5 -214t130 -335t-6.5 -439zM1812 1035q34 205 9 366t-98.5 272t-190 169t-265.5 58
q-154 0 -295.5 -61t-256.5 -173t-197.5 -280t-116.5 -373t-9 -366t98.5 -272t190.5 -169t267 -58q207 0 386 104.5t306.5 307.5t171.5 475zM1226 2261l330 454h211l-381 -454h-160z" />
    <glyph glyph-name="uni00D4" unicode="&#xd4;" horiz-adv-x="2131" 
d="M1991 1013q-39 -235 -136.5 -430t-234.5 -329t-311 -208t-365 -74q-196 0 -349.5 75t-248 214t-129.5 335.5t6 438.5q40 235 137.5 430t235 329t312 208t365.5 74q194 0 347 -75t247.5 -214t130 -335t-6.5 -439zM1812 1035q34 205 9 366t-98.5 272t-190 169t-265.5 58
q-154 0 -295.5 -61t-256.5 -173t-197.5 -280t-116.5 -373t-9 -366t98.5 -272t190.5 -169t267 -58q207 0 386 104.5t306.5 307.5t171.5 475zM1062 2224h-175l2 14l407 402h149l270 -402l-1 -14h-175l-190 290z" />
    <glyph glyph-name="uni00D5" unicode="&#xd5;" horiz-adv-x="2131" 
d="M1991 1013q-39 -235 -136.5 -430t-234.5 -329t-311 -208t-365 -74q-196 0 -349.5 75t-248 214t-129.5 335.5t6 438.5q40 235 137.5 430t235 329t312 208t365.5 74q194 0 347 -75t247.5 -214t130 -335t-6.5 -439zM1812 1035q34 205 9 366t-98.5 272t-190 169t-265.5 58
q-154 0 -295.5 -61t-256.5 -173t-197.5 -280t-116.5 -373t-9 -366t98.5 -272t190.5 -169t267 -58q207 0 386 104.5t306.5 307.5t171.5 475zM975 2283l-142 8q26 132 122.5 217.5t217.5 85.5q55 0 103.5 -22t79 -48t75.5 -48t93 -22q61 0 114.5 44t68.5 109l137 -16
q-27 -132 -123.5 -213.5t-215.5 -81.5q-50 0 -89.5 14.5t-66.5 35t-52.5 41t-61 35t-79.5 14.5q-63 0 -114.5 -43.5t-66.5 -109.5z" />
    <glyph glyph-name="uni00D6" unicode="&#xd6;" horiz-adv-x="2131" 
d="M1991 1013q-39 -235 -136.5 -430t-234.5 -329t-311 -208t-365 -74q-196 0 -349.5 75t-248 214t-129.5 335.5t6 438.5q40 235 137.5 430t235 329t312 208t365.5 74q194 0 347 -75t247.5 -214t130 -335t-6.5 -439zM1812 1035q34 205 9 366t-98.5 272t-190 169t-265.5 58
q-154 0 -295.5 -61t-256.5 -173t-197.5 -280t-116.5 -373t-9 -366t98.5 -272t190.5 -169t267 -58q207 0 386 104.5t306.5 307.5t171.5 475zM1585 2312q-55 0 -90.5 42.5t-25.5 98.5q9 49 48.5 82t86.5 33q60 0 94.5 -41t24.5 -100q-8 -48 -47.5 -81.5t-90.5 -33.5z
M1073 2312q-54 0 -89 42.5t-27 98.5q7 48 47.5 81.5t87.5 33.5q60 0 94 -40.5t25 -100.5q-8 -46 -47.5 -80.5t-90.5 -34.5z" />
    <glyph glyph-name="uni00D7" unicode="&#xd7;" horiz-adv-x="1835" 
d="M1326 179l-415 498l-581 -497l-108 125l583 499l-419 503l126 106l419 -502l586 501l107 -125l-588 -503l416 -499z" />
    <glyph glyph-name="uni00D8" unicode="&#xd8;" horiz-adv-x="2133" 
d="M404 -72l-117 81l123 169q-133 141 -182.5 359t-4.5 493q40 235 137.5 430t235 329t312 208t365.5 74q245 0 421 -118l119 164l116 -81l-126 -175q133 -140 183.5 -359t4.5 -494q-39 -235 -136.5 -430t-234.5 -329t-311 -208t-365 -74q-247 0 -426 119zM1812 1030
q36 227 4.5 396.5t-124.5 282.5l-1067 -1475q135 -91 323 -91q207 0 386 104.5t306.5 307.5t171.5 475zM520 331l1067 1474q-134 90 -320 90q-154 0 -295.5 -61t-256.5 -173t-197.5 -280t-116.5 -373q-35 -227 -4 -395.5t123 -281.5z" />
    <glyph glyph-name="uni00D9" unicode="&#xd9;" horiz-adv-x="2096" 
d="M1849 2048h187l-224 -1356q-35 -208 -159 -373t-317.5 -259.5t-420.5 -94.5t-388.5 94.5t-231 260t-35.5 372.5l224 1356h187l-223 -1343q-26 -162 24 -290t172 -201t297 -73q265 0 455.5 158.5t230.5 405.5zM1220 2261l-230 454h210l178 -454h-158z" />
    <glyph glyph-name="uni00DA" unicode="&#xda;" horiz-adv-x="2096" 
d="M1849 2048h187l-224 -1356q-35 -208 -159 -373t-317.5 -259.5t-420.5 -94.5t-388.5 94.5t-231 260t-35.5 372.5l224 1356h187l-223 -1343q-26 -162 24 -290t172 -201t297 -73q265 0 455.5 158.5t230.5 405.5zM1212 2261l330 454h211l-381 -454h-160z" />
    <glyph glyph-name="uni00DB" unicode="&#xdb;" horiz-adv-x="2096" 
d="M1849 2048h187l-224 -1356q-35 -208 -159 -373t-317.5 -259.5t-420.5 -94.5t-388.5 94.5t-231 260t-35.5 372.5l224 1356h187l-223 -1343q-26 -162 24 -290t172 -201t297 -73q265 0 455.5 158.5t230.5 405.5zM1049 2224h-175l2 14l407 402h149l270 -402l-1 -14h-175
l-190 290z" />
    <glyph glyph-name="uni00DC" unicode="&#xdc;" horiz-adv-x="2096" 
d="M1849 2048h187l-224 -1356q-35 -208 -159 -373t-317.5 -259.5t-420.5 -94.5t-388.5 94.5t-231 260t-35.5 372.5l224 1356h187l-223 -1343q-26 -162 24 -290t172 -201t297 -73q265 0 455.5 158.5t230.5 405.5zM1572 2312q-55 0 -90.5 42.5t-25.5 98.5q9 49 48.5 82
t86.5 33q60 0 94.5 -41t24.5 -100q-8 -48 -47.5 -81.5t-90.5 -33.5zM1060 2312q-54 0 -89 42.5t-27 98.5q7 48 47.5 81.5t87.5 33.5q60 0 94 -40.5t25 -100.5q-8 -46 -47.5 -80.5t-90.5 -34.5z" />
    <glyph glyph-name="uni00DD" unicode="&#xdd;" horiz-adv-x="1824" 
d="M292 2048h213l447 -972h20l767 972h217l-932 -1161l-147 -887h-186l146 887zM1078 2261l330 454h211l-381 -454h-160z" />
    <glyph glyph-name="uni00DE" unicode="&#xde;" horiz-adv-x="1738" 
d="M464 2048h185l-73 -440h427q152 0 269 -46t184.5 -124.5t93.5 -182.5t6 -222q-19 -118 -79 -222t-153 -183t-224.5 -125t-283.5 -46h-431l-76 -457h-185zM415 640h430q224 -1 362.5 98.5t171.5 290.5t-74.5 294t-331.5 104h-427z" />
    <glyph glyph-name="uni00DF" unicode="&#xdf;" horiz-adv-x="1665" 
d="M144 0l252 1529q27 167 120 292t229 190t296 65q243 0 371.5 -141.5t94.5 -377.5q-27 -181 -137 -300.5t-275 -176.5l-4 -20q196 -22 299 -153.5t69 -342.5q-40 -244 -226 -404t-445 -160h-209l29 177h236q171 1 293 105t148 269q27 173 -68.5 284.5t-283.5 112.5h-188
l31 188h136q80 0 153.5 33t128 88t91.5 126t50 146q16 104 -16 188t-112 134t-194 50q-166 1 -291 -98t-150 -252l-256 -1551h-172z" />
    <glyph glyph-name="uni00E0" unicode="&#xe0;" horiz-adv-x="1567" 
d="M532 -35q-217 0 -340.5 124.5t-90.5 339.5q15 89 55.5 158.5t98 117t140 81.5t171 54t201.5 33q225 28 254 33q121 22 155 73q13 19 17 44l6 36q26 159 -49.5 248.5t-246.5 89.5q-158 0 -281.5 -70t-186.5 -175l-158 61q52 91 126.5 159t159.5 107.5t173 58.5t180 19
q53 0 103 -7t103 -23t95 -42.5t80 -66t58 -93.5t28.5 -124t-8.5 -158l-174 -1043h-178l41 243h-11q-46 -73 -115 -133t-177 -102.5t-229 -42.5zM577 128q208 0 359.5 133.5t183.5 327.5l37 222q-61 -52 -414 -94q-210 -25 -325.5 -93.5t-137.5 -202.5q-23 -137 60 -215
t237 -78zM886 1749l-230 454h210l178 -454h-158z" />
    <glyph glyph-name="uni00E1" unicode="&#xe1;" horiz-adv-x="1567" 
d="M532 -35q-217 0 -340.5 124.5t-90.5 339.5q15 89 55.5 158.5t98 117t140 81.5t171 54t201.5 33q225 28 254 33q121 22 155 73q13 19 17 44l6 36q26 159 -49.5 248.5t-246.5 89.5q-158 0 -281.5 -70t-186.5 -175l-158 61q52 91 126.5 159t159.5 107.5t173 58.5t180 19
q53 0 103 -7t103 -23t95 -42.5t80 -66t58 -93.5t28.5 -124t-8.5 -158l-174 -1043h-178l41 243h-11q-46 -73 -115 -133t-177 -102.5t-229 -42.5zM577 128q208 0 359.5 133.5t183.5 327.5l37 222q-61 -52 -414 -94q-210 -25 -325.5 -93.5t-137.5 -202.5q-23 -137 60 -215
t237 -78zM878 1749l330 454h211l-381 -454h-160z" />
    <glyph glyph-name="uni00E2" unicode="&#xe2;" horiz-adv-x="1567" 
d="M532 -35q-217 0 -340.5 124.5t-90.5 339.5q15 89 55.5 158.5t98 117t140 81.5t171 54t201.5 33q225 28 254 33q121 22 155 73q13 19 17 44l6 36q26 159 -49.5 248.5t-246.5 89.5q-158 0 -281.5 -70t-186.5 -175l-158 61q52 91 126.5 159t159.5 107.5t173 58.5t180 19
q53 0 103 -7t103 -23t95 -42.5t80 -66t58 -93.5t28.5 -124t-8.5 -158l-174 -1043h-178l41 243h-11q-46 -73 -115 -133t-177 -102.5t-229 -42.5zM577 128q208 0 359.5 133.5t183.5 327.5l37 222q-61 -52 -414 -94q-210 -25 -325.5 -93.5t-137.5 -202.5q-23 -137 60 -215
t237 -78zM714 1712h-175l2 14l407 402h149l270 -402l-1 -14h-175l-190 290z" />
    <glyph glyph-name="uni00E3" unicode="&#xe3;" horiz-adv-x="1567" 
d="M532 -35q-217 0 -340.5 124.5t-90.5 339.5q15 89 55.5 158.5t98 117t140 81.5t171 54t201.5 33q225 28 254 33q121 22 155 73q13 19 17 44l6 36q26 159 -49.5 248.5t-246.5 89.5q-158 0 -281.5 -70t-186.5 -175l-158 61q52 91 126.5 159t159.5 107.5t173 58.5t180 19
q53 0 103 -7t103 -23t95 -42.5t80 -66t58 -93.5t28.5 -124t-8.5 -158l-174 -1043h-178l41 243h-11q-46 -73 -115 -133t-177 -102.5t-229 -42.5zM577 128q208 0 359.5 133.5t183.5 327.5l37 222q-61 -52 -414 -94q-210 -25 -325.5 -93.5t-137.5 -202.5q-23 -137 60 -215
t237 -78zM624 1748l-142 8q26 132 122.5 217.5t217.5 85.5q55 0 103.5 -22t79 -48t75.5 -48t93 -22q61 0 114.5 44t68.5 109l137 -16q-27 -132 -123.5 -213.5t-215.5 -81.5q-50 0 -89.5 14.5t-66.5 35t-52.5 41t-61 35t-79.5 14.5q-63 0 -114.5 -43.5t-66.5 -109.5z" />
    <glyph glyph-name="uni00E4" unicode="&#xe4;" horiz-adv-x="1567" 
d="M532 -35q-217 0 -340.5 124.5t-90.5 339.5q15 89 55.5 158.5t98 117t140 81.5t171 54t201.5 33q225 28 254 33q121 22 155 73q13 19 17 44l6 36q26 159 -49.5 248.5t-246.5 89.5q-158 0 -281.5 -70t-186.5 -175l-158 61q52 91 126.5 159t159.5 107.5t173 58.5t180 19
q53 0 103 -7t103 -23t95 -42.5t80 -66t58 -93.5t28.5 -124t-8.5 -158l-174 -1043h-178l41 243h-11q-46 -73 -115 -133t-177 -102.5t-229 -42.5zM577 128q208 0 359.5 133.5t183.5 327.5l37 222q-61 -52 -414 -94q-210 -25 -325.5 -93.5t-137.5 -202.5q-23 -137 60 -215
t237 -78zM1237 1800q-55 0 -90.5 42.5t-25.5 98.5q9 49 48.5 82t86.5 33q60 0 94.5 -41t24.5 -100q-8 -48 -47.5 -81.5t-90.5 -33.5zM725 1800q-54 0 -89 42.5t-27 98.5q7 48 47.5 81.5t87.5 33.5q60 0 94 -40.5t25 -100.5q-8 -46 -47.5 -80.5t-90.5 -34.5z" />
    <glyph glyph-name="uni00E5" unicode="&#xe5;" horiz-adv-x="1567" 
d="M532 -35q-217 0 -340.5 124.5t-90.5 339.5q15 89 55.5 158.5t98 117t140 81.5t171 54t201.5 33q225 28 254 33q121 22 155 73q13 19 17 44l6 36q26 159 -49.5 248.5t-246.5 89.5q-158 0 -281.5 -70t-186.5 -175l-158 61q52 91 126.5 159t159.5 107.5t173 58.5t180 19
q53 0 103 -7t103 -23t95 -42.5t80 -66t58 -93.5t28.5 -124t-8.5 -158l-174 -1043h-178l41 243h-11q-46 -73 -115 -133t-177 -102.5t-229 -42.5zM577 128q208 0 359.5 133.5t183.5 327.5l37 222q-61 -52 -414 -94q-210 -25 -325.5 -93.5t-137.5 -202.5q-23 -137 60 -215
t237 -78zM970 1715q-133 0 -215.5 87t-68.5 215q14 129 117.5 220t237.5 91q133 0 213 -90.5t67 -220.5q-13 -127 -114.5 -214.5t-236.5 -87.5zM986 1837q77 0 135 53.5t67 126.5q9 75 -38 130.5t-125 55.5q-77 0 -136 -55.5t-67 -130.5q-8 -72 39.5 -126t124.5 -54z" />
    <glyph glyph-name="uni00E6" unicode="&#xe6;" horiz-adv-x="2601" 
d="M1691 -32q-212 0 -351.5 97.5t-183.5 265.5q-85 -168 -258.5 -267t-365.5 -99q-217 0 -340.5 124.5t-90.5 339.5q15 89 55.5 158.5t98 117t140 81.5t171 54t201.5 33q225 28 254 33q121 22 155 73q13 19 17 44l6 36q26 158 -54 248t-252 90q-157 0 -276 -69t-182 -176
l-158 61q52 91 126.5 159t159.5 107.5t173 58.5t180 19q75 0 143.5 -15t131.5 -47t109.5 -90t66.5 -135q107 137 250.5 212t310.5 75q127 0 233.5 -45.5t184.5 -139t106.5 -235.5t-0.5 -334l-15 -88h-1144q-38 -266 77 -425t349 -159q154 0 272 70.5t185 181.5l159 -55
q-83 -155 -253.5 -257.5t-390.5 -102.5zM581 128q208 0 357.5 133.5t181.5 327.5l37 222q-61 -52 -414 -94q-210 -25 -325.5 -93.5t-137.5 -202.5q-23 -136 61.5 -214.5t239.5 -78.5zM1320 872h961q25 147 -14.5 266t-135.5 188t-231 69q-137 0 -259.5 -71.5t-205 -189.5
t-115.5 -262z" />
    <glyph glyph-name="uni00E7" unicode="&#xe7;" horiz-adv-x="1567" 
d="M768 -29l-17 -43q92 -15 139.5 -73t29.5 -162q-21 -123 -127.5 -193.5t-285.5 -71.5l16 125q213 3 234 135q12 73 -33.5 105t-161.5 38l55 142q-265 33 -390 250t-71 538q28 172 102 319.5t179.5 252.5t241.5 164.5t285 59.5q231 0 371.5 -131.5t136.5 -345.5h-180
q-7 138 -99 226.5t-250 88.5q-224 0 -393.5 -174.5t-214.5 -453.5q-48 -282 59.5 -459t332.5 -177q155 0 280.5 85.5t181.5 231.5h180q-64 -198 -226 -328t-375 -149z" />
    <glyph glyph-name="uni00E8" unicode="&#xe8;" horiz-adv-x="1637" 
d="M724 -32q-212 0 -354.5 100.5t-197.5 279.5t-16 411q38 230 153 412t285.5 284t366.5 102q128 0 234.5 -45.5t184.5 -139t106 -235.5t-1 -334l-14 -88h-1145q-45 -286 65.5 -435t357.5 -149q156 0 275 70.5t185 181.5l159 -55q-82 -155 -252.5 -257.5t-391.5 -102.5z
M353 872h962q25 147 -13.5 266t-134 188t-230.5 69q-132 0 -256.5 -74t-210 -193t-117.5 -256zM906 1749l-230 454h210l178 -454h-158z" />
    <glyph glyph-name="uni00E9" unicode="&#xe9;" horiz-adv-x="1637" 
d="M724 -32q-212 0 -354.5 100.5t-197.5 279.5t-16 411q38 230 153 412t285.5 284t366.5 102q128 0 234.5 -45.5t184.5 -139t106 -235.5t-1 -334l-14 -88h-1145q-45 -286 65.5 -435t357.5 -149q156 0 275 70.5t185 181.5l159 -55q-82 -155 -252.5 -257.5t-391.5 -102.5z
M353 872h962q25 147 -13.5 266t-134 188t-230.5 69q-132 0 -256.5 -74t-210 -193t-117.5 -256zM898 1749l330 454h211l-381 -454h-160z" />
    <glyph glyph-name="uni00EA" unicode="&#xea;" horiz-adv-x="1637" 
d="M724 -32q-212 0 -354.5 100.5t-197.5 279.5t-16 411q38 230 153 412t285.5 284t366.5 102q128 0 234.5 -45.5t184.5 -139t106 -235.5t-1 -334l-14 -88h-1145q-45 -286 65.5 -435t357.5 -149q156 0 275 70.5t185 181.5l159 -55q-82 -155 -252.5 -257.5t-391.5 -102.5z
M353 872h962q25 147 -13.5 266t-134 188t-230.5 69q-132 0 -256.5 -74t-210 -193t-117.5 -256zM734 1712h-175l2 14l407 402h149l270 -402l-1 -14h-175l-190 290z" />
    <glyph glyph-name="uni00EB" unicode="&#xeb;" horiz-adv-x="1637" 
d="M724 -32q-212 0 -354.5 100.5t-197.5 279.5t-16 411q38 230 153 412t285.5 284t366.5 102q128 0 234.5 -45.5t184.5 -139t106 -235.5t-1 -334l-14 -88h-1145q-45 -286 65.5 -435t357.5 -149q156 0 275 70.5t185 181.5l159 -55q-82 -155 -252.5 -257.5t-391.5 -102.5z
M353 872h962q25 147 -13.5 266t-134 188t-230.5 69q-132 0 -256.5 -74t-210 -193t-117.5 -256zM1257 1800q-55 0 -90.5 42.5t-25.5 98.5q9 49 48.5 82t86.5 33q60 0 94.5 -41t24.5 -100q-8 -48 -47.5 -81.5t-90.5 -33.5zM745 1800q-54 0 -89 42.5t-27 98.5q7 48 47.5 81.5
t87.5 33.5q60 0 94 -40.5t25 -100.5q-8 -46 -47.5 -80.5t-90.5 -34.5z" />
    <glyph glyph-name="uni00EC" unicode="&#xec;" horiz-adv-x="653" 
d="M109 0l256 1536h179l-256 -1536h-179zM416 1752l-230 454h210l178 -454h-158z" />
    <glyph glyph-name="uni00ED" unicode="&#xed;" horiz-adv-x="653" 
d="M109 0l256 1536h179l-256 -1536h-179zM408 1752l330 454h211l-381 -454h-160z" />
    <glyph glyph-name="uni00EE" unicode="&#xee;" horiz-adv-x="653" 
d="M109 0l256 1536h179l-256 -1536h-179zM245 1715h-175l2 14l407 402h149l270 -402l-1 -14h-175l-190 290z" />
    <glyph glyph-name="uni00EF" unicode="&#xef;" horiz-adv-x="653" 
d="M109 0l256 1536h179l-256 -1536h-179zM768 1803q-55 0 -90.5 42.5t-25.5 98.5q9 49 48.5 82t86.5 33q60 0 94.5 -41t24.5 -100q-8 -48 -47.5 -81.5t-90.5 -33.5zM256 1803q-54 0 -89 42.5t-27 98.5q7 48 47.5 81.5t87.5 33.5q60 0 94 -40.5t25 -100.5q-8 -46 -47.5 -80.5
t-90.5 -34.5z" />
    <glyph glyph-name="uni00F0" unicode="&#xf0;" horiz-adv-x="1639" 
d="M1545 1972l-334 -147q170 -212 246.5 -483.5t23.5 -589.5q-59 -367 -274 -575.5t-519 -208.5q-121 0 -220.5 35.5t-168 100.5t-112.5 156t-53.5 203t9.5 241q35 217 149 390t277.5 266t343.5 85q75 -2 139 -22.5t108 -51.5t79.5 -73t55.5 -81t34 -81h20
q-19 150 -88 312.5t-201 310.5l-388 -170l-28 126l319 140q-117 106 -263 186l99 135q181 -104 323 -251l391 172zM712 140q119 0 221 44t173.5 119.5t119 172.5t66.5 207q9 57 10 114.5t-7.5 117.5t-26.5 114t-50 102t-75 83t-104.5 55t-135.5 20q-119 0 -222 -50
t-174.5 -133.5t-119 -186.5t-66.5 -215q-13 -68 -10 -136.5t15 -131.5t44 -117t77 -93.5t113 -62.5t152 -23z" />
    <glyph glyph-name="uni00F1" unicode="&#xf1;" horiz-adv-x="1632" 
d="M444 960l-159 -960h-178l256 1536h173l-40 -241h16q74 121 202.5 191t293.5 70q236 0 354 -147t74 -414l-167 -995h-178l164 984q31 189 -54.5 299t-263.5 110q-184 0 -321 -117.5t-172 -315.5zM642 1748l-142 8q26 132 122.5 217.5t217.5 85.5q55 0 103.5 -22t79 -48
t75.5 -48t93 -22q61 0 114.5 44t68.5 109l137 -16q-27 -132 -123.5 -213.5t-215.5 -81.5q-50 0 -89.5 14.5t-66.5 35t-52.5 41t-61 35t-79.5 14.5q-63 0 -114.5 -43.5t-66.5 -109.5z" />
    <glyph glyph-name="uni00F2" unicode="&#xf2;" horiz-adv-x="1664" 
d="M712 -32q-200 0 -339.5 102t-196 286t-17.5 419q38 229 151 407.5t280.5 276.5t360.5 98q200 0 339.5 -102t196 -286.5t18.5 -420.5q-38 -228 -151 -405.5t-280.5 -276t-361.5 -98.5zM715 131q158 0 290.5 88t215 232.5t111.5 323.5q14 102 11 194t-32 170t-76.5 135
t-121 89t-164.5 32q-119 0 -225 -51.5t-184.5 -140.5t-132.5 -206t-75 -249q-28 -171 4 -309.5t130 -223t249 -84.5zM920 1749l-230 454h210l178 -454h-158z" />
    <glyph glyph-name="uni00F3" unicode="&#xf3;" horiz-adv-x="1664" 
d="M712 -32q-200 0 -339.5 102t-196 286t-17.5 419q38 229 151 407.5t280.5 276.5t360.5 98q200 0 339.5 -102t196 -286.5t18.5 -420.5q-38 -228 -151 -405.5t-280.5 -276t-361.5 -98.5zM715 131q158 0 290.5 88t215 232.5t111.5 323.5q14 102 11 194t-32 170t-76.5 135
t-121 89t-164.5 32q-119 0 -225 -51.5t-184.5 -140.5t-132.5 -206t-75 -249q-28 -171 4 -309.5t130 -223t249 -84.5zM912 1749l330 454h211l-381 -454h-160z" />
    <glyph glyph-name="uni00F4" unicode="&#xf4;" horiz-adv-x="1664" 
d="M712 -32q-200 0 -339.5 102t-196 286t-17.5 419q38 229 151 407.5t280.5 276.5t360.5 98q200 0 339.5 -102t196 -286.5t18.5 -420.5q-38 -228 -151 -405.5t-280.5 -276t-361.5 -98.5zM715 131q158 0 290.5 88t215 232.5t111.5 323.5q14 102 11 194t-32 170t-76.5 135
t-121 89t-164.5 32q-119 0 -225 -51.5t-184.5 -140.5t-132.5 -206t-75 -249q-28 -171 4 -309.5t130 -223t249 -84.5zM749 1712h-175l2 14l407 402h149l270 -402l-1 -14h-175l-190 290z" />
    <glyph glyph-name="uni00F5" unicode="&#xf5;" horiz-adv-x="1664" 
d="M712 -32q-200 0 -339.5 102t-196 286t-17.5 419q38 229 151 407.5t280.5 276.5t360.5 98q200 0 339.5 -102t196 -286.5t18.5 -420.5q-38 -228 -151 -405.5t-280.5 -276t-361.5 -98.5zM715 131q158 0 290.5 88t215 232.5t111.5 323.5q14 102 11 194t-32 170t-76.5 135
t-121 89t-164.5 32q-119 0 -225 -51.5t-184.5 -140.5t-132.5 -206t-75 -249q-28 -171 4 -309.5t130 -223t249 -84.5zM659 1748l-142 8q26 132 122.5 217.5t217.5 85.5q55 0 103.5 -22t79 -48t75.5 -48t93 -22q61 0 114.5 44t68.5 109l137 -16q-27 -132 -123.5 -213.5
t-215.5 -81.5q-50 0 -89.5 14.5t-66.5 35t-52.5 41t-61 35t-79.5 14.5q-63 0 -114.5 -43.5t-66.5 -109.5z" />
    <glyph glyph-name="uni00F6" unicode="&#xf6;" horiz-adv-x="1664" 
d="M712 -32q-200 0 -339.5 102t-196 286t-17.5 419q38 229 151 407.5t280.5 276.5t360.5 98q200 0 339.5 -102t196 -286.5t18.5 -420.5q-38 -228 -151 -405.5t-280.5 -276t-361.5 -98.5zM715 131q158 0 290.5 88t215 232.5t111.5 323.5q14 102 11 194t-32 170t-76.5 135
t-121 89t-164.5 32q-119 0 -225 -51.5t-184.5 -140.5t-132.5 -206t-75 -249q-28 -171 4 -309.5t130 -223t249 -84.5zM1272 1800q-55 0 -90.5 42.5t-25.5 98.5q9 49 48.5 82t86.5 33q60 0 94.5 -41t24.5 -100q-8 -48 -47.5 -81.5t-90.5 -33.5zM760 1800q-54 0 -89 42.5
t-27 98.5q7 48 47.5 81.5t87.5 33.5q60 0 94 -40.5t25 -100.5q-8 -46 -47.5 -80.5t-90.5 -34.5z" />
    <glyph glyph-name="uni00F7" unicode="&#xf7;" horiz-adv-x="1835" 
d="M1557 885l-28 -170h-1240l28 170h1240zM995 1155q-64 0 -103.5 45.5t-30.5 108.5q8 54 53 92.5t102 38.5q60 0 98.5 -45t29.5 -107q-8 -56 -51.5 -94.5t-97.5 -38.5zM829 160q-63 0 -100.5 45t-29.5 110q6 54 50 92t102 38q60 0 97.5 -44.5t30.5 -107.5q-6 -55 -50.5 -94
t-99.5 -39z" />
    <glyph glyph-name="uni00F8" unicode="&#xf8;" horiz-adv-x="1664" 
d="M220 -69l-108 81l147 175q-77 109 -103 257.5t3 331.5q38 229 151 407.5t280.5 276.5t360.5 98q216 0 360 -119l133 158l105 -81l-146 -175q77 -109 103.5 -258.5t-1.5 -333.5q-38 -228 -151 -405.5t-280.5 -276t-361.5 -98.5q-214 0 -360 119zM715 132q158 0 290.5 88
t215 232.5t111.5 323.5q42 253 -47 425l-823 -982q100 -87 253 -87zM378 328l823 980q-99 88 -252 88q-119 0 -225 -51.5t-184.5 -140.5t-132.5 -206t-75 -249q-42 -252 46 -421z" />
    <glyph glyph-name="uni00F9" unicode="&#xf9;" horiz-adv-x="1624" 
d="M1180 587l159 949h178l-256 -1536h-178l42 255h-13q-75 -123 -208 -199t-296 -76q-227 0 -341.5 147t-70.5 414l167 995h178l-164 -984q-28 -179 58.5 -289t253.5 -110q79 0 158 29t147.5 82t118.5 137t67 186zM899 1749l-230 454h210l178 -454h-158z" />
    <glyph glyph-name="uni00FA" unicode="&#xfa;" horiz-adv-x="1624" 
d="M1180 587l159 949h178l-256 -1536h-178l42 255h-13q-75 -123 -208 -199t-296 -76q-227 0 -341.5 147t-70.5 414l167 995h178l-164 -984q-28 -179 58.5 -289t253.5 -110q79 0 158 29t147.5 82t118.5 137t67 186zM891 1749l330 454h211l-381 -454h-160z" />
    <glyph glyph-name="uni00FB" unicode="&#xfb;" horiz-adv-x="1624" 
d="M1180 587l159 949h178l-256 -1536h-178l42 255h-13q-75 -123 -208 -199t-296 -76q-227 0 -341.5 147t-70.5 414l167 995h178l-164 -984q-28 -179 58.5 -289t253.5 -110q79 0 158 29t147.5 82t118.5 137t67 186zM728 1712h-175l2 14l407 402h149l270 -402l-1 -14h-175
l-190 290z" />
    <glyph glyph-name="uni00FC" unicode="&#xfc;" horiz-adv-x="1624" 
d="M1180 587l159 949h178l-256 -1536h-178l42 255h-13q-75 -123 -208 -199t-296 -76q-227 0 -341.5 147t-70.5 414l167 995h178l-164 -984q-28 -179 58.5 -289t253.5 -110q79 0 158 29t147.5 82t118.5 137t67 186zM1250 1800q-55 0 -90.5 42.5t-25.5 98.5q9 49 48.5 82
t86.5 33q60 0 94.5 -41t24.5 -100q-8 -48 -47.5 -81.5t-90.5 -33.5zM738 1800q-54 0 -89 42.5t-27 98.5q7 48 47.5 81.5t87.5 33.5q60 0 94 -40.5t25 -100.5q-8 -46 -47.5 -80.5t-90.5 -34.5z" />
    <glyph glyph-name="uni00FD" unicode="&#xfd;" horiz-adv-x="1537" 
d="M137 -575q-101 0 -167 32l75 158q129 -45 226 4t189 217l84 156l-304 1544h185l240 -1304h13l673 1304h201l-945 -1777q-176 -334 -470 -334zM848 1749l330 454h211l-381 -454h-160z" />
    <glyph glyph-name="uni00FE" unicode="&#xfe;" horiz-adv-x="1713" 
d="M444 2048h172l-128 -779h21q6 7 36.5 45t52 62.5t67.5 62t92 60t117 40t150 17.5q200 0 335 -100t186.5 -279.5t13.5 -412.5q-59 -359 -278 -578.5t-516 -220.5q-60 0 -111.5 10t-88.5 25t-69 38.5t-52 45t-38.5 50t-27.5 47.5t-20.5 44t-16.5 34h-21l-140 -835h-172z
M1379 768q14 103 12 195t-30 169.5t-74 134t-120.5 88.5t-169.5 32q-228 -1 -383.5 -168t-200.5 -451q-46 -289 54.5 -461t323.5 -171q93 0 177.5 32.5t150.5 90.5t119 137.5t88 173.5t53 198z" />
    <glyph glyph-name="uni00FF" unicode="&#xff;" horiz-adv-x="1537" 
d="M137 -575q-101 0 -167 32l75 158q129 -45 226 4t189 217l84 156l-304 1544h185l240 -1304h13l673 1304h201l-945 -1777q-176 -334 -470 -334zM1207 1800q-55 0 -90.5 42.5t-25.5 98.5q9 49 48.5 82t86.5 33q60 0 94.5 -41t24.5 -100q-8 -48 -47.5 -81.5t-90.5 -33.5z
M695 1800q-54 0 -89 42.5t-27 98.5q7 48 47.5 81.5t87.5 33.5q60 0 94 -40.5t25 -100.5q-8 -46 -47.5 -80.5t-90.5 -34.5z" />
    <glyph glyph-name="uni0100" unicode="&#x100;" horiz-adv-x="1848" 
d="M147 0h-196l1085 2048h200l405 -2048h-196l-117 617h-858zM558 785h739l-193 1020h-13zM1635 2515l-25 -155h-838l26 155h837z" />
    <glyph glyph-name="uni0101" unicode="&#x101;" horiz-adv-x="1567" 
d="M532 -35q-217 0 -340.5 124.5t-90.5 339.5q15 89 55.5 158.5t98 117t140 81.5t171 54t201.5 33q225 28 254 33q121 22 155 73q13 19 17 44l6 36q26 159 -49.5 248.5t-246.5 89.5q-158 0 -281.5 -70t-186.5 -175l-158 61q52 91 126.5 159t159.5 107.5t173 58.5t180 19
q53 0 103 -7t103 -23t95 -42.5t80 -66t58 -93.5t28.5 -124t-8.5 -158l-174 -1043h-178l41 243h-11q-46 -73 -115 -133t-177 -102.5t-229 -42.5zM577 128q208 0 359.5 133.5t183.5 327.5l37 222q-61 -52 -414 -94q-210 -25 -325.5 -93.5t-137.5 -202.5q-23 -137 60 -215
t237 -78zM1423 2003l-25 -155h-838l26 155h837z" />
    <glyph glyph-name="uni0102" unicode="&#x102;" horiz-adv-x="1848" 
d="M147 0h-196l1085 2048h200l405 -2048h-196l-117 617h-858zM558 785h739l-193 1020h-13zM1406 2560h168q-24 -144 -134.5 -232.5t-271.5 -88.5q-160 0 -240 88.5t-56 232.5h168q-14 -83 22.5 -134t128.5 -51t146.5 51t68.5 134z" />
    <glyph glyph-name="uni0103" unicode="&#x103;" horiz-adv-x="1567" 
d="M532 -35q-217 0 -340.5 124.5t-90.5 339.5q15 89 55.5 158.5t98 117t140 81.5t171 54t201.5 33q225 28 254 33q121 22 155 73q13 19 17 44l6 36q26 159 -49.5 248.5t-246.5 89.5q-158 0 -281.5 -70t-186.5 -175l-158 61q52 91 126.5 159t159.5 107.5t173 58.5t180 19
q53 0 103 -7t103 -23t95 -42.5t80 -66t58 -93.5t28.5 -124t-8.5 -158l-174 -1043h-178l41 243h-11q-46 -73 -115 -133t-177 -102.5t-229 -42.5zM577 128q208 0 359.5 133.5t183.5 327.5l37 222q-61 -52 -414 -94q-210 -25 -325.5 -93.5t-137.5 -202.5q-23 -137 60 -215
t237 -78zM1194 2048h168q-24 -144 -134.5 -232.5t-271.5 -88.5q-160 0 -240 88.5t-56 232.5h168q-14 -83 22.5 -134t128.5 -51t146.5 51t68.5 134z" />
    <glyph glyph-name="uni0104" unicode="&#x104;" horiz-adv-x="1848" 
d="M147 0h-196l1085 2048h200l405 -2047l1 -1q-63 -46 -103 -79t-82 -75.5t-65.5 -85t-30.5 -87.5q-11 -63 14 -92t93 -29q70 0 144 42l2 -135q-98 -62 -212 -62q-121 0 -184.5 66.5t-43.5 187.5q32 193 285 349h-14l-117 617h-858zM558 785h739l-193 1020h-13z" />
    <glyph glyph-name="uni0105" unicode="&#x105;" horiz-adv-x="1567" 
d="M532 -35q-217 0 -340.5 124.5t-90.5 339.5q15 89 55.5 158.5t98 117t140 81.5t171 54t201.5 33q225 28 254 33q121 22 155 73q13 19 17 44l6 36q26 159 -49.5 248.5t-246.5 89.5q-158 0 -281.5 -70t-186.5 -175l-158 61q52 91 126.5 159t159.5 107.5t173 58.5t180 19
q53 0 103 -7t103 -23t95 -42.5t80 -66t58 -93.5t28.5 -124t-8.5 -158l-174 -1042l1 -1q-63 -46 -103 -79t-82 -75.5t-65.5 -85t-30.5 -87.5q-11 -63 14 -92t93 -29q70 0 144 42l2 -135q-98 -62 -212 -62q-121 0 -184.5 66.5t-43.5 187.5q33 196 290 352l40 240h-11
q-46 -73 -115 -133t-177 -102.5t-229 -42.5zM577 128q208 0 359.5 133.5t183.5 327.5l37 222q-61 -52 -414 -94q-210 -25 -325.5 -93.5t-137.5 -202.5q-23 -137 60 -215t237 -78z" />
    <glyph glyph-name="uni0106" unicode="&#x106;" horiz-adv-x="2044" 
d="M1979 1408h-186q-7 214 -153.5 353t-379.5 139q-148 0 -287 -59t-254.5 -169t-199.5 -280t-118 -379q-34 -211 -7.5 -373t104 -271t193.5 -165t261 -56q241 0 438 138.5t277 353.5h188q-50 -141 -138.5 -263t-205 -212t-263.5 -141.5t-305 -51.5q-195 0 -348.5 75
t-248 214t-130 335t6.5 439q39 235 136.5 430.5t235 329t312 207.5t365.5 74q161 0 294 -51.5t222 -141.5t139 -212t52 -263zM1232 2261l330 454h211l-381 -454h-160z" />
    <glyph glyph-name="uni0107" unicode="&#x107;" horiz-adv-x="1567" 
d="M703 -32q-204 0 -342 103t-190.5 282.5t-14.5 407.5q28 172 102 319.5t179.5 252.5t241.5 164.5t285 59.5q231 0 371.5 -131.5t136.5 -345.5h-180q-7 138 -99 226.5t-250 88.5q-224 0 -393.5 -174.5t-214.5 -453.5q-48 -282 59.5 -459t332.5 -177q155 0 280.5 85.5
t181.5 231.5h180q-69 -213 -250 -346.5t-416 -133.5zM902 1749l330 454h211l-381 -454h-160z" />
    <glyph glyph-name="uni0108" unicode="&#x108;" horiz-adv-x="2044" 
d="M1979 1408h-186q-7 214 -153.5 353t-379.5 139q-148 0 -287 -59t-254.5 -169t-199.5 -280t-118 -379q-34 -211 -7.5 -373t104 -271t193.5 -165t261 -56q241 0 438 138.5t277 353.5h188q-50 -141 -138.5 -263t-205 -212t-263.5 -141.5t-305 -51.5q-195 0 -348.5 75
t-248 214t-130 335t6.5 439q39 235 136.5 430.5t235 329t312 207.5t365.5 74q161 0 294 -51.5t222 -141.5t139 -212t52 -263zM1069 2224h-175l2 14l407 402h149l270 -402l-1 -14h-175l-190 290z" />
    <glyph glyph-name="uni0109" unicode="&#x109;" horiz-adv-x="1567" 
d="M703 -32q-204 0 -342 103t-190.5 282.5t-14.5 407.5q28 172 102 319.5t179.5 252.5t241.5 164.5t285 59.5q231 0 371.5 -131.5t136.5 -345.5h-180q-7 138 -99 226.5t-250 88.5q-224 0 -393.5 -174.5t-214.5 -453.5q-48 -282 59.5 -459t332.5 -177q155 0 280.5 85.5
t181.5 231.5h180q-69 -213 -250 -346.5t-416 -133.5zM738 1712h-175l2 14l407 402h149l270 -402l-1 -14h-175l-190 290z" />
    <glyph glyph-name="uni010A" unicode="&#x10a;" horiz-adv-x="2044" 
d="M1979 1408h-186q-7 214 -153.5 353t-379.5 139q-148 0 -287 -59t-254.5 -169t-199.5 -280t-118 -379q-34 -211 -7.5 -373t104 -271t193.5 -165t261 -56q241 0 438 138.5t277 353.5h188q-50 -141 -138.5 -263t-205 -212t-263.5 -141.5t-305 -51.5q-195 0 -348.5 75
t-248 214t-130 335t6.5 439q39 235 136.5 430.5t235 329t312 207.5t365.5 74q161 0 294 -51.5t222 -141.5t139 -212t52 -263zM1343 2312q-56 0 -95 38.5t-37 92.5q2 51 41.5 88t93.5 37q56 0 94.5 -38.5t37.5 -92.5q-2 -51 -41.5 -88t-93.5 -37z" />
    <glyph glyph-name="uni010B" unicode="&#x10b;" horiz-adv-x="1567" 
d="M703 -32q-204 0 -342 103t-190.5 282.5t-14.5 407.5q28 172 102 319.5t179.5 252.5t241.5 164.5t285 59.5q231 0 371.5 -131.5t136.5 -345.5h-180q-7 138 -99 226.5t-250 88.5q-224 0 -393.5 -174.5t-214.5 -453.5q-48 -282 59.5 -459t332.5 -177q155 0 280.5 85.5
t181.5 231.5h180q-69 -213 -250 -346.5t-416 -133.5zM1013 1800q-56 0 -95 38.5t-37 92.5q2 51 41.5 88t93.5 37q56 0 94.5 -38.5t37.5 -92.5q-2 -51 -41.5 -88t-93.5 -37z" />
    <glyph glyph-name="uni010C" unicode="&#x10c;" horiz-adv-x="2044" 
d="M1979 1408h-186q-7 214 -153.5 353t-379.5 139q-148 0 -287 -59t-254.5 -169t-199.5 -280t-118 -379q-34 -211 -7.5 -373t104 -271t193.5 -165t261 -56q241 0 438 138.5t277 353.5h188q-50 -141 -138.5 -263t-205 -212t-263.5 -141.5t-305 -51.5q-195 0 -348.5 75
t-248 214t-130 335t6.5 439q39 235 136.5 430.5t235 329t312 207.5t365.5 74q161 0 294 -51.5t222 -141.5t139 -212t52 -263zM1141 2651l191 -290l286 290h175l-3 -14l-404 -402h-149l-273 402l2 14h175z" />
    <glyph glyph-name="uni010D" unicode="&#x10d;" horiz-adv-x="1567" 
d="M703 -32q-204 0 -342 103t-190.5 282.5t-14.5 407.5q28 172 102 319.5t179.5 252.5t241.5 164.5t285 59.5q231 0 371.5 -131.5t136.5 -345.5h-180q-7 138 -99 226.5t-250 88.5q-224 0 -393.5 -174.5t-214.5 -453.5q-48 -282 59.5 -459t332.5 -177q155 0 280.5 85.5
t181.5 231.5h180q-69 -213 -250 -346.5t-416 -133.5zM811 2139l191 -290l286 290h175l-3 -14l-404 -402h-149l-273 402l2 14h175z" />
    <glyph glyph-name="uni010E" unicode="&#x10e;" horiz-adv-x="2020" 
d="M749 0h-605l340 2048h631q291 0 482 -123t264.5 -355.5t19.5 -550.5q-80 -482 -376 -750.5t-756 -268.5zM359 168h400q387 0 632 231.5t312 640.5q67 401 -89 620.5t-527 219.5h-444zM1100 2651l191 -290l286 290h175l-3 -14l-404 -402h-149l-273 402l2 14h175z" />
    <glyph glyph-name="uni010F" unicode="&#x10f;" horiz-adv-x="1814" 
d="M659 -32q-188 0 -315.5 99t-176.5 280t-10 417q59 355 271 574t495 219q332 0 418 -314h16l134 805h178l-340 -2048h-173l48 285h-21q-195 -317 -524 -317zM697 131q220 0 378.5 176.5t205.5 459.5q31 185 -0.5 326t-126 221.5t-241.5 80.5q-113 0 -211.5 -48t-171 -133
t-122 -199t-71.5 -248q-25 -134 -12 -250.5t54.5 -202t123.5 -134.5t194 -49zM1803 1626l86 518h185l-139 -518h-132z" />
    <glyph glyph-name="uni0110" unicode="&#x110;" horiz-adv-x="2020" 
d="M749 0h-605l163 979h-295l25 144h293l154 925h631q291 0 482 -123t264.5 -355.5t19.5 -550.5q-80 -482 -376 -750.5t-756 -268.5zM517 1123h360l-25 -144h-358l-135 -811h400q387 0 632 231.5t312 640.5q67 401 -89 620.5t-527 219.5h-444z" />
    <glyph glyph-name="uni0111" unicode="&#x111;" horiz-adv-x="1729" 
d="M659 -32q-188 0 -315.5 99t-176.5 280t-10 417q59 355 271 574t495 219q332 0 418 -314h16l74 445h-426l25 144h425l36 216h178l-36 -216h237l-25 -144h-236l-280 -1688h-173l48 285h-21q-195 -317 -524 -317zM697 131q220 0 378.5 176.5t205.5 459.5q31 185 -0.5 326
t-126 221.5t-241.5 80.5q-113 0 -211.5 -48t-171 -133t-122 -199t-71.5 -248q-25 -134 -12 -250.5t54.5 -202t123.5 -134.5t194 -49z" />
    <glyph glyph-name="uni0112" unicode="&#x112;" horiz-adv-x="1671" 
d="M144 0l340 2048h1188l-28 -168h-1001l-128 -771h938l-28 -168h-938l-128 -773h1021l-28 -168h-1208zM1576 2515l-25 -155h-838l26 155h837z" />
    <glyph glyph-name="uni0113" unicode="&#x113;" horiz-adv-x="1637" 
d="M724 -32q-212 0 -354.5 100.5t-197.5 279.5t-16 411q38 230 153 412t285.5 284t366.5 102q128 0 234.5 -45.5t184.5 -139t106 -235.5t-1 -334l-14 -88h-1145q-45 -286 65.5 -435t357.5 -149q156 0 275 70.5t185 181.5l159 -55q-82 -155 -252.5 -257.5t-391.5 -102.5z
M353 872h962q25 147 -13.5 266t-134 188t-230.5 69q-132 0 -256.5 -74t-210 -193t-117.5 -256zM1443 2003l-25 -155h-838l26 155h837z" />
    <glyph glyph-name="uni0114" unicode="&#x114;" horiz-adv-x="1671" 
d="M144 0l340 2048h1188l-28 -168h-1001l-128 -771h938l-28 -168h-938l-128 -773h1021l-28 -168h-1208zM1348 2560h168q-24 -144 -134.5 -232.5t-271.5 -88.5q-160 0 -240 88.5t-56 232.5h168q-14 -83 22.5 -134t128.5 -51t146.5 51t68.5 134z" />
    <glyph glyph-name="uni0115" unicode="&#x115;" horiz-adv-x="1637" 
d="M724 -32q-212 0 -354.5 100.5t-197.5 279.5t-16 411q38 230 153 412t285.5 284t366.5 102q128 0 234.5 -45.5t184.5 -139t106 -235.5t-1 -334l-14 -88h-1145q-45 -286 65.5 -435t357.5 -149q156 0 275 70.5t185 181.5l159 -55q-82 -155 -252.5 -257.5t-391.5 -102.5z
M353 872h962q25 147 -13.5 266t-134 188t-230.5 69q-132 0 -256.5 -74t-210 -193t-117.5 -256zM1214 2048h168q-24 -144 -134.5 -232.5t-271.5 -88.5q-160 0 -240 88.5t-56 232.5h168q-14 -83 22.5 -134t128.5 -51t146.5 51t68.5 134z" />
    <glyph glyph-name="uni0116" unicode="&#x116;" horiz-adv-x="1671" 
d="M144 0l340 2048h1188l-28 -168h-1001l-128 -771h938l-28 -168h-938l-128 -773h1021l-28 -168h-1208zM1142 2312q-56 0 -95 38.5t-37 92.5q2 51 41.5 88t93.5 37q56 0 94.5 -38.5t37.5 -92.5q-2 -51 -41.5 -88t-93.5 -37z" />
    <glyph glyph-name="uni0117" unicode="&#x117;" horiz-adv-x="1637" 
d="M724 -32q-212 0 -354.5 100.5t-197.5 279.5t-16 411q38 230 153 412t285.5 284t366.5 102q128 0 234.5 -45.5t184.5 -139t106 -235.5t-1 -334l-14 -88h-1145q-45 -286 65.5 -435t357.5 -149q156 0 275 70.5t185 181.5l159 -55q-82 -155 -252.5 -257.5t-391.5 -102.5z
M353 872h962q25 147 -13.5 266t-134 188t-230.5 69q-132 0 -256.5 -74t-210 -193t-117.5 -256zM1009 1800q-56 0 -95 38.5t-37 92.5q2 51 41.5 88t93.5 37q56 0 94.5 -38.5t37.5 -92.5q-2 -51 -41.5 -88t-93.5 -37z" />
    <glyph glyph-name="uni0118" unicode="&#x118;" horiz-adv-x="1671" 
d="M144 0l340 2048h1188l-28 -168h-1001l-128 -771h938l-28 -168h-938l-128 -773h1021l-28 -168q-63 -46 -103 -79t-82 -75.5t-65.5 -85t-30.5 -87.5q-11 -63 14 -92t93 -29q70 0 144 42l2 -135q-98 -62 -212 -62q-121 0 -184.5 66.5t-43.5 187.5q32 193 285 349h-1025z" />
    <glyph glyph-name="uni0119" unicode="&#x119;" horiz-adv-x="1637" 
d="M631 -603q-121 0 -184.5 66.5t-43.5 187.5q29 177 241 321q-186 19 -309 123t-169 275.5t-10 388.5q38 230 153 412t285.5 284t366.5 102q128 0 234.5 -45.5t184.5 -139t106 -235.5t-1 -334l-14 -88h-1145q-45 -286 65.5 -435t357.5 -149q156 0 275 70.5t185 181.5
l159 -55q-70 -133 -209 -230t-320 -122q-112 -84 -174.5 -154t-74.5 -149q-11 -63 14 -92t93 -29q70 0 144 42l2 -135q-98 -62 -212 -62zM353 872h962q25 147 -13.5 266t-134 188t-230.5 69q-132 0 -256.5 -74t-210 -193t-117.5 -256z" />
    <glyph glyph-name="uni011A" unicode="&#x11a;" horiz-adv-x="1671" 
d="M144 0l340 2048h1188l-28 -168h-1001l-128 -771h938l-28 -168h-938l-128 -773h1021l-28 -168h-1208zM940 2651l191 -290l286 290h175l-3 -14l-404 -402h-149l-273 402l2 14h175z" />
    <glyph glyph-name="uni011B" unicode="&#x11b;" horiz-adv-x="1637" 
d="M724 -32q-212 0 -354.5 100.5t-197.5 279.5t-16 411q38 230 153 412t285.5 284t366.5 102q128 0 234.5 -45.5t184.5 -139t106 -235.5t-1 -334l-14 -88h-1145q-45 -286 65.5 -435t357.5 -149q156 0 275 70.5t185 181.5l159 -55q-82 -155 -252.5 -257.5t-391.5 -102.5z
M353 872h962q25 147 -13.5 266t-134 188t-230.5 69q-132 0 -256.5 -74t-210 -193t-117.5 -256zM807 2139l191 -290l286 290h175l-3 -14l-404 -402h-149l-273 402l2 14h175z" />
    <glyph glyph-name="uni011C" unicode="&#x11c;" horiz-adv-x="2088" 
d="M1792 1408q-8 84 -32.5 157t-68 135t-103.5 106t-143.5 69t-184.5 25q-144 0 -281.5 -58.5t-253.5 -166.5t-201.5 -276.5t-119.5 -374.5q-68 -410 83.5 -643t469.5 -233q184 0 344.5 81.5t272 236t147.5 358.5h-597l31 168h777l-31 -168q-41 -258 -178.5 -452.5
t-340.5 -297t-442 -102.5q-266 0 -447 128.5t-252 367.5t-18 556q38 237 135 434.5t235.5 332.5t314 210t367.5 75q164 0 299 -53.5t223 -145.5t136.5 -212.5t50.5 -256.5h-192zM1057 2224h-175l2 14l407 402h149l270 -402l-1 -14h-175l-190 290z" />
    <glyph glyph-name="uni011D" unicode="&#x11d;" horiz-adv-x="1692" 
d="M597 -608q-225 0 -363.5 84t-188.5 224l162 95q93 -243 409 -243q211 0 353.5 105.5t177.5 313.5l54 346h-16q-34 -58 -78.5 -107.5t-107.5 -95t-149 -72t-185 -26.5q-281 0 -422.5 204t-83.5 552q38 231 146 409.5t269 277t349 98.5q329 0 420 -314h18l48 293h174
l-260 -1576q-24 -143 -89.5 -253t-162.5 -178t-216.5 -102.5t-257.5 -34.5zM705 179q222 0 376 159t200 437q30 181 -1.5 320.5t-126.5 219.5t-242 80q-113 0 -211.5 -48t-170.5 -132.5t-121 -196.5t-71 -243q-29 -178 1 -311t123.5 -209t243.5 -76zM764 1712h-175l2 14
l407 402h149l270 -402l-1 -14h-175l-190 290z" />
    <glyph glyph-name="uni011E" unicode="&#x11e;" horiz-adv-x="2088" 
d="M1792 1408q-8 84 -32.5 157t-68 135t-103.5 106t-143.5 69t-184.5 25q-144 0 -281.5 -58.5t-253.5 -166.5t-201.5 -276.5t-119.5 -374.5q-68 -410 83.5 -643t469.5 -233q184 0 344.5 81.5t272 236t147.5 358.5h-597l31 168h777l-31 -168q-41 -258 -178.5 -452.5
t-340.5 -297t-442 -102.5q-266 0 -447 128.5t-252 367.5t-18 556q38 237 135 434.5t235.5 332.5t314 210t367.5 75q164 0 299 -53.5t223 -145.5t136.5 -212.5t50.5 -256.5h-192zM1537 2560h168q-24 -144 -134.5 -232.5t-271.5 -88.5q-160 0 -240 88.5t-56 232.5h168
q-14 -83 22.5 -134t128.5 -51t146.5 51t68.5 134z" />
    <glyph glyph-name="uni011F" unicode="&#x11f;" horiz-adv-x="1692" 
d="M597 -608q-225 0 -363.5 84t-188.5 224l162 95q93 -243 409 -243q211 0 353.5 105.5t177.5 313.5l54 346h-16q-34 -58 -78.5 -107.5t-107.5 -95t-149 -72t-185 -26.5q-281 0 -422.5 204t-83.5 552q38 231 146 409.5t269 277t349 98.5q329 0 420 -314h18l48 293h174
l-260 -1576q-24 -143 -89.5 -253t-162.5 -178t-216.5 -102.5t-257.5 -34.5zM705 179q222 0 376 159t200 437q30 181 -1.5 320.5t-126.5 219.5t-242 80q-113 0 -211.5 -48t-170.5 -132.5t-121 -196.5t-71 -243q-29 -178 1 -311t123.5 -209t243.5 -76zM1244 2048h168
q-24 -144 -134.5 -232.5t-271.5 -88.5q-160 0 -240 88.5t-56 232.5h168q-14 -83 22.5 -134t128.5 -51t146.5 51t68.5 134z" />
    <glyph glyph-name="uni0120" unicode="&#x120;" horiz-adv-x="2088" 
d="M1792 1408q-8 84 -32.5 157t-68 135t-103.5 106t-143.5 69t-184.5 25q-144 0 -281.5 -58.5t-253.5 -166.5t-201.5 -276.5t-119.5 -374.5q-68 -410 83.5 -643t469.5 -233q184 0 344.5 81.5t272 236t147.5 358.5h-597l31 168h777l-31 -168q-41 -258 -178.5 -452.5
t-340.5 -297t-442 -102.5q-266 0 -447 128.5t-252 367.5t-18 556q38 237 135 434.5t235.5 332.5t314 210t367.5 75q164 0 299 -53.5t223 -145.5t136.5 -212.5t50.5 -256.5h-192zM1331 2312q-56 0 -95 38.5t-37 92.5q2 51 41.5 88t93.5 37q56 0 94.5 -38.5t37.5 -92.5
q-2 -51 -41.5 -88t-93.5 -37z" />
    <glyph glyph-name="uni0121" unicode="&#x121;" horiz-adv-x="1692" 
d="M597 -608q-225 0 -363.5 84t-188.5 224l162 95q93 -243 409 -243q211 0 353.5 105.5t177.5 313.5l54 346h-16q-34 -58 -78.5 -107.5t-107.5 -95t-149 -72t-185 -26.5q-281 0 -422.5 204t-83.5 552q38 231 146 409.5t269 277t349 98.5q329 0 420 -314h18l48 293h174
l-260 -1576q-24 -143 -89.5 -253t-162.5 -178t-216.5 -102.5t-257.5 -34.5zM705 179q222 0 376 159t200 437q30 181 -1.5 320.5t-126.5 219.5t-242 80q-113 0 -211.5 -48t-170.5 -132.5t-121 -196.5t-71 -243q-29 -178 1 -311t123.5 -209t243.5 -76zM1038 1800
q-56 0 -95 38.5t-37 92.5q2 51 41.5 88t93.5 37q56 0 94.5 -38.5t37.5 -92.5q-2 -51 -41.5 -88t-93.5 -37z" />
    <glyph glyph-name="uni0122" unicode="&#x122;" horiz-adv-x="2088" 
d="M1792 1408q-8 84 -32.5 157t-68 135t-103.5 106t-143.5 69t-184.5 25q-144 0 -281.5 -58.5t-253.5 -166.5t-201.5 -276.5t-119.5 -374.5q-68 -410 83.5 -643t469.5 -233q184 0 344.5 81.5t272 236t147.5 358.5h-597l31 168h777l-31 -168q-41 -258 -178.5 -452.5
t-340.5 -297t-442 -102.5q-266 0 -447 128.5t-252 367.5t-18 556q38 237 135 434.5t235.5 332.5t314 210t367.5 75q164 0 299 -53.5t223 -145.5t136.5 -212.5t50.5 -256.5h-192zM599 -680l205 518h185l-250 -518h-140z" />
    <glyph glyph-name="uni0123" unicode="&#x123;" horiz-adv-x="1692" 
d="M597 -608q-225 0 -363.5 84t-188.5 224l162 95q93 -243 409 -243q211 0 353.5 105.5t177.5 313.5l54 346h-16q-34 -58 -78.5 -107.5t-107.5 -95t-149 -72t-185 -26.5q-281 0 -422.5 204t-83.5 552q38 231 146 409.5t269 277t349 98.5q329 0 420 -314h18l48 293h174
l-260 -1576q-24 -143 -89.5 -253t-162.5 -178t-216.5 -102.5t-257.5 -34.5zM705 179q222 0 376 159t200 437q30 181 -1.5 320.5t-126.5 219.5t-242 80q-113 0 -211.5 -48t-170.5 -132.5t-121 -196.5t-71 -243q-29 -178 1 -311t123.5 -209t243.5 -76zM873 1736l31 172
q18 106 104 230t167 190l116 -129q-64 -85 -90 -149t-41 -152l-25 -162h-262z" />
    <glyph glyph-name="uni0124" unicode="&#x124;" horiz-adv-x="2080" 
d="M144 0l340 2048h187l-156 -939h1162l156 939h187l-340 -2048h-187l156 941h-1162l-156 -941h-187zM1049 2227h-175l2 14l407 402h149l270 -402l-1 -14h-175l-190 290z" />
    <glyph glyph-name="uni0125" unicode="&#x125;" horiz-adv-x="1643" 
d="M444 960l-159 -960h-178l340 2048h178l-124 -753h16q74 123 201 192t298 69q239 0 357 -146t74 -415l-167 -995h-179l164 984q31 189 -55 299t-265 110q-187 0 -326.5 -117.5t-174.5 -315.5zM328 2224h-175l2 14l407 402h149l270 -402l-1 -14h-175l-190 290z" />
    <glyph glyph-name="uni0126" unicode="&#x126;" horiz-adv-x="2157" 
d="M2145 1591l-29 -198h-165l-231 -1393h-187l156 941h-1162l-156 -941h-187l231 1393h-160l29 198h164l76 457h187l-76 -457h1162l76 457h187l-76 -457h161zM1764 1393h-1162l-47 -284h1162z" />
    <glyph glyph-name="uni0127" unicode="&#x127;" horiz-adv-x="1643" 
d="M444 960l-159 -960h-178l287 1729h-330l25 144h329l29 175h178l-29 -175h333l-25 -144h-332l-71 -434h16q74 123 201 192t298 69q239 0 357 -146t74 -415l-167 -995h-179l164 984q31 189 -55 299t-265 110q-187 0 -326.5 -117.5t-174.5 -315.5z" />
    <glyph glyph-name="uni0128" unicode="&#x128;" horiz-adv-x="1160" 
d="M886 2048l-340 -2048h-187l340 2048h187zM490 2260l-142 8q26 132 122.5 217.5t217.5 85.5q55 0 103.5 -22t79 -48t75.5 -48t93 -22q61 0 114.5 44t68.5 109l137 -16q-27 -132 -123.5 -213.5t-215.5 -81.5q-50 0 -89.5 14.5t-66.5 35t-52.5 41t-61 35t-79.5 14.5
q-63 0 -114.5 -43.5t-66.5 -109.5z" />
    <glyph glyph-name="uni0129" unicode="&#x129;" horiz-adv-x="653" 
d="M109 0l256 1536h179l-256 -1536h-179zM155 1751l-142 8q26 132 122.5 217.5t217.5 85.5q55 0 103.5 -22t79 -48t75.5 -48t93 -22q61 0 114.5 44t68.5 109l137 -16q-27 -132 -123.5 -213.5t-215.5 -81.5q-50 0 -89.5 14.5t-66.5 35t-52.5 41t-61 35t-79.5 14.5
q-63 0 -114.5 -43.5t-66.5 -109.5z" />
    <glyph glyph-name="uni012A" unicode="&#x12a;" horiz-adv-x="731" 
d="M671 2048l-340 -2048h-187l340 2048h187zM1073 2515l-25 -155h-838l26 155h837z" />
    <glyph glyph-name="uni012B" unicode="&#x12b;" horiz-adv-x="653" 
d="M109 0l256 1536h179l-256 -1536h-179zM953 2006l-25 -155h-838l26 155h837z" />
    <glyph glyph-name="uni012C" unicode="&#x12c;" horiz-adv-x="731" 
d="M671 2048l-340 -2048h-187l340 2048h187zM845 2560h168q-24 -144 -134.5 -232.5t-271.5 -88.5q-160 0 -240 88.5t-56 232.5h168q-14 -83 22.5 -134t128.5 -51t146.5 51t68.5 134z" />
    <glyph glyph-name="uni012D" unicode="&#x12d;" horiz-adv-x="653" 
d="M109 0l256 1536h179l-256 -1536h-179zM725 2051h168q-24 -144 -134.5 -232.5t-271.5 -88.5q-160 0 -240 88.5t-56 232.5h168q-14 -83 22.5 -134t128.5 -51t146.5 51t68.5 134z" />
    <glyph glyph-name="uni012E" unicode="&#x12e;" horiz-adv-x="731" 
d="M671 2048l-340 -2048q-63 -46 -103 -79t-82 -75.5t-65.5 -85t-30.5 -87.5q-11 -63 14 -92t93 -29q70 0 144 42l2 -135q-98 -62 -212 -62q-121 0 -184.5 66.5t-43.5 187.5q32 193 285 349h-4l340 2048h187z" />
    <glyph glyph-name="uni012F" unicode="&#x12f;" horiz-adv-x="629" 
d="M55 -603q-121 0 -184.5 66.5t-43.5 187.5q33 196 290 352l255 1533h179l-256 -1536q-63 -46 -103 -79t-82 -75.5t-65.5 -85t-30.5 -87.5q-11 -63 14 -92t93 -29q70 0 144 42l2 -135q-98 -62 -212 -62zM515 1805q-56 0 -95 38.5t-37 92.5q2 51 41.5 88t93.5 37
q56 0 94.5 -38.5t37.5 -92.5q-2 -51 -41.5 -88t-93.5 -37z" />
    <glyph glyph-name="uni0130" unicode="&#x130;" horiz-adv-x="731" 
d="M671 2048l-340 -2048h-187l340 2048h187zM639 2312q-56 0 -95 38.5t-37 92.5q2 51 41.5 88t93.5 37q56 0 94.5 -38.5t37.5 -92.5q-2 -51 -41.5 -88t-93.5 -37z" />
    <glyph glyph-name="uni0131" unicode="&#x131;" horiz-adv-x="653" 
d="M109 0l256 1536h179l-256 -1536h-179z" />
    <glyph glyph-name="uni0132" unicode="&#x132;" horiz-adv-x="2237" 
d="M1991 2048h187l-246 -1483q-48 -292 -218.5 -442.5t-423.5 -150.5q-245 0 -381.5 131.5t-102.5 344.5h178q-20 -139 67.5 -223.5t244.5 -84.5q173 0 294.5 110.5t157.5 325.5zM671 2048l-340 -2048h-187l340 2048h187z" />
    <glyph glyph-name="uni0133" unicode="&#x133;" horiz-adv-x="1307" 
d="M1018 1536h179l-279 -1685q-33 -198 -161.5 -312.5t-322.5 -114.5q-26 0 -41 1l29 167h38q110 0 184.5 68.5t95.5 190.5zM109 0l256 1536h179l-256 -1536h-179zM1167 1800q-56 0 -95 38.5t-37 92.5q2 51 41.5 88t93.5 37q56 0 94.5 -38.5t37.5 -92.5q-2 -51 -41.5 -88
t-93.5 -37zM519 1803q-56 0 -95 38.5t-37 92.5q2 51 41.5 88t93.5 37q56 0 94.5 -38.5t37.5 -92.5q-2 -51 -41.5 -88t-93.5 -37z" />
    <glyph glyph-name="uni0134" unicode="&#x134;" horiz-adv-x="1507" 
d="M1260 2048h187l-246 -1483q-48 -292 -218.5 -442.5t-423.5 -150.5q-245 0 -381.5 131.5t-102.5 344.5h178q-20 -139 67.5 -223.5t244.5 -84.5q173 0 294.5 110.5t157.5 325.5zM1144 2224h-175l2 14l407 402h149l270 -402l-1 -14h-175l-190 290z" />
    <glyph glyph-name="uni0135" unicode="&#x135;" horiz-adv-x="653" 
d="M365 1536h179l-279 -1685q-33 -198 -161.5 -312.5t-322.5 -114.5q-26 0 -41 1l29 167h38q110 0 184.5 68.5t95.5 190.5zM240 1712h-175l2 14l407 402h149l270 -402l-1 -14h-175l-190 290z" />
    <glyph glyph-name="uni0136" unicode="&#x136;" horiz-adv-x="1801" 
d="M144 0l340 2048h187l-183 -1103h19l1182 1103h246l-1031 -947l687 -1101h-228l-596 971l-324 -306l-112 -665h-187zM470 -680l205 518h185l-250 -518h-140z" />
    <glyph glyph-name="uni0137" unicode="&#x137;" horiz-adv-x="1479" 
d="M107 0l340 2048h178l-205 -1233h21l839 721h228l-768 -660l552 -876h-225l-478 761l-205 -166l-99 -595h-178zM322 -680l205 518h185l-250 -518h-140z" />
    <glyph glyph-name="uni0138" unicode="&#x138;" horiz-adv-x="1738" 
d="M600 1488l-108 -648h108l689 648h266l-769 -714l571 -774h-284l-493 659h-118l-110 -659h-227l248 1488h227z" />
    <glyph glyph-name="uni0139" unicode="&#x139;" horiz-adv-x="1584" 
d="M144 0l340 2048h187l-312 -1880h976l-28 -168h-1163zM534 2261l330 454h211l-381 -454h-160z" />
    <glyph glyph-name="uni013A" unicode="&#x13a;" horiz-adv-x="648" 
d="M625 2048l-340 -2048h-178l340 2048h178zM488 2261l330 454h211l-381 -454h-160z" />
    <glyph glyph-name="uni013B" unicode="&#x13b;" horiz-adv-x="1584" 
d="M144 0l340 2048h187l-312 -1880h976l-28 -168h-1163zM408 -680l205 518h185l-250 -518h-140z" />
    <glyph glyph-name="uni013C" unicode="&#x13c;" horiz-adv-x="648" 
d="M625 2048l-340 -2048h-178l340 2048h178zM-129 -680l205 518h185l-250 -518h-140z" />
    <glyph glyph-name="uni013D" unicode="&#x13d;" horiz-adv-x="1584" 
d="M144 0l340 2048h187l-312 -1880h976l-28 -168h-1163zM988 1626l86 518h185l-139 -518h-132z" />
    <glyph glyph-name="uni013E" unicode="&#x13e;" horiz-adv-x="775" 
d="M625 2048l-340 -2048h-178l340 2048h178zM750 1626l86 518h185l-139 -518h-132z" />
    <glyph glyph-name="uni013F" unicode="&#x13f;" horiz-adv-x="1568" 
d="M141 0l340 2048h187l-312 -1880h976l-28 -168h-1163zM1015 996q-56 0 -95 38.5t-37 92.5q2 51 41.5 88t93.5 37q56 0 94.5 -38.5t37.5 -92.5q-2 -51 -41.5 -88t-93.5 -37z" />
    <glyph glyph-name="uni0140" unicode="&#x140;" horiz-adv-x="812" 
d="M622 2048l-340 -2048h-178l340 2048h178zM749 997q-56 0 -95 38.5t-37 92.5q2 51 41.5 88t93.5 37q56 0 94.5 -38.5t37.5 -92.5q-2 -51 -41.5 -88t-93.5 -37z" />
    <glyph glyph-name="uni0141" unicode="&#x141;" horiz-adv-x="1562" 
d="M821 1265l8 -160l-364 -122l-135 -815h976l-28 -168h-1163l152 917l-202 -68l-9 162l240 80l159 957h187l-148 -892z" />
    <glyph glyph-name="uni0142" unicode="&#x142;" horiz-adv-x="635" 
d="M715 1263l-24 -156l-237 -89l-169 -1018h-178l157 946l-251 -94l31 156l246 93l157 947h178l-145 -874z" />
    <glyph glyph-name="uni0143" unicode="&#x143;" horiz-adv-x="2139" 
d="M2079 2048l-340 -2048h-182l-925 1715h-16l-285 -1715h-187l340 2048h181l928 -1717h16l286 1717h184zM1235 2261l330 454h211l-381 -454h-160z" />
    <glyph glyph-name="uni0144" unicode="&#x144;" horiz-adv-x="1632" 
d="M444 960l-159 -960h-178l256 1536h173l-40 -241h16q74 121 202.5 191t293.5 70q236 0 354 -147t74 -414l-167 -995h-178l164 984q31 189 -54.5 299t-263.5 110q-184 0 -321 -117.5t-172 -315.5zM895 1749l330 454h211l-381 -454h-160z" />
    <glyph glyph-name="uni0145" unicode="&#x145;" horiz-adv-x="2139" 
d="M2079 2048l-340 -2048h-182l-925 1715h-16l-285 -1715h-187l340 2048h181l928 -1717h16l286 1717h184zM616 -680l205 518h185l-250 -518h-140z" />
    <glyph glyph-name="uni0146" unicode="&#x146;" horiz-adv-x="1632" 
d="M444 960l-159 -960h-178l256 1536h173l-40 -241h16q74 121 202.5 191t293.5 70q236 0 354 -147t74 -414l-167 -995h-178l164 984q31 189 -54.5 299t-263.5 110q-184 0 -321 -117.5t-172 -315.5zM363 -680l205 518h185l-250 -518h-140z" />
    <glyph glyph-name="uni0147" unicode="&#x147;" horiz-adv-x="2139" 
d="M2079 2048l-340 -2048h-182l-925 1715h-16l-285 -1715h-187l340 2048h181l928 -1717h16l286 1717h184zM1144 2651l191 -290l286 290h175l-3 -14l-404 -402h-149l-273 402l2 14h175z" />
    <glyph glyph-name="uni0148" unicode="&#x148;" horiz-adv-x="1632" 
d="M444 960l-159 -960h-178l256 1536h173l-40 -241h16q74 121 202.5 191t293.5 70q236 0 354 -147t74 -414l-167 -995h-178l164 984q31 189 -54.5 299t-263.5 110q-184 0 -321 -117.5t-172 -315.5zM804 2139l191 -290l286 290h175l-3 -14l-404 -402h-149l-273 402l2 14h175z
" />
    <glyph glyph-name="uni014A" unicode="&#x14a;" horiz-adv-x="2139" 
d="M1543 0h14l-925 1715h-16l-285 -1715h-187l340 2048h181l928 -1717h16l286 1717h184l-340 -2048h-2l-37 -192q-36 -162 -152.5 -268t-251.5 -105h-10q-89 -2 -117 8l26 165q1 0 3 -0.5t4 -0.5q30 -5 46 -4q101 -1 166.5 47t90.5 166z" />
    <glyph glyph-name="uni014B" unicode="&#x14b;" horiz-adv-x="1607" 
d="M1080 0h11l164 984q31 189 -54.5 299t-263.5 110q-184 0 -321 -117.5t-172 -315.5l-159 -960h-178l256 1536h173l-40 -241h16q74 121 202.5 191t293.5 70q236 0 354 -147t74 -414l-167 -995h-17l-31 -188q-25 -170 -145.5 -276t-267.5 -105q-84 -2 -107 9l15 152
q3 0 5 -1q35 -5 55 -4q233 -2 271 220z" />
    <glyph glyph-name="uni014C" unicode="&#x14c;" horiz-adv-x="2131" 
d="M1991 1013q-39 -235 -136.5 -430t-234.5 -329t-311 -208t-365 -74q-196 0 -349.5 75t-248 214t-129.5 335.5t6 438.5q40 235 137.5 430t235 329t312 208t365.5 74q194 0 347 -75t247.5 -214t130 -335t-6.5 -439zM1812 1035q34 205 9 366t-98.5 272t-190 169t-265.5 58
q-154 0 -295.5 -61t-256.5 -173t-197.5 -280t-116.5 -373t-9 -366t98.5 -272t190.5 -169t267 -58q207 0 386 104.5t306.5 307.5t171.5 475zM1771 2515l-25 -155h-838l26 155h837z" />
    <glyph glyph-name="uni014D" unicode="&#x14d;" horiz-adv-x="1664" 
d="M712 -32q-200 0 -339.5 102t-196 286t-17.5 419q38 229 151 407.5t280.5 276.5t360.5 98q200 0 339.5 -102t196 -286.5t18.5 -420.5q-38 -228 -151 -405.5t-280.5 -276t-361.5 -98.5zM715 131q158 0 290.5 88t215 232.5t111.5 323.5q14 102 11 194t-32 170t-76.5 135
t-121 89t-164.5 32q-119 0 -225 -51.5t-184.5 -140.5t-132.5 -206t-75 -249q-28 -171 4 -309.5t130 -223t249 -84.5zM1457 2003l-25 -155h-838l26 155h837z" />
    <glyph glyph-name="uni014E" unicode="&#x14e;" horiz-adv-x="2131" 
d="M1991 1013q-39 -235 -136.5 -430t-234.5 -329t-311 -208t-365 -74q-196 0 -349.5 75t-248 214t-129.5 335.5t6 438.5q40 235 137.5 430t235 329t312 208t365.5 74q194 0 347 -75t247.5 -214t130 -335t-6.5 -439zM1812 1035q34 205 9 366t-98.5 272t-190 169t-265.5 58
q-154 0 -295.5 -61t-256.5 -173t-197.5 -280t-116.5 -373t-9 -366t98.5 -272t190.5 -169t267 -58q207 0 386 104.5t306.5 307.5t171.5 475zM1542 2560h168q-24 -144 -134.5 -232.5t-271.5 -88.5q-160 0 -240 88.5t-56 232.5h168q-14 -83 22.5 -134t128.5 -51t146.5 51
t68.5 134z" />
    <glyph glyph-name="uni014F" unicode="&#x14f;" horiz-adv-x="1664" 
d="M712 -32q-200 0 -339.5 102t-196 286t-17.5 419q38 229 151 407.5t280.5 276.5t360.5 98q200 0 339.5 -102t196 -286.5t18.5 -420.5q-38 -228 -151 -405.5t-280.5 -276t-361.5 -98.5zM715 131q158 0 290.5 88t215 232.5t111.5 323.5q14 102 11 194t-32 170t-76.5 135
t-121 89t-164.5 32q-119 0 -225 -51.5t-184.5 -140.5t-132.5 -206t-75 -249q-28 -171 4 -309.5t130 -223t249 -84.5zM1229 2048h168q-24 -144 -134.5 -232.5t-271.5 -88.5q-160 0 -240 88.5t-56 232.5h168q-14 -83 22.5 -134t128.5 -51t146.5 51t68.5 134z" />
    <glyph glyph-name="uni0150" unicode="&#x150;" horiz-adv-x="2131" 
d="M1991 1013q-39 -235 -136.5 -430t-234.5 -329t-311 -208t-365 -74q-196 0 -349.5 75t-248 214t-129.5 335.5t6 438.5q40 235 137.5 430t235 329t312 208t365.5 74q194 0 347 -75t247.5 -214t130 -335t-6.5 -439zM1812 1035q34 205 9 366t-98.5 272t-190 169t-265.5 58
q-154 0 -295.5 -61t-256.5 -173t-197.5 -280t-116.5 -373t-9 -366t98.5 -272t190.5 -169t267 -58q207 0 386 104.5t306.5 307.5t171.5 475zM1355 2213l377 427h232l-432 -427h-177zM976 2213l283 427h228l-359 -427h-152z" />
    <glyph glyph-name="uni0151" unicode="&#x151;" horiz-adv-x="1664" 
d="M712 -32q-200 0 -339.5 102t-196 286t-17.5 419q38 229 151 407.5t280.5 276.5t360.5 98q200 0 339.5 -102t196 -286.5t18.5 -420.5q-38 -228 -151 -405.5t-280.5 -276t-361.5 -98.5zM715 131q158 0 290.5 88t215 232.5t111.5 323.5q14 102 11 194t-32 170t-76.5 135
t-121 89t-164.5 32q-119 0 -225 -51.5t-184.5 -140.5t-132.5 -206t-75 -249q-28 -171 4 -309.5t130 -223t249 -84.5zM1041 1701l377 427h232l-432 -427h-177zM662 1701l283 427h228l-359 -427h-152z" />
    <glyph glyph-name="uni0152" unicode="&#x152;" horiz-adv-x="2655" 
d="M933 0q-260 0 -439.5 128t-251.5 361t-22 535q50 305 198.5 538t370 359.5t484.5 126.5h1379l-28 -168h-1001l-128 -771h938l-28 -168h-938l-128 -773h1021l-28 -168h-1399zM1152 168l284 1712h-191q-207 0 -384 -106t-297 -301t-163 -449t12 -448.5t197.5 -301
t353.5 -106.5h188z" />
    <glyph glyph-name="uni0153" unicode="&#x153;" horiz-adv-x="2802" 
d="M712 -32q-200 0 -339.5 102t-196 286t-17.5 419q38 229 151 407.5t280.5 276.5t360.5 98q200 0 339 -102t195 -284q114 181 284.5 283.5t367.5 102.5q128 0 234.5 -45.5t184.5 -139t106 -235.5t-1 -334l-14 -88h-1145q-45 -286 65.5 -435t357.5 -149q156 0 275 70.5
t185 181.5l159 -55q-82 -155 -252.5 -257.5t-391.5 -102.5q-209 0 -350.5 98t-197.5 273q-112 -175 -279 -273t-361 -98zM715 131q158 0 290.5 88t215 232.5t111.5 323.5q14 102 11 194t-32 170t-76.5 135t-121 89t-164.5 32q-119 0 -225 -51.5t-184.5 -140.5t-132.5 -206
t-75 -249q-28 -171 4 -309.5t130 -223t249 -84.5zM1529 872h962q25 147 -13.5 266t-134 188t-230.5 69q-132 0 -256.5 -74t-210 -193t-117.5 -256z" />
    <glyph glyph-name="uni0154" unicode="&#x154;" horiz-adv-x="1777" 
d="M144 0l340 2048h661q160 0 278.5 -45t186.5 -126.5t92 -193.5t2 -248q-35 -207 -159.5 -356t-323.5 -211l330 -868h-214l-310 831q-40 -3 -82 -3h-477l-137 -828h-187zM497 999h472q236 0 376.5 115.5t174.5 320.5q34 208 -68.5 326.5t-339.5 118.5h-469zM1044 2261
l330 454h211l-381 -454h-160z" />
    <glyph glyph-name="uni0155" unicode="&#x155;" horiz-adv-x="1007" 
d="M107 0l256 1536h173l-40 -236h13q65 116 192 187.5t272 71.5q70 0 94 -3l-31 -181q-80 10 -107 10q-180 0 -315.5 -111t-164.5 -282l-164 -992h-178zM660 1749l330 454h211l-381 -454h-160z" />
    <glyph glyph-name="uni0156" unicode="&#x156;" horiz-adv-x="1777" 
d="M144 0l340 2048h661q160 0 278.5 -45t186.5 -126.5t92 -193.5t2 -248q-35 -207 -159.5 -356t-323.5 -211l330 -868h-214l-310 831q-40 -3 -82 -3h-477l-137 -828h-187zM497 999h472q236 0 376.5 115.5t174.5 320.5q34 208 -68.5 326.5t-339.5 118.5h-469zM459 -680
l205 518h185l-250 -518h-140z" />
    <glyph glyph-name="uni0157" unicode="&#x157;" horiz-adv-x="1007" 
d="M107 0l256 1536h173l-40 -236h13q65 116 192 187.5t272 71.5q70 0 94 -3l-31 -181q-80 10 -107 10q-180 0 -315.5 -111t-164.5 -282l-164 -992h-178zM-130 -680l205 518h185l-250 -518h-140z" />
    <glyph glyph-name="uni0158" unicode="&#x158;" horiz-adv-x="1777" 
d="M144 0l340 2048h661q160 0 278.5 -45t186.5 -126.5t92 -193.5t2 -248q-35 -207 -159.5 -356t-323.5 -211l330 -868h-214l-310 831q-40 -3 -82 -3h-477l-137 -828h-187zM497 999h472q236 0 376.5 115.5t174.5 320.5q34 208 -68.5 326.5t-339.5 118.5h-469zM953 2651
l191 -290l286 290h175l-3 -14l-404 -402h-149l-273 402l2 14h175z" />
    <glyph glyph-name="uni0159" unicode="&#x159;" horiz-adv-x="1007" 
d="M107 0l256 1536h173l-40 -236h13q65 116 192 187.5t272 71.5q70 0 94 -3l-31 -181q-80 10 -107 10q-180 0 -315.5 -111t-164.5 -282l-164 -992h-178zM569 2139l191 -290l286 290h175l-3 -14l-404 -402h-149l-273 402l2 14h175z" />
    <glyph glyph-name="uni015A" unicode="&#x15a;" horiz-adv-x="1772" 
d="M1509 1525q7 180 -106.5 282t-317.5 102q-213 0 -366 -107.5t-180 -273.5q-10 -62 5 -116t46.5 -92.5t81.5 -71t100.5 -54t112.5 -39.5l207 -62q83 -25 149.5 -52.5t135.5 -74.5t112 -103t63 -138.5t4 -180.5q-21 -125 -87 -231t-167.5 -183t-243.5 -121t-307 -44
q-309 0 -474 150.5t-141 396.5h192q-15 -177 111 -276.5t340 -99.5q232 0 399 114t197 297q13 76 -7 136.5t-72.5 105t-120.5 76.5t-166 62l-234 72q-481 148 -420 521q28 163 137.5 291t272.5 197t352 69q284 0 442 -154t132 -398h-182zM1051 2261l330 454h211l-381 -454
h-160z" />
    <glyph glyph-name="uni015B" unicode="&#x15b;" horiz-adv-x="1444" 
d="M1339 1199l-171 -44q-48 245 -315 245q-157 0 -269.5 -75.5t-131.5 -192.5q-16 -97 41 -158.5t194 -96.5l224 -57q371 -96 320 -408q-32 -195 -211.5 -319.5t-431.5 -124.5q-228 0 -357 102.5t-138 293.5l179 40q8 -136 93.5 -206t241.5 -70q175 0 297 80t141 201
q33 189 -209 248l-239 60q-379 97 -326 412q21 125 106 222.5t215.5 151.5t283.5 54q400 0 463 -358zM822 1749l330 454h211l-381 -454h-160z" />
    <glyph glyph-name="uni015C" unicode="&#x15c;" horiz-adv-x="1772" 
d="M1509 1525q7 180 -106.5 282t-317.5 102q-213 0 -366 -107.5t-180 -273.5q-10 -62 5 -116t46.5 -92.5t81.5 -71t100.5 -54t112.5 -39.5l207 -62q83 -25 149.5 -52.5t135.5 -74.5t112 -103t63 -138.5t4 -180.5q-21 -125 -87 -231t-167.5 -183t-243.5 -121t-307 -44
q-309 0 -474 150.5t-141 396.5h192q-15 -177 111 -276.5t340 -99.5q232 0 399 114t197 297q13 76 -7 136.5t-72.5 105t-120.5 76.5t-166 62l-234 72q-481 148 -420 521q28 163 137.5 291t272.5 197t352 69q284 0 442 -154t132 -398h-182zM888 2224h-175l2 14l407 402h149
l270 -402l-1 -14h-175l-190 290z" />
    <glyph glyph-name="uni015D" unicode="&#x15d;" horiz-adv-x="1444" 
d="M1339 1199l-171 -44q-48 245 -315 245q-157 0 -269.5 -75.5t-131.5 -192.5q-16 -97 41 -158.5t194 -96.5l224 -57q371 -96 320 -408q-32 -195 -211.5 -319.5t-431.5 -124.5q-228 0 -357 102.5t-138 293.5l179 40q8 -136 93.5 -206t241.5 -70q175 0 297 80t141 201
q33 189 -209 248l-239 60q-379 97 -326 412q21 125 106 222.5t215.5 151.5t283.5 54q400 0 463 -358zM658 1712h-175l2 14l407 402h149l270 -402l-1 -14h-175l-190 290z" />
    <glyph glyph-name="uni015E" unicode="&#x15e;" horiz-adv-x="1772" 
d="M1509 1525q7 180 -106.5 282t-317.5 102q-213 0 -366 -107.5t-180 -273.5q-10 -62 5 -116t46.5 -92.5t81.5 -71t100.5 -54t112.5 -39.5l207 -62q83 -25 149.5 -52.5t135.5 -74.5t112 -103t63 -138.5t4 -180.5q-41 -241 -237 -400t-497 -177l-15 -39q92 -15 139.5 -73
t29.5 -162q-21 -123 -127.5 -193.5t-285.5 -71.5l16 125q213 3 234 135q12 73 -33.5 105t-161.5 38l53 137q-273 20 -415 167t-120 377h192q-15 -177 111 -276.5t340 -99.5q232 0 399 114t197 297q13 76 -7 136.5t-72.5 105t-120.5 76.5t-166 62l-234 72q-481 148 -420 521
q28 163 137.5 291t272.5 197t352 69q284 0 442 -154t132 -398h-182z" />
    <glyph glyph-name="uni015F" unicode="&#x15f;" horiz-adv-x="1444" 
d="M1339 1199l-171 -44q-48 245 -315 245q-157 0 -269.5 -75.5t-131.5 -192.5q-16 -97 41 -158.5t194 -96.5l224 -57q371 -96 320 -408q-29 -178 -182.5 -298.5t-376.5 -141.5l-17 -44q92 -15 139.5 -73t29.5 -162q-21 -123 -127.5 -193.5t-285.5 -71.5l16 125
q213 3 234 135q12 73 -33.5 105t-161.5 38l54 140q-197 15 -308 116t-119 277l179 40q8 -136 93.5 -206t241.5 -70q175 0 297 80t141 201q33 189 -209 248l-239 60q-379 97 -326 412q21 125 106 222.5t215.5 151.5t283.5 54q400 0 463 -358z" />
    <glyph glyph-name="uni0160" unicode="&#x160;" horiz-adv-x="1772" 
d="M1509 1525q7 180 -106.5 282t-317.5 102q-213 0 -366 -107.5t-180 -273.5q-10 -62 5 -116t46.5 -92.5t81.5 -71t100.5 -54t112.5 -39.5l207 -62q83 -25 149.5 -52.5t135.5 -74.5t112 -103t63 -138.5t4 -180.5q-21 -125 -87 -231t-167.5 -183t-243.5 -121t-307 -44
q-309 0 -474 150.5t-141 396.5h192q-15 -177 111 -276.5t340 -99.5q232 0 399 114t197 297q13 76 -7 136.5t-72.5 105t-120.5 76.5t-166 62l-234 72q-481 148 -420 521q28 163 137.5 291t272.5 197t352 69q284 0 442 -154t132 -398h-182zM960 2651l191 -290l286 290h175
l-3 -14l-404 -402h-149l-273 402l2 14h175z" />
    <glyph glyph-name="uni0161" unicode="&#x161;" horiz-adv-x="1444" 
d="M1339 1199l-171 -44q-48 245 -315 245q-157 0 -269.5 -75.5t-131.5 -192.5q-16 -97 41 -158.5t194 -96.5l224 -57q371 -96 320 -408q-32 -195 -211.5 -319.5t-431.5 -124.5q-228 0 -357 102.5t-138 293.5l179 40q8 -136 93.5 -206t241.5 -70q175 0 297 80t141 201
q33 189 -209 248l-239 60q-379 97 -326 412q21 125 106 222.5t215.5 151.5t283.5 54q400 0 463 -358zM731 2139l191 -290l286 290h175l-3 -14l-404 -402h-149l-273 402l2 14h175z" />
    <glyph glyph-name="uni0162" unicode="&#x162;" horiz-adv-x="1781" 
d="M332 1880l28 168h1485l-28 -168h-649l-312 -1880h-2l-29 -75q92 -15 139.5 -73t29.5 -162q-21 -123 -127.5 -193.5t-285.5 -71.5l16 125q213 3 234 135q12 73 -33.5 105t-161.5 38l66 172h-33l312 1880h-649z" />
    <glyph glyph-name="uni0163" unicode="&#x163;" horiz-adv-x="1009" 
d="M968 1536l-25 -155h-327l-163 -980q-22 -134 33.5 -192t158.5 -58q43 0 106 14l13 -161q-75 -26 -159 -27l-19 -49q92 -15 139.5 -73t29.5 -162q-21 -123 -127.5 -193.5t-285.5 -71.5l16 125q213 3 234 135q12 73 -33.5 105t-161.5 38l65 169q-105 38 -160 130.5
t-33 228.5l169 1022h-229l26 155h228l61 368h179l-61 -368h326z" />
    <glyph glyph-name="uni0164" unicode="&#x164;" horiz-adv-x="1781" 
d="M332 1880l28 168h1485l-28 -168h-649l-312 -1880h-187l312 1880h-649zM965 2651l191 -290l286 290h175l-3 -14l-404 -402h-149l-273 402l2 14h175z" />
    <glyph glyph-name="uni0165" unicode="&#x165;" horiz-adv-x="1009" 
d="M968 1536l-25 -155h-327l-163 -980q-22 -134 33.5 -192t158.5 -58q43 0 106 14l13 -161q-81 -27 -165 -27q-75 0 -140 25t-113.5 71.5t-70 120.5t-6.5 165l169 1022h-229l26 155h228l61 368h179l-61 -368h326zM850 1726l86 518h185l-139 -518h-132z" />
    <glyph glyph-name="uni0166" unicode="&#x166;" horiz-adv-x="1781" 
d="M332 1880l28 168h1485l-28 -168h-649l-125 -752h329l-25 -144h-328l-163 -984h-187l163 984h-325l25 144h324l125 752h-649z" />
    <glyph glyph-name="uni0167" unicode="&#x167;" horiz-adv-x="1009" 
d="M117 864l32 177h233l56 340h-229l26 155h228l61 368h179l-61 -368h326l-25 -155h-327l-57 -340h342l-30 -177h-341l-77 -463q-22 -134 33.5 -192t158.5 -58q43 0 106 14l13 -161q-81 -27 -165 -27q-75 0 -140 25t-113.5 71.5t-70 120.5t-6.5 165l83 505h-235z" />
    </font>
</defs>
</svg>
